<svg xmlns="http://www.w3.org/2000/svg" width="24" height="24" viewBox="0 0 24 24"><path d="M21.188,0H2.813A2.816,2.816,0,0,0,0,2.813V21.188A2.816,2.816,0,0,0,2.813,24H21.188A2.816,2.816,0,0,0,24,21.188V2.813A2.816,2.816,0,0,0,21.188,0Zm.938,21.188a.939.939,0,0,1-.937.938H15.844V14.484h2.9l.479-2.906H15.844V9.563A1.383,1.383,0,0,1,17.25,8.156h1.922V5.25H17.25a4.312,4.312,0,0,0-4.311,4.321v2.007H10.125v2.906h2.814v7.641H2.813a.939.939,0,0,1-.937-.937V2.813a.939.939,0,0,1,.938-.937H21.188a.939.939,0,0,1,.938.938Z" fill="#333"/></svg>