<svg xmlns="http://www.w3.org/2000/svg" width="24.333" height="24.333" viewBox="0 0 24.333 24.333"><path d="M16.729,0H7.6A7.6,7.6,0,0,0,0,7.6v9.125a7.6,7.6,0,0,0,7.6,7.6h9.125a7.6,7.6,0,0,0,7.6-7.6V7.6A7.6,7.6,0,0,0,16.729,0Zm5.323,16.729a5.329,5.329,0,0,1-5.323,5.323H7.6a5.329,5.329,0,0,1-5.323-5.323V7.6A5.329,5.329,0,0,1,7.6,2.281h9.125A5.329,5.329,0,0,1,22.052,7.6Z" fill="#333"/><g transform="translate(6.083 6.083)"><path d="M134.083,128a6.083,6.083,0,1,0,6.083,6.083A6.084,6.084,0,0,0,134.083,128Zm0,9.885a3.8,3.8,0,1,1,3.8-3.8A3.807,3.807,0,0,1,134.083,137.885Z" transform="translate(-128 -128)" fill="#333"/></g><g transform="translate(17.896 4.816)"><circle cx="0.811" cy="0.811" r="0.811" fill="#333"/></g></svg>