<svg xmlns="http://www.w3.org/2000/svg" width="25.667" height="25.667" viewBox="0 0 25.667 25.667"><path d="M18.888,0H6.778A6.706,6.706,0,0,0,0,6.778v12.11a6.706,6.706,0,0,0,6.778,6.778h12.11a6.706,6.706,0,0,0,6.778-6.778V6.778A6.707,6.707,0,0,0,18.888,0Zm5.123,18.888a5.068,5.068,0,0,1-5.123,5.123H6.778a5.068,5.068,0,0,1-5.123-5.123V6.778A5.068,5.068,0,0,1,6.778,1.656h12.11a5.068,5.068,0,0,1,5.123,5.123Z" fill="#333"/><path d="M102.177,115.61a.828.828,0,0,0-.906-.046,4.784,4.784,0,0,1-1.414.315l-.306.041a3.978,3.978,0,0,0-2.533-.912,3.918,3.918,0,0,0-3.928,3.653,8.06,8.06,0,0,1-4.863-2.794.828.828,0,0,0-1.4.195,11.078,11.078,0,0,0-.515,4.069c0,2.435,1.922,4.224,3.24,5.166a5.659,5.659,0,0,1-2.928.451.828.828,0,0,0-.535,1.523,9.738,9.738,0,0,0,5.2,1.5,9.5,9.5,0,0,0,9.66-9.259c.171-.248.5-.729,1.046-1.575a5.656,5.656,0,0,0,.5-1.48A.827.827,0,0,0,102.177,115.61Zm-2.714,3.151a.83.83,0,0,0-.157.485,7.881,7.881,0,0,1-8.008,7.871,8.162,8.162,0,0,1-1.48-.135,7.1,7.1,0,0,0,1.821-1.02.828.828,0,0,0-.132-1.394c-.036-.018-3.535-1.859-3.535-4.435a17.609,17.609,0,0,1,.108-2.059,9.749,9.749,0,0,0,5.87,2.344c.017,0,.034,0,.05,0a.828.828,0,0,0,.771-1.15,2.231,2.231,0,0,1,2.247-2.6,2.307,2.307,0,0,1,1.666.708.831.831,0,0,0,.757.242c.188-.036.4-.064.633-.094l.247-.033C99.7,118.434,99.474,118.746,99.463,118.761Z" transform="translate(-81.272 -109.057)" fill="#333"/></svg>