<?xml version="1.0" encoding="utf-8"?>
<!-- Generator: Adobe Illustrator 25.0.0, SVG Export Plug-In . SVG Version: 6.00 Build 0)  -->
<svg version="1.1" id="Layer_1" xmlns="http://www.w3.org/2000/svg" xmlns:xlink="http://www.w3.org/1999/xlink" x="0px" y="0px"
	 viewBox="0 0 1853.98 408.6" enable-background="new 0 0 1853.98 408.6" xml:space="preserve">
<g>
	<path fill="#F15853" d="M33.16,387.2c-3.12-3.24-4.68-7.14-4.68-11.7V138.26c0-4.56,1.56-8.4,4.68-11.52
		c3.12-3.12,6.96-4.68,11.52-4.68c4.56,0,8.46,1.56,11.7,4.68c3.24,3.12,4.86,6.96,4.86,11.52v9.36
		c17.52-18.24,38.04-27.36,61.56-27.36c14.88,0,28.98,3.78,42.3,11.34c13.32,7.56,24.12,18.6,32.4,33.12
		c8.28,14.52,12.42,31.5,12.42,50.94c0,19.44-4.14,36.42-12.42,50.94c-8.28,14.52-19.08,25.56-32.4,33.12
		c-13.32,7.56-27.42,11.34-42.3,11.34c-23.52,0-44.04-9.12-61.56-27.36v91.8c0,4.8-1.56,8.76-4.68,11.88
		c-3.12,3.12-7.08,4.68-11.88,4.68C40.12,392.06,36.28,390.44,33.16,387.2z M160.96,263.54c10.8-11.28,16.2-27.24,16.2-47.88
		c0-20.64-5.4-36.6-16.2-47.88c-10.8-11.28-25.08-16.92-42.84-16.92c-11.04,0-21.42,2.46-31.14,7.38
		c-9.72,4.92-18.3,11.46-25.74,19.62v75.6c7.44,8.16,16.02,14.7,25.74,19.62c9.72,4.92,20.1,7.38,31.14,7.38
		C135.88,280.46,150.16,274.82,160.96,263.54z"/>
	<path fill="#F15853" d="M269.14,286.04c-16.44-16.68-24.66-40.14-24.66-70.38c0-17.04,3.12-32.76,9.36-47.16
		c6.24-14.4,15.84-26.04,28.8-34.92c12.96-8.88,28.92-13.32,47.88-13.32c17.76,0,33.12,4.14,46.08,12.42
		c12.96,8.28,22.8,19.32,29.52,33.12c6.72,13.8,10.08,28.86,10.08,45.18c0,4.56-1.5,8.4-4.5,11.52c-3,3.12-7.02,4.68-12.06,4.68
		H277.6c1.92,16.8,8.16,29.88,18.72,39.24c10.56,9.36,25.32,14.04,44.28,14.04c10.08,0,18.9-0.96,26.46-2.88
		c7.56-1.92,14.94-4.68,22.14-8.28c1.92-0.96,4.08-1.44,6.48-1.44c3.84,0,7.2,1.32,10.08,3.96c2.88,2.64,4.32,6,4.32,10.08
		c0,5.28-3.12,9.72-9.36,13.32c-9.36,5.28-18.6,9.24-27.72,11.88c-9.12,2.64-20.88,3.96-35.28,3.96
		C308.44,311.06,285.58,302.72,269.14,286.04z M383.8,200.54c-0.72-11.76-3.78-21.6-9.18-29.52s-12.06-13.74-19.98-17.46
		c-7.92-3.72-15.96-5.58-24.12-5.58c-8.16,0-16.2,1.86-24.12,5.58c-7.92,3.72-14.52,9.54-19.8,17.46c-5.28,7.92-8.28,17.76-9,29.52
		H383.8z"/>
	<path fill="#F15853" d="M464.08,304.58c-3.12-3.12-4.68-6.96-4.68-11.52V138.62c0-4.56,1.56-8.46,4.68-11.7
		c3.12-3.24,6.96-4.86,11.52-4.86c4.56,0,8.46,1.62,11.7,4.86c3.24,3.24,4.86,7.14,4.86,11.7v14.76
		c9.12-10.08,18.96-18.12,29.52-24.12c10.56-6,23.04-9,37.44-9c13.2,0,24.66,3.12,34.38,9.36c9.72,6.24,17.16,14.76,22.32,25.56
		c5.16,10.8,7.74,22.68,7.74,35.64v102.24c0,4.56-1.62,8.4-4.86,11.52s-7.14,4.68-11.7,4.68c-4.56,0-8.4-1.56-11.52-4.68
		c-3.12-3.12-4.68-6.96-4.68-11.52v-98.64c0-29.28-13.2-43.92-39.6-43.92c-12,0-22.74,3.12-32.22,9.36
		c-9.48,6.24-18.42,14.64-26.82,25.2v108c0,4.56-1.62,8.4-4.86,11.52s-7.14,4.68-11.7,4.68
		C471.04,309.26,467.2,307.69,464.08,304.58z"/>
	<path fill="#F15853" d="M683.32,304.58c-3.12-3.12-4.68-6.96-4.68-11.52V138.62c0-4.56,1.56-8.46,4.68-11.7
		c3.12-3.24,6.96-4.86,11.52-4.86c4.56,0,8.46,1.62,11.7,4.86c3.24,3.24,4.86,7.14,4.86,11.7v14.76
		c9.12-10.08,18.96-18.12,29.52-24.12c10.56-6,23.04-9,37.44-9c13.2,0,24.66,3.12,34.38,9.36c9.72,6.24,17.16,14.76,22.32,25.56
		c5.16,10.8,7.74,22.68,7.74,35.64v102.24c0,4.56-1.62,8.4-4.86,11.52s-7.14,4.68-11.7,4.68c-4.56,0-8.4-1.56-11.52-4.68
		c-3.12-3.12-4.68-6.96-4.68-11.52v-98.64c0-29.28-13.2-43.92-39.6-43.92c-12,0-22.74,3.12-32.22,9.36
		c-9.48,6.24-18.42,14.64-26.82,25.2v108c0,4.56-1.62,8.4-4.86,11.52s-7.14,4.68-11.7,4.68
		C690.28,309.26,686.43,307.69,683.32,304.58z"/>
	<path fill="#F15853" d="M924.7,387.38c-3-3.12-4.5-6.84-4.5-11.16c0-1.92,0.36-3.84,1.08-5.76l23.4-60.12L877,145.46
		c-0.96-2.4-1.44-4.68-1.44-6.84c0-4.56,1.56-8.46,4.68-11.7c3.12-3.24,6.96-4.86,11.52-4.86c3.36,0,6.42,0.96,9.18,2.88
		c2.76,1.92,4.74,4.32,5.94,7.2l55.44,137.52l56.52-136.8c3.12-7.2,8.16-10.8,15.12-10.8c4.56,0,8.4,1.62,11.52,4.86
		c3.12,3.24,4.68,7.14,4.68,11.7c0,2.16-0.36,4.2-1.08,6.12L950.8,380.9c-3.36,7.44-8.4,11.16-15.12,11.16
		C931.36,392.06,927.7,390.49,924.7,387.38z"/>
	<path fill="#AAAB5F" d="M1052.68,390.62c-2.88-0.96-5.16-2.58-6.84-4.86c-1.68-2.28-2.52-4.98-2.52-8.1c0-3.6,1.32-6.78,3.96-9.54
		c2.64-2.76,5.88-4.14,9.72-4.14c1.44,0,3.24,0.18,5.4,0.54c2.16,0.36,3.96,0.54,5.4,0.54c7.44,0,12.96-1.32,16.56-3.96
		c3.6-2.64,5.4-8.4,5.4-17.28V138.98c0-4.56,1.56-8.46,4.68-11.7c3.12-3.24,6.96-4.86,11.52-4.86c4.8,0,8.76,1.56,11.88,4.68
		c3.12,3.12,4.68,7.08,4.68,11.88v205.56c0,14.88-3.78,26.82-11.34,35.82c-7.56,9-19.5,13.5-35.82,13.5
		C1066.72,393.86,1059.15,392.78,1052.68,390.62z M1092.27,81.02c-3.6-3.6-5.4-7.92-5.4-12.96v-1.44c0-5.04,1.8-9.36,5.4-12.96
		c3.6-3.6,7.92-5.4,12.96-5.4h2.16c5.04,0,9.36,1.8,12.96,5.4c3.6,3.6,5.4,7.92,5.4,12.96v1.44c0,5.04-1.8,9.36-5.4,12.96
		c-3.6,3.6-7.92,5.4-12.96,5.4h-2.16C1100.19,86.42,1095.88,84.62,1092.27,81.02z"/>
	<path fill="#AAAB5F" d="M1207.65,301.7c-9.72-6.24-17.16-14.76-22.32-25.56c-5.16-10.8-7.74-22.68-7.74-35.64V138.26
		c0-4.56,1.62-8.4,4.86-11.52c3.24-3.12,7.14-4.68,11.7-4.68c4.56,0,8.4,1.56,11.52,4.68c3.12,3.12,4.68,6.96,4.68,11.52v98.64
		c0,29.28,13.2,43.92,39.6,43.92c12,0,22.74-3.12,32.22-9.36c9.48-6.24,18.42-14.64,26.82-25.2v-108c0-4.56,1.62-8.4,4.86-11.52
		c3.24-3.12,7.14-4.68,11.7-4.68c4.56,0,8.4,1.56,11.52,4.68c3.12,3.12,4.68,6.96,4.68,11.52V292.7c0,4.56-1.56,8.46-4.68,11.7
		c-3.12,3.24-6.96,4.86-11.52,4.86c-4.56,0-8.46-1.62-11.7-4.86c-3.24-3.24-4.86-7.14-4.86-11.7v-14.76
		c-9.12,10.08-18.96,18.12-29.52,24.12c-10.56,6-23.04,9-37.44,9C1228.83,311.06,1217.37,307.93,1207.65,301.7z"/>
	<path fill="#AAAB5F" d="M1401.15,81.02c-3.6-3.6-5.4-7.92-5.4-12.96v-1.44c0-5.04,1.8-9.36,5.4-12.96c3.6-3.6,7.92-5.4,12.96-5.4
		h2.16c5.04,0,9.36,1.8,12.96,5.4c3.6,3.6,5.4,7.92,5.4,12.96v1.44c0,5.04-1.8,9.36-5.4,12.96s-7.92,5.4-12.96,5.4h-2.16
		C1409.07,86.42,1404.75,84.62,1401.15,81.02z M1403.31,304.58c-3.12-3.12-4.68-6.96-4.68-11.52V138.62c0-4.56,1.56-8.46,4.68-11.7
		c3.12-3.24,6.96-4.86,11.52-4.86c4.8,0,8.76,1.56,11.88,4.68c3.12,3.12,4.68,7.08,4.68,11.88v154.44c0,4.56-1.62,8.4-4.86,11.52
		s-7.14,4.68-11.7,4.68C1410.27,309.26,1406.43,307.69,1403.31,304.58z"/>
	<path fill="#AAAB5F" d="M1525.35,299.54c-14.64-7.68-26.34-18.72-35.1-33.12c-8.76-14.4-13.14-31.32-13.14-50.76
		c0-19.44,4.38-36.36,13.14-50.76c8.76-14.4,20.46-25.44,35.1-33.12c14.64-7.68,30.6-11.52,47.88-11.52
		c12.72,0,23.7,1.62,32.94,4.86c9.24,3.24,17.82,7.38,25.74,12.42c4.8,3.12,7.2,7.32,7.2,12.6c0,3.6-1.38,6.9-4.14,9.9
		c-2.76,3-5.94,4.5-9.54,4.5c-2.64,0-5.28-0.72-7.92-2.16c-7.92-4.08-14.7-7.02-20.34-8.82c-5.64-1.8-12.66-2.7-21.06-2.7
		c-20.64,0-36.84,5.94-48.6,17.82c-11.76,11.88-17.64,27.54-17.64,46.98c0,19.44,5.88,35.1,17.64,46.98
		c11.76,11.88,27.96,17.82,48.6,17.82c8.4,0,15.42-0.9,21.06-2.7c5.64-1.8,12.42-4.74,20.34-8.82c2.64-1.44,5.28-2.16,7.92-2.16
		c3.6,0,6.78,1.5,9.54,4.5c2.76,3,4.14,6.3,4.14,9.9c0,5.28-2.4,9.48-7.2,12.6c-7.92,5.04-16.5,9.18-25.74,12.42
		c-9.24,3.24-20.22,4.86-32.94,4.86C1555.95,311.06,1539.99,307.22,1525.35,299.54z"/>
	<path fill="#AAAB5F" d="M1692.21,286.04c-16.44-16.68-24.66-40.14-24.66-70.38c0-17.04,3.12-32.76,9.36-47.16
		c6.24-14.4,15.84-26.04,28.8-34.92c12.96-8.88,28.92-13.32,47.88-13.32c17.76,0,33.12,4.14,46.08,12.42
		c12.96,8.28,22.8,19.32,29.52,33.12c6.72,13.8,10.08,28.86,10.08,45.18c0,4.56-1.5,8.4-4.5,11.52c-3,3.12-7.02,4.68-12.06,4.68
		h-122.04c1.92,16.8,8.16,29.88,18.72,39.24c10.56,9.36,25.32,14.04,44.28,14.04c10.08,0,18.9-0.96,26.46-2.88
		c7.56-1.92,14.94-4.68,22.14-8.28c1.92-0.96,4.08-1.44,6.48-1.44c3.84,0,7.2,1.32,10.08,3.96c2.88,2.64,4.32,6,4.32,10.08
		c0,5.28-3.12,9.72-9.36,13.32c-9.36,5.28-18.6,9.24-27.72,11.88c-9.12,2.64-20.88,3.96-35.28,3.96
		C1731.5,311.06,1708.64,302.72,1692.21,286.04z M1806.87,200.54c-0.72-11.76-3.78-21.6-9.18-29.52s-12.06-13.74-19.98-17.46
		c-7.92-3.72-15.96-5.58-24.12-5.58c-8.16,0-16.2,1.86-24.12,5.58c-7.92,3.72-14.52,9.54-19.8,17.46c-5.28,7.92-8.28,17.76-9,29.52
		H1806.87z"/>
</g>
</svg>
