<?xml version="1.0" encoding="utf-8"?>
<!-- Generator: Adobe Illustrator 25.0.0, SVG Export Plug-In . SVG Version: 6.00 Build 0)  -->
<svg version="1.1" id="Layer_1" xmlns="http://www.w3.org/2000/svg" xmlns:xlink="http://www.w3.org/1999/xlink" x="0px" y="0px"
	 viewBox="0 0 45 45" enable-background="new 0 0 45 45" xml:space="preserve">
<g id="shopping-cart" transform="translate(0 -37.067)">
	<g id="Group_2" transform="translate(0 37.067)">
		<path id="Path_1" fill="#FFC1B3" d="M12.73,31.78h25.14c0.62-0.03,1.13-0.48,1.25-1.09l5.15-20.23c0.12-0.46,0.04-0.95-0.2-1.35
			c-0.22-0.37-0.62-0.6-1.05-0.61H10.06L8.36,1.8C8.24,1.21,7.74,0.77,7.14,0.74H1.91c-0.8,0.13-1.35,0.88-1.23,1.68
			c0.1,0.63,0.59,1.13,1.23,1.23h4.22l1.74,6.82c0,0.02,0.01,0.04,0.02,0.07l4.62,18.13c-2.64,0.21-4.73,2.78-4.73,5.91
			c0,3.27,2.27,5.93,5.07,5.93h1.8c0.4,2.08,2.16,3.63,4.27,3.75c2.12-0.12,3.88-1.67,4.27-3.75h6.6c0.4,2.08,2.15,3.63,4.27,3.75
			c2.12-0.12,3.88-1.67,4.27-3.75h1.61c0.8-0.13,1.35-0.88,1.23-1.68c-0.1-0.63-0.59-1.13-1.23-1.23h-1.05
			c-0.42-2.19-2.27-3.81-4.49-3.94c-2.22,0.13-4.07,1.75-4.48,3.94h-6.92c-0.41-2.19-2.26-3.81-4.48-3.94
			c-2.22,0.13-4.07,1.75-4.48,3.94h-1.3c-1.61-0.25-2.71-1.76-2.45-3.37C10.47,32.97,11.47,31.98,12.73,31.78z M32.2,11.41h9.2
			l-1.73,6.79H32.2V11.41z M32.2,21.11h6.72l-1.73,6.79H32.2V21.11z M22.5,11.41h6.79v6.79H22.5V11.41z M22.5,21.11h6.79v6.79H22.5
			C22.5,27.9,22.5,21.11,22.5,21.11z M19.59,27.9h-4.34l-1.73-6.79h6.07V27.9z M11.04,11.41h8.55v6.79h-6.82L11.04,11.41z
			 M34.31,36.19c1.32,0.21,2.22,1.44,2.01,2.76c-0.16,1.03-0.97,1.85-2.01,2.01c-1.32-0.21-2.22-1.44-2.01-2.76
			C32.46,37.16,33.27,36.35,34.31,36.19z M18.56,36.19c1.32,0.21,2.22,1.44,2.01,2.76c-0.16,1.03-0.97,1.85-2.01,2.01
			c-1.32-0.21-2.22-1.44-2.01-2.76C16.72,37.16,17.53,36.35,18.56,36.19z"/>
	</g>
</g>
</svg>
