<svg xmlns="http://www.w3.org/2000/svg" width="29.652" height="25" viewBox="0 0 29.652 25">
  <defs>
    <style>
      .cls-1 {
        fill: #fff;
      }
    </style>
  </defs>
  <g id="book" transform="translate(0 -40.166)">
    <path id="Path_2" data-name="Path 2" class="cls-1" d="M28.784,45.749H25.93V41.035a.869.869,0,0,0-1.257-.777l-9.847,4.924L4.979,40.258a.869.869,0,0,0-1.257.777v4.714H.869A.869.869,0,0,0,0,46.618V64.3a.869.869,0,0,0,.869.869H28.784a.869.869,0,0,0,.869-.869V46.618A.869.869,0,0,0,28.784,45.749ZM1.737,63.429V47.487H3.722V59.18a.869.869,0,0,0,.48.777l6.944,3.472Zm12.22-.537-8.5-4.249v-16.2l8.5,4.249Zm1.737-16.2,8.5-4.249v16.2l-8.5,4.249Zm12.22,16.739H18.506l6.944-3.472a.869.869,0,0,0,.48-.777V47.487h1.985Z" transform="translate(0)"/>
    <path id="Path_3" data-name="Path 3" class="cls-1" d="M129.011,152.268l2.792,1.4a.869.869,0,0,0,.777-1.554l-2.791-1.4a.869.869,0,0,0-.777,1.554Z" transform="translate(-121.086 -104.059)"/>
    <path id="Path_4" data-name="Path 4" class="cls-1" d="M129.011,230.594l2.792,1.4a.869.869,0,1,0,.777-1.554l-2.791-1.4a.869.869,0,1,0-.777,1.554Z" transform="translate(-121.086 -177.848)"/>
    <path id="Path_5" data-name="Path 5" class="cls-1" d="M129.011,308.918l2.792,1.4a.869.869,0,1,0,.777-1.554l-2.791-1.4a.869.869,0,0,0-.777,1.554Z" transform="translate(-121.086 -251.636)"/>
    <path id="Path_6" data-name="Path 6" class="cls-1" d="M308.536,150.714l-2.792,1.4a.869.869,0,0,0,.777,1.554l2.792-1.4a.869.869,0,1,0-.777-1.554Z" transform="translate(-287.585 -104.059)"/>
    <path id="Path_7" data-name="Path 7" class="cls-1" d="M308.536,229.039l-2.792,1.4a.869.869,0,0,0,.777,1.554l2.792-1.4a.869.869,0,1,0-.777-1.554Z" transform="translate(-287.585 -177.848)"/>
    <path id="Path_8" data-name="Path 8" class="cls-1" d="M308.536,307.364l-2.792,1.4a.869.869,0,0,0,.777,1.554l2.792-1.4a.869.869,0,0,0-.777-1.554Z" transform="translate(-287.585 -251.636)"/>
  </g>
</svg>
