<svg xmlns="http://www.w3.org/2000/svg" width="156" height="127" viewBox="0 0 156 127">
  <defs>
    <style>
      .cls-1 {
        fill: #f3c4ce;
      }

      .cls-2 {
        fill: #bc6173;
      }
    </style>
  </defs>
  <g id="Group_27" data-name="Group 27" transform="translate(-555 -4988)">
    <rect id="Rectangle_24" data-name="Rectangle 24" class="cls-1" width="156" height="127" rx="25" transform="translate(555 4988)"/>
    <g id="_005-buffet" data-name="005-buffet" transform="translate(593 4989.208)">
      <path id="Path_17" data-name="Path 17" class="cls-2" d="M80,57.385a3.223,3.223,0,0,0-3.179-3.258H70.5a6.057,6.057,0,0,1-1.265-2.687h.581a3.028,3.028,0,0,0,2.918-2.315l.5-1.988h.044a3.023,3.023,0,0,0,.286-6.023l0-.029a4.522,4.522,0,0,0-4.033-4.042,4.376,4.376,0,0,0-2.333.429,1.017,1.017,0,0,1-1.128-.221,4.925,4.925,0,0,0-2.859-1.33l7.809-3.068h0a1.72,1.72,0,0,0,.989-1.036,1.777,1.777,0,0,0-.118-1.443,16.938,16.938,0,0,0-8.553-7.626,15.289,15.289,0,0,0-10.115-.435l-.28-.749a1.163,1.163,0,0,0-1.514-.692,1.21,1.21,0,0,0-.675,1.552l.28.748C44.494,26.339,40.9,33.821,42.289,41.377a3.028,3.028,0,0,0-1.714,2.742,2.986,2.986,0,0,0,2.945,3.019h.044l.5,1.988a3.028,3.028,0,0,0,2.918,2.316h1.425a6.057,6.057,0,0,1-1.265,2.687H30.87a6.057,6.057,0,0,1-1.265-2.687h1.24a3.028,3.028,0,0,0,2.918-2.315l.5-1.988h.043a2.986,2.986,0,0,0,2.945-3.019,3.016,3.016,0,0,0-2.077-2.885c-1.231-7.72-7.263-13.537-14.575-14.1v-.8a1.172,1.172,0,1,0-2.344,0v.8c-7.312.566-13.344,6.382-14.575,14.1a3.016,3.016,0,0,0-2.077,2.885A2.986,2.986,0,0,0,4.55,47.137h.043l.5,1.988a3.028,3.028,0,0,0,2.918,2.316H8.78a6.057,6.057,0,0,1-1.265,2.687H3.179a3.267,3.267,0,0,0-.666,6.444v4.509A5.279,5.279,0,0,0,7.72,70.418a5.152,5.152,0,0,0,4.035-1.968,5.122,5.122,0,0,0,8.071,0,5.122,5.122,0,0,0,8.071,0,5.122,5.122,0,0,0,8.071,0,5.122,5.122,0,0,0,8.071,0,5.121,5.121,0,0,0,8.07,0,5.122,5.122,0,0,0,8.071,0,5.122,5.122,0,0,0,8.071,0,5.152,5.152,0,0,0,4.035,1.968,5.279,5.279,0,0,0,5.207-5.337v-4.51A3.246,3.246,0,0,0,80,57.385ZM68.21,39.637a2.063,2.063,0,0,1,1.11-.2A2.169,2.169,0,0,1,71.19,41.1h-11.2q0-.12,0-.24A2.73,2.73,0,0,1,62.555,38.3a2.63,2.63,0,0,1,1.927.722A3.289,3.289,0,0,0,68.21,39.637ZM57.66,40.711q-.012.2-.01.39H50.025l8.94-3.512A5.174,5.174,0,0,0,57.66,40.711ZM52.952,24.942a12.807,12.807,0,0,1,4.688-.887,13.2,13.2,0,0,1,4.854.932,14.517,14.517,0,0,1,6.969,5.9L44.548,40.679C43.425,33.938,46.876,27.33,52.952,24.942ZM42.919,44.119a.61.61,0,0,1,.6-.616H73.279a.616.616,0,0,1,0,1.233H43.52A.61.61,0,0,1,42.919,44.119Zm3.416,4.4-.35-1.386h24.83l-.35,1.386a.673.673,0,0,1-.649.515H46.984A.673.673,0,0,1,46.335,48.523Zm4.454,2.918H66.855a8.755,8.755,0,0,0,.839,2.687H49.95A8.755,8.755,0,0,0,50.789,51.44ZM19.43,29.489c6.508,0,12.037,4.9,13.342,11.611H6.088C7.393,34.394,12.922,29.489,19.43,29.489ZM3.949,44.119a.61.61,0,0,1,.6-.616H34.309a.616.616,0,0,1,0,1.233H4.55A.61.61,0,0,1,3.949,44.119Zm3.416,4.4-.35-1.386h24.83l-.35,1.386a.673.673,0,0,1-.649.515H8.014A.674.674,0,0,1,7.365,48.523ZM11.16,51.44H27.225a8.755,8.755,0,0,0,.839,2.687H10.321A8.755,8.755,0,0,0,11.16,51.44ZM7.72,68.016a2.9,2.9,0,0,1-2.863-2.935V60.644h5.727v4.437A2.9,2.9,0,0,1,7.72,68.016Zm8.071,0a2.9,2.9,0,0,1-2.863-2.935V60.644h5.727v4.437A2.9,2.9,0,0,1,15.79,68.016Zm8.07,0A2.9,2.9,0,0,1,21,65.081V60.644h5.727v4.437A2.9,2.9,0,0,1,23.861,68.016Zm8.07,0a2.9,2.9,0,0,1-2.863-2.935V60.644h5.727v4.437A2.9,2.9,0,0,1,31.931,68.016Zm8.071,0a2.9,2.9,0,0,1-2.863-2.935V60.644h5.727v4.437A2.9,2.9,0,0,1,40,68.016Zm8.07,0a2.9,2.9,0,0,1-2.863-2.935V60.644h5.727v4.437A2.9,2.9,0,0,1,48.073,68.016Zm8.07,0a2.9,2.9,0,0,1-2.863-2.935V60.644h5.727v4.437A2.9,2.9,0,0,1,56.143,68.016Zm8.07,0a2.9,2.9,0,0,1-2.863-2.935V60.644h5.727v4.437A2.9,2.9,0,0,1,64.213,68.016Zm8.071,0a2.9,2.9,0,0,1-2.863-2.935V60.644h5.727v4.437A2.9,2.9,0,0,1,72.284,68.016Zm4.537-9.775H3.179a.856.856,0,0,1,0-1.712H76.821a.856.856,0,0,1,0,1.712Z"/>
      <path id="Path_18" data-name="Path 18" class="cls-2" d="M89.765,332.9a1.186,1.186,0,0,0-1.17,1.2v9.887a1.993,1.993,0,0,1-1.964,2.017H20.386a1.993,1.993,0,0,1-1.964-2.017v-9.954a1.17,1.17,0,1,0-2.34,0v9.954a4.368,4.368,0,0,0,4.3,4.419h1.745v6.562a3.169,3.169,0,0,0,3.123,3.206h.966a3.169,3.169,0,0,0,3.123-3.206v-6.562H77.75v6.584a3.169,3.169,0,0,0,3.123,3.206h.966a3.169,3.169,0,0,0,3.123-3.206v-6.584h1.669a4.368,4.368,0,0,0,4.3-4.419V334.1A1.186,1.186,0,0,0,89.765,332.9ZM27,354.971a.794.794,0,0,1-.783.8h-.966a.794.794,0,0,1-.783-.8v-6.562H27Zm55.619.022a.794.794,0,0,1-.783.8h-.966a.794.794,0,0,1-.783-.8v-6.584h2.532Z" transform="translate(-13.506 -263.904)"/>
    </g>
  </g>
</svg>
