<svg xmlns="http://www.w3.org/2000/svg" width="156" height="127" viewBox="0 0 156 127">
  <defs>
    <style>
      .cls-1 {
        fill: #b8e2d1;
      }

      .cls-2 {
        fill: #7da394;
      }
    </style>
  </defs>
  <g id="Group_26" data-name="Group 26" transform="translate(-179 -4988)">
    <rect id="Rectangle_23" data-name="Rectangle 23" class="cls-1" width="156" height="127" rx="25" transform="translate(179 4988)"/>
    <g id="_004-room" data-name="004-room" transform="translate(217 5015.168)">
      <g id="Group_4" data-name="Group 4" transform="translate(0 0.832)">
        <g id="Group_3" data-name="Group 3" transform="translate(0 0)">
          <path id="Path_14" data-name="Path 14" class="cls-2" d="M79.245,66.4,60.3,57.559a1.07,1.07,0,0,0-.089-.082c-.033-.03-.065-.059-.1-.086s-.043-.042-.068-.059a1.091,1.091,0,0,0-.136-.067c-.025-.013-.045-.031-.069-.043L50.447,53.2,35.51,46.8l4.125-1.374,10.02,4.147h0L77.144,60.943a1.3,1.3,0,0,0,.5.1,1.307,1.307,0,0,0,1.309-1.309V17.846a1.308,1.308,0,0,0-.808-1.21L67.673,12.3h0L40.185.929a1.275,1.275,0,0,0-.3-.082h-.007a1.316,1.316,0,0,0-.584.05c-.008,0-.017,0-.025,0L0,13.987.829,16.47,38.374,3.954V43.082l-5.236,1.745V33.554a1.308,1.308,0,0,0-1.69-1.253L1.342,41.464a1.31,1.31,0,0,0-.928,1.253V63.661a1.309,1.309,0,0,0,.744,1.181L15.082,71.5,9.035,74.25a1.309,1.309,0,0,0-.018,2.374l7.86,3.724L18,77.982l-5.312-2.516,5.479-2.49,13.1,6.265a1,1,0,0,0,.117.038c.043.016.085.031.13.043a1.255,1.255,0,0,0,.23.034c.031,0,.06.012.09.012a.244.244,0,0,0,.033-.005,1.323,1.323,0,0,0,.238-.034c.034-.008.069-.009.1-.02s.067-.027.1-.041c.013-.005.026,0,.039-.008L59.832,67.48a1.3,1.3,0,0,0,.795-1.2V60.6l14.934,6.97-23.33,10.6,1.084,2.382L79.233,68.779a1.309,1.309,0,0,0,.012-2.377ZM68.481,47.953V15.472l7.854,3.249V57.774l-7.854-3.25Zm-2.618,5.489L53.71,48.412l6.824-1.7,5.329,2.131ZM56.7,44.967V34.576l2.618-.654V44.313Zm9.163,1.052-3.927-1.571V34.178l1.963.785,1.963.785Zm0-13.09L63.9,32.144l-1.963-.785V28.942l3.927,1.571Zm-14.4-24.5,14.4,5.959V27.694l-3.927-1.571v-4.35H59.318v4.214L51.464,27.95Zm0,22.22,7.854-1.963v2.537l-7.854,1.963Zm0,5.236,2.618-.654V45.622l-2.618.654ZM40.992,4.1l7.854,3.25V46.4l-7.854-3.25V4.1ZM31.753,48.035l14.886,6.38L23.255,64.654,5.325,56.078l2.013-.613,7.855-2.39,3.346-1.018,1.89-.575h0l7.854-2.39ZM8.268,52.447V48.9L13.5,47.152v3.7Zm13.09-3.983V44.97l5.236-1.745v3.644l-2.182.664ZM3.032,43.687,30.52,35.321V45.675l-1.309.4V41.408a1.309,1.309,0,0,0-1.723-1.242l-7.854,2.618a1.309,1.309,0,0,0-.9,1.242v5.233l-2.618.8V45.335A1.309,1.309,0,0,0,14.4,44.093L6.545,46.711a1.309,1.309,0,0,0-.9,1.242v5.291l-2.618.8Zm27.489,32.3L18.745,70.35h0L3.032,62.836V57.884L30.52,71.03v4.952Zm1.339-7.214-5.486-2.623L49.937,55.829l6.058,2.6Zm26.15-3.352L33.138,76.075V71.07L58.009,60.41Z" transform="translate(0 -0.832)"/>
        </g>
      </g>
      <g id="Group_6" data-name="Group 6" transform="translate(3.032 11.301)">
        <g id="Group_5" data-name="Group 5">
          <path id="Path_15" data-name="Path 15" class="cls-2" d="M44.164,65.061a1.31,1.31,0,0,0-1.179-.181L19.423,72.734a1.309,1.309,0,0,0-.9,1.242V89.684a1.309,1.309,0,0,0,1.309,1.309,1.321,1.321,0,0,0,.414-.067l23.562-7.854a1.309,1.309,0,0,0,.9-1.242V66.123A1.308,1.308,0,0,0,44.164,65.061ZM42.09,80.888,21.146,87.869V74.92L42.09,67.94Z" transform="translate(-18.528 -64.813)"/>
        </g>
      </g>
      <g id="Group_8" data-name="Group 8" transform="translate(8.85 19.537)">
        <g id="Group_7" data-name="Group 7">
          <path id="Path_16" data-name="Path 16" class="cls-2" d="M66.978,115.152l-4.664,4.665-3.159-1.054a1.317,1.317,0,0,0-1.14.153l-3.927,2.618,1.452,2.178,3.394-2.263,3.32,1.106a1.31,1.31,0,0,0,1.339-.317L68.828,117Z" transform="translate(-54.088 -115.152)"/>
        </g>
      </g>
    </g>
  </g>
</svg>
