<svg xmlns="http://www.w3.org/2000/svg" width="25" height="25" viewBox="0 0 25 25"><defs><style>.a{fill:#bc6173;}</style></defs><path class="a" d="M22.07,0H2.93A2.933,2.933,0,0,0,0,2.93V22.07A2.933,2.933,0,0,0,2.93,25H22.07A2.933,2.933,0,0,0,25,22.07V2.93A2.933,2.933,0,0,0,22.07,0Zm.977,22.07a.978.978,0,0,1-.977.977H16.5V15.088h3.017l.5-3.027H16.5v-2.1A1.44,1.44,0,0,1,17.969,8.5h2V5.469h-2a4.491,4.491,0,0,0-4.491,4.5v2.091H10.547v3.027h2.931v7.959H2.93a.978.978,0,0,1-.977-.977V2.93a.978.978,0,0,1,.977-.977H22.07a.978.978,0,0,1,.977.977Z"/></svg>