<svg xmlns="http://www.w3.org/2000/svg" width="25" height="25" viewBox="0 0 25 25"><defs><style>.a{fill:#bc6173;}</style></defs><path class="a" d="M17.188,0H7.813A7.813,7.813,0,0,0,0,7.813v9.375A7.813,7.813,0,0,0,7.813,25h9.375A7.813,7.813,0,0,0,25,17.188V7.813A7.813,7.813,0,0,0,17.188,0Zm5.469,17.188a5.475,5.475,0,0,1-5.469,5.469H7.813a5.475,5.475,0,0,1-5.469-5.469V7.813A5.475,5.475,0,0,1,7.813,2.344h9.375a5.475,5.475,0,0,1,5.469,5.469Z"/><g transform="translate(6.25 6.25)"><path class="a" d="M134.25,128a6.25,6.25,0,1,0,6.25,6.25A6.25,6.25,0,0,0,134.25,128Zm0,10.156a3.906,3.906,0,1,1,3.906-3.906A3.912,3.912,0,0,1,134.25,138.156Z" transform="translate(-128 -128)"/></g><g transform="translate(18.386 4.948)"><circle class="a" cx="0.833" cy="0.833" r="0.833"/></g></svg>