<svg xmlns="http://www.w3.org/2000/svg" width="200" height="47.191" viewBox="0 0 200 47.191">
  <defs>
    <style>
      .cls-1 {
        fill: #333;
        font-size: 36px;
        font-family: SofiaPro-Bold, Sofia Pro;
        font-weight: 700;
      }

      .cls-2 {
        fill: #bc6173;
      }
    </style>
  </defs>
  <g id="Group_22" data-name="Group 22" transform="translate(-140 -46.809)">
    <text id="Paradise" class="cls-1" transform="translate(191 84)"><tspan x="0" y="0">Paradise</tspan></text>
    <g id="bird-of-paradise" transform="translate(140 46.809)">
      <path id="Path_1" data-name="Path 1" class="cls-2" d="M45.656,24.192a1.339,1.339,0,0,0-1.29-.982H34.98c.126-.069.252-.139.377-.211a24.009,24.009,0,0,0,8.8-9.478,1.339,1.339,0,0,0-1.105-1.912,24.717,24.717,0,0,0-8.3,1.044,24.622,24.622,0,0,0,1.038-8.309,1.339,1.339,0,0,0-1.913-1.1A24.712,24.712,0,0,0,27.212,8.3,24.622,24.622,0,0,0,23.956.582a1.339,1.339,0,0,0-2.207,0A24.623,24.623,0,0,0,18.493,8.3a24.71,24.71,0,0,0-6.667-5.055,1.339,1.339,0,0,0-1.913,1.1,24.622,24.622,0,0,0,1.038,8.309,24.717,24.717,0,0,0-8.3-1.044,1.339,1.339,0,0,0-1.105,1.912A24.009,24.009,0,0,0,10.348,23c.235.135.47.263.707.387A9.393,9.393,0,0,0,3.8,30.138L.047,44.017a1.339,1.339,0,0,0,1.293,1.688H6.7a1.339,1.339,0,0,0,1.293-.99l2.471-9.144a2.236,2.236,0,0,1,2.154-1.649h2.747A57.727,57.727,0,0,0,45.055,25.7a1.339,1.339,0,0,0,.6-1.505ZM40.59,14.31a20.713,20.713,0,0,1-6.572,6.37,19.265,19.265,0,0,1-6.225,2.192,22.1,22.1,0,0,0,5.114-5.918q.276-.477.517-.959A21.784,21.784,0,0,1,40.59,14.31Zm-7.5-7.5a20.714,20.714,0,0,1-2.506,8.8,19.266,19.266,0,0,1-4.3,5.011,22.1,22.1,0,0,0,1.47-7.682c0-.367-.011-.729-.032-1.088A21.788,21.788,0,0,1,33.094,6.813ZM22.853,4.066a20.717,20.717,0,0,1,2.232,8.879,20.716,20.716,0,0,1-2.232,8.879,20.717,20.717,0,0,1-2.232-8.879A20.716,20.716,0,0,1,22.853,4.066Zm-4.878,7.791c-.02.358-.032.721-.032,1.088a22.1,22.1,0,0,0,1.47,7.682,19.268,19.268,0,0,1-4.3-5.011,20.718,20.718,0,0,1-2.507-8.807A21.707,21.707,0,0,1,17.975,11.857ZM5.113,14.306A21.707,21.707,0,0,1,12.281,16q.242.481.517.959a22.1,22.1,0,0,0,5.114,5.918,19.267,19.267,0,0,1-6.225-2.192,20.718,20.718,0,0,1-6.574-6.373ZM15.361,31.244H12.614a4.919,4.919,0,0,0-4.74,3.629l-2.2,8.155H3.088L6.383,30.837a6.707,6.707,0,0,1,6.463-4.948h26.2A55.049,55.049,0,0,1,15.361,31.244Z" transform="translate(0 -0.001)"/>
    </g>
  </g>
</svg>
