<svg xmlns="http://www.w3.org/2000/svg" width="25" height="25" viewBox="0 0 25 25"><defs><style>.a{fill:#bc6173;}</style></defs><path class="a" d="M18.407,0H6.59A6.522,6.522,0,0,0,0,6.592V18.409A6.521,6.521,0,0,0,6.59,25H18.407A6.522,6.522,0,0,0,25,18.408V6.592A6.523,6.523,0,0,0,18.407,0Zm4.98,18.408a4.87,4.87,0,0,1-4.98,4.978H6.59a4.868,4.868,0,0,1-4.977-4.978V6.592A4.869,4.869,0,0,1,6.59,1.613H18.407a4.87,4.87,0,0,1,4.98,4.979Z"/><g transform="translate(4.7 2.751)"><path class="a" d="M139.038,101.472c-5.5,0-8.27,3.815-8.27,7,0,1.927.754,3.64,2.369,4.279a.548.548,0,0,0,.2.04.388.388,0,0,0,.382-.321c.054-.2.18-.691.237-.9a.531.531,0,0,0-.166-.623,3.165,3.165,0,0,1-.765-2.2,5.4,5.4,0,0,1,5.7-5.364c3.107,0,4.815,1.837,4.815,4.291,0,3.229-1.476,5.955-3.668,5.955a1.75,1.75,0,0,1-1.827-2.158,23.407,23.407,0,0,0,1.023-3.973,1.519,1.519,0,0,0-1.562-1.681c-1.239,0-2.233,1.238-2.233,2.9a4.2,4.2,0,0,0,.369,1.772s-1.265,5.193-1.487,6.1a12.146,12.146,0,0,0-.035,4.255.144.144,0,0,0,.149.123.157.157,0,0,0,.126-.06,11.815,11.815,0,0,0,2.09-3.665c.144-.5.814-3.078.814-3.078a3.351,3.351,0,0,0,2.828,1.395c3.719,0,6.243-3.28,6.243-7.673C146.366,104.567,143.459,101.472,139.038,101.472Z" transform="translate(-130.768 -101.472)"/></g></svg>