<svg xmlns="http://www.w3.org/2000/svg" width="156" height="127" viewBox="0 0 156 127">
  <defs>
    <style>
      .cls-1 {
        fill: #f8d5c2;
      }

      .cls-2 {
        fill: #ffac80;
      }
    </style>
  </defs>
  <g id="Group_28" data-name="Group 28" transform="translate(-179 -5379)">
    <rect id="Rectangle_25" data-name="Rectangle 25" class="cls-1" width="156" height="127" rx="25" transform="translate(179 5379)"/>
    <g id="_003-swimming-pool" data-name="003-swimming-pool" transform="translate(217 5402.997)">
      <path id="Path_11" data-name="Path 11" class="cls-2" d="M77.5,459.753a8.128,8.128,0,0,1-4.964-1.519,13.843,13.843,0,0,0-15.073,0,8.871,8.871,0,0,1-9.928,0A13.072,13.072,0,0,0,40,456a13.071,13.071,0,0,0-7.536,2.231,8.125,8.125,0,0,1-4.963,1.519,8.126,8.126,0,0,1-4.964-1.519A13.072,13.072,0,0,0,15,456a13.072,13.072,0,0,0-7.536,2.231A8.126,8.126,0,0,1,2.5,459.753a2.5,2.5,0,1,0,0,5,13.071,13.071,0,0,0,7.536-2.231A8.126,8.126,0,0,1,15,461a8.126,8.126,0,0,1,4.964,1.519,13.072,13.072,0,0,0,7.536,2.231,13.072,13.072,0,0,0,7.536-2.231A8.125,8.125,0,0,1,40,461a8.126,8.126,0,0,1,4.964,1.519,13.843,13.843,0,0,0,15.072,0,8.872,8.872,0,0,1,9.928,0,13.073,13.073,0,0,0,7.537,2.231,2.5,2.5,0,1,0,0-5Z" transform="translate(-0.001 -384.751)"/>
      <path id="Path_12" data-name="Path 12" class="cls-2" d="M77.5,379.753a8.128,8.128,0,0,1-4.964-1.519,13.843,13.843,0,0,0-15.073,0,8.871,8.871,0,0,1-9.928,0A13.072,13.072,0,0,0,40,376a13.071,13.071,0,0,0-7.536,2.231,8.125,8.125,0,0,1-4.963,1.519,8.126,8.126,0,0,1-4.964-1.519A13.072,13.072,0,0,0,15,376a13.072,13.072,0,0,0-7.536,2.231A8.126,8.126,0,0,1,2.5,379.753a2.5,2.5,0,0,0,0,5,13.071,13.071,0,0,0,7.536-2.231A8.126,8.126,0,0,1,15,381a8.126,8.126,0,0,1,4.964,1.519,13.072,13.072,0,0,0,7.536,2.231,13.072,13.072,0,0,0,7.536-2.231A8.125,8.125,0,0,1,40,381a8.126,8.126,0,0,1,4.964,1.519,13.843,13.843,0,0,0,15.072,0,8.872,8.872,0,0,1,9.928,0,13.073,13.073,0,0,0,7.537,2.231,2.5,2.5,0,1,0,0-5Z" transform="translate(-0.001 -317.251)"/>
      <path id="Path_13" data-name="Path 13" class="cls-2" d="M77.5,50a8.128,8.128,0,0,1-4.964-1.519,13.843,13.843,0,0,0-15.073,0A8.126,8.126,0,0,1,52.5,50a8.611,8.611,0,0,1-2.5-.317V10a5,5,0,0,1,10,0v2.5H55a2.5,2.5,0,1,0,0,5H77.5a2.5,2.5,0,0,0,0-5H65V10a10,10,0,1,0-20,0v13.75H25V10a5,5,0,0,1,10,0v2.5H30a2.5,2.5,0,1,0,0,5h7.5A2.5,2.5,0,0,0,40,15V10a10,10,0,0,0-20,0v2.5H2.5a2.5,2.5,0,1,0,0,5H20V47.157a12.966,12.966,0,0,0-5-.9,13.072,13.072,0,0,0-7.536,2.231A8.126,8.126,0,0,1,2.5,50a2.5,2.5,0,0,0,0,5,13.071,13.071,0,0,0,7.536-2.231A8.126,8.126,0,0,1,15,51.252c3.165,0,4.045,1.1,6.3,2.286A12.69,12.69,0,0,0,27.5,55a13.072,13.072,0,0,0,7.536-2.231A8.125,8.125,0,0,1,40,51.252c3.159,0,4.021,1.086,6.306,2.288A12.687,12.687,0,0,0,52.5,55a13.072,13.072,0,0,0,7.536-2.231,8.872,8.872,0,0,1,9.928,0A13.073,13.073,0,0,0,77.5,55a2.5,2.5,0,0,0,0-5ZM45,28.753v7.5H25v-7.5Zm-5,17.5a13.071,13.071,0,0,0-7.536,2.231A8.125,8.125,0,0,1,27.5,50a8.607,8.607,0,0,1-2.5-.317V41.252H45v5.905A12.966,12.966,0,0,0,40,46.252Z"/>
    </g>
  </g>
</svg>
