<svg xmlns="http://www.w3.org/2000/svg" width="156" height="127" viewBox="0 0 156 127">
  <defs>
    <style>
      .cls-1 {
        fill: #b8e2d1;
      }

      .cls-2 {
        fill: #7da394;
      }
    </style>
  </defs>
  <g id="Group_29" data-name="Group 29" transform="translate(-555 -5379)">
    <rect id="Rectangle_26" data-name="Rectangle 26" class="cls-1" width="156" height="127" rx="25" transform="translate(555 5379)"/>
    <g id="_006-girl" data-name="006-girl" transform="translate(592.5 5402.001)">
      <path id="Path_19" data-name="Path 19" class="cls-2" d="M200.732,131.292a1.58,1.58,0,0,1-1.58-1.579,2.454,2.454,0,0,1,2.452-2.452h1.26a1.579,1.579,0,0,1,0,3.159h-.72a1.58,1.58,0,0,1-1.413.872Zm0,0" transform="translate(-167.268 -107.157)"/>
      <path id="Path_20" data-name="Path 20" class="cls-2" d="M131.317,131.292a1.58,1.58,0,0,1-1.413-.872h-.72a1.579,1.579,0,0,1,0-3.159h1.26a2.454,2.454,0,0,1,2.452,2.452,1.58,1.58,0,0,1-1.58,1.579Zm0,0" transform="translate(-107.025 -107.157)"/>
      <path id="Path_21" data-name="Path 21" class="cls-2" d="M163.988,179.149a3.606,3.606,0,0,1-2.565-1.063,1.58,1.58,0,1,1,2.235-2.234.469.469,0,0,0,.662,0,1.579,1.579,0,1,1,2.233,2.234,3.6,3.6,0,0,1-2.565,1.063Zm0,0" transform="translate(-135.11 -147.683)"/>
      <path id="Path_22" data-name="Path 22" class="cls-2" d="M322.673,365.195a1.526,1.526,0,0,1-.308-.031,1.494,1.494,0,0,1-.3-.09,1.589,1.589,0,0,1-.272-.145,1.474,1.474,0,0,1-.24-.2,1.588,1.588,0,0,1-.463-1.116,1.559,1.559,0,0,1,.031-.308,1.5,1.5,0,0,1,.09-.3,1.563,1.563,0,0,1,.145-.273,1.5,1.5,0,0,1,.2-.24,1.616,1.616,0,0,1,.512-.341,1.538,1.538,0,0,1,.3-.09,1.567,1.567,0,0,1,.616,0,1.5,1.5,0,0,1,.3.09,1.451,1.451,0,0,1,.273.146,1.5,1.5,0,0,1,.24.2,1.578,1.578,0,0,1,0,2.233,1.5,1.5,0,0,1-.24.2,1.563,1.563,0,0,1-.273.145,1.459,1.459,0,0,1-.3.09A1.517,1.517,0,0,1,322.673,365.195Zm0,0" transform="translate(-269.946 -304.843)"/>
      <path id="Path_23" data-name="Path 23" class="cls-2" d="M353.76,26.284a13.136,13.136,0,0,1-9.288-22.425,13.08,13.08,0,0,1,14.45-2.794,1.58,1.58,0,0,1-1.24,2.906A9.977,9.977,0,1,0,362.8,8.925a1.58,1.58,0,0,1,2.863-1.336A13.14,13.14,0,0,1,353.76,26.284Zm0,0" transform="translate(-286.391)"/>
      <path id="Path_24" data-name="Path 24" class="cls-2" d="M419.9,51.724h-4.543a1.58,1.58,0,0,1-1.579-1.58v-6.3a1.579,1.579,0,1,1,3.159,0v4.716H419.9a1.579,1.579,0,0,1,0,3.159Zm0,0" transform="translate(-347.987 -35.592)"/>
      <path id="Path_25" data-name="Path 25" class="cls-2" d="M78.057,50.938H69.289v-.317a6.487,6.487,0,0,0-4.9-6.28v-.828a1.579,1.579,0,1,0-3.159,0v.828a6.487,6.487,0,0,0-4.9,6.28v.317H48.185V42.119a4.2,4.2,0,0,0-4.13-4.2,11.575,11.575,0,0,0,3.69-8.381V18.3A18.242,18.242,0,0,0,29.532.074h-1.31A18.242,18.242,0,0,0,10.01,18.3V29.533a11.562,11.562,0,0,0,3.7,8.39,4.2,4.2,0,0,0-4.145,4.2v8.819H2.08a1.579,1.579,0,1,0,0,3.159h.238V79.368a1.58,1.58,0,0,0,1.58,1.58H76.239a1.58,1.58,0,0,0,1.58-1.58V54.1h.238a1.579,1.579,0,1,0,0-3.159ZM59.5,50.621a3.316,3.316,0,0,1,6.633,0v.316H59.5ZM13.17,29.509V18.3A15.079,15.079,0,0,1,28.223,3.233h1.31A15.079,15.079,0,0,1,44.586,18.3V29.521a8.509,8.509,0,0,1-8.511,8.4l-2.338-.017-.254-1.839c5.2-1.763,8.036-6.081,8.036-12.305V16.415a1.58,1.58,0,0,0-1.579-1.58A4.545,4.545,0,0,1,36.072,12.7L34.76,10.618a1.58,1.58,0,0,0-2.673,0,8.98,8.98,0,0,1-7.64,4.218H17.778a1.58,1.58,0,0,0-1.579,1.58v7.345c0,6.224,2.839,10.543,8.037,12.305l-.254,1.839-2.337.007a8.513,8.513,0,0,1-8.474-8.4Zm13.18,3.879c-4.639-1.094-6.992-4.333-6.992-9.628V17.995h5.089a12.115,12.115,0,0,0,8.839-3.79l.113.18a7.683,7.683,0,0,0,4.961,3.45v5.927c0,5.295-2.352,8.534-6.991,9.628a1.579,1.579,0,0,0-1.2,1.753l.381,2.763H27.17l.381-2.763a1.579,1.579,0,0,0-1.2-1.753Zm5.664,7.692-3.126,4.262-3.126-4.262ZM12.729,42.119a1.038,1.038,0,0,1,1.037-1.037h8.079l5.769,7.867a1.579,1.579,0,0,0,2.547,0l5.769-7.867h8.057a1.038,1.038,0,0,1,1.037,1.037v8.819h-32.3ZM74.66,77.789H71.5V62.044a1.58,1.58,0,0,0-.877-1.414,5.578,5.578,0,0,1-2.5-2.5,1.579,1.579,0,0,0-1.414-.877H60.249a1.579,1.579,0,0,0,0,3.159H65.8a8.79,8.79,0,0,0,2.542,2.542V77.789H11.8V62.957a8.788,8.788,0,0,0,2.541-2.542H44.755a1.579,1.579,0,1,0,0-3.159H13.425a1.578,1.578,0,0,0-1.414.877,5.578,5.578,0,0,1-2.5,2.5,1.58,1.58,0,0,0-.876,1.414V77.789H5.478V54.1H74.66Zm0,0" transform="translate(0 -0.063)"/>
    </g>
  </g>
</svg>
