<svg xmlns="http://www.w3.org/2000/svg" width="25" height="25" viewBox="0 0 25 25"><defs><style>.a{fill:#bc6173;}</style></defs><path class="a" d="M18.4,0H6.6A6.532,6.532,0,0,0,0,6.6V18.4A6.532,6.532,0,0,0,6.6,25H18.4A6.532,6.532,0,0,0,25,18.4V6.6A6.533,6.533,0,0,0,18.4,0Zm4.99,18.4a4.936,4.936,0,0,1-4.99,4.99H6.6a4.937,4.937,0,0,1-4.99-4.99V6.6A4.937,4.937,0,0,1,6.6,1.613H18.4a4.936,4.936,0,0,1,4.99,4.99Z"/><path class="a" d="M101.749,115.594a.806.806,0,0,0-.882-.044,4.66,4.66,0,0,1-1.377.306l-.3.04a3.875,3.875,0,0,0-2.467-.889,3.817,3.817,0,0,0-3.826,3.558,7.851,7.851,0,0,1-4.736-2.721.806.806,0,0,0-1.36.19A10.79,10.79,0,0,0,86.3,120c0,2.372,1.872,4.115,3.156,5.031a5.512,5.512,0,0,1-2.852.44.807.807,0,0,0-.521,1.484,9.485,9.485,0,0,0,5.069,1.462,9.248,9.248,0,0,0,9.409-9.019c.166-.241.483-.71,1.019-1.534a5.509,5.509,0,0,0,.482-1.442A.806.806,0,0,0,101.749,115.594Zm-2.644,3.069a.808.808,0,0,0-.153.473,7.676,7.676,0,0,1-7.8,7.666,7.95,7.95,0,0,1-1.441-.131,6.918,6.918,0,0,0,1.774-.994.806.806,0,0,0-.128-1.358c-.035-.018-3.444-1.81-3.444-4.32a17.152,17.152,0,0,1,.1-2.006,9.5,9.5,0,0,0,5.718,2.283c.016,0,.033,0,.048,0a.806.806,0,0,0,.751-1.12,2.173,2.173,0,0,1,2.189-2.536,2.247,2.247,0,0,1,1.623.69.809.809,0,0,0,.737.235c.183-.035.394-.062.616-.091l.24-.032C99.335,118.345,99.116,118.649,99.106,118.664Z" transform="translate(-81.387 -109.211)"/></svg>