<svg xmlns="http://www.w3.org/2000/svg" width="25" height="18.066" viewBox="0 0 25 18.066"><defs><style>.a{fill:#bc6173;}</style></defs><path class="a" d="M12.5,18.566h-.007c-.754-.005-7.423-.066-9.313-.577A3.864,3.864,0,0,1,.459,15.272,28.356,28.356,0,0,1,0,9.557,28.89,28.89,0,0,1,.458,3.8l0-.005A3.945,3.945,0,0,1,3.175,1.058l.01,0C5.053.565,11.735.5,12.491.5H12.5c.756.005,7.443.066,9.315.578A3.863,3.863,0,0,1,24.535,3.79a27.51,27.51,0,0,1,.46,5.788,28.435,28.435,0,0,1-.458,5.707v.005a3.865,3.865,0,0,1-2.72,2.717l-.005,0c-1.868.491-8.55.551-9.306.556H12.5ZM2.346,4.3a27.938,27.938,0,0,0-.393,5.245V9.57a26.252,26.252,0,0,0,.393,5.2A1.9,1.9,0,0,0,3.686,16.1a65.372,65.372,0,0,0,8.811.51,68.02,68.02,0,0,0,8.814-.491,1.906,1.906,0,0,0,1.338-1.336,26.342,26.342,0,0,0,.393-5.2c0-.01,0-.021,0-.031a25.425,25.425,0,0,0-.391-5.252v0a1.906,1.906,0,0,0-1.342-1.339c-1.381-.377-6.821-.5-8.811-.51a68.113,68.113,0,0,0-8.811.491A1.959,1.959,0,0,0,2.346,4.3ZM23.593,15.037h0ZM10.008,13.488V5.578l6.836,3.955Zm0,0" transform="translate(0.002 -0.5)"/></svg>