<svg xmlns="http://www.w3.org/2000/svg" width="35" height="32.079" viewBox="0 0 35 32.079">
  <path id="_001-shopping-cart" data-name="001-shopping-cart" d="M33.562,27.179H6.2l-.407-4.532a1.437,1.437,0,0,0-1.432-1.309H1.437a1.437,1.437,0,0,0,0,2.875H3.044c.878,9.78-1.391-15.5,1.653,18.418a5.53,5.53,0,0,0,2.07,3.747,4.357,4.357,0,1,0,7.529,1.2h7.867a4.358,4.358,0,1,0,4.1-2.875H10.208a2.669,2.669,0,0,1-2.454-1.618l22.971-1.35a1.438,1.438,0,0,0,1.31-1.086l2.921-11.682a1.438,1.438,0,0,0-1.395-1.786ZM10.2,50.542a1.483,1.483,0,1,1,1.483-1.483A1.485,1.485,0,0,1,10.2,50.542Zm16.062,0a1.483,1.483,0,1,1,1.483-1.483A1.485,1.485,0,0,1,26.261,50.542ZM29.5,38.925l-22.136,1.3L6.454,30.053H31.721Z" transform="translate(0 -21.338)" fill="#ec5e04"/>
</svg>
