<svg xmlns="http://www.w3.org/2000/svg" width="25" height="21.44" viewBox="0 0 25 21.44"><g transform="translate(0 0)"><path d="M23.5,40.807a1.787,1.787,0,0,0-.309-.023H5.551l.385-.179a3.577,3.577,0,0,0,1.011-.715l4.946-4.946a1.851,1.851,0,0,0,.259-2.37,1.789,1.789,0,0,0-2.683-.233L.524,41.285a1.789,1.789,0,0,0,0,2.53h0L9.468,52.76a1.789,1.789,0,0,0,2.683-.179,1.851,1.851,0,0,0-.259-2.37L6.955,45.256a3.577,3.577,0,0,0-.894-.653l-.537-.241H23.089a1.851,1.851,0,0,0,1.887-1.5A1.789,1.789,0,0,0,23.5,40.807Z" transform="translate(0 -31.842)" fill="#dedede"/></g></svg>