<svg xmlns="http://www.w3.org/2000/svg" xmlns:xlink="http://www.w3.org/1999/xlink" width="398" height="226.593" viewBox="0 0 398 226.593"><defs><linearGradient id="a" x1="0.579" y1="-0.53" x2="0.579" y2="0.47" gradientUnits="objectBoundingBox"><stop offset="0" stop-color="gray" stop-opacity="0.251"/><stop offset="0.54" stop-color="gray" stop-opacity="0.122"/><stop offset="1" stop-color="gray" stop-opacity="0.102"/></linearGradient></defs><g transform="translate(0 0)"><path d="M398,172.189a62.816,62.816,0,0,1-9.087,32.661c0,12.044-5.615,22.962-14.723,30.918a50.33,50.33,0,0,1-7.334,5.326c-.1.066-.212.129-.32.191l-.588.348-.184.108h0a57.267,57.267,0,0,1-28.208,7.243h-262c-18.067,0-34.421-6.29-46.271-16.456s-19.152-24.235-19.152-39.751A62.8,62.8,0,0,1,0,158.451C0,123.96,27.567,96,61.578,96c1.2,0,2.4.042,3.583.108C86.5,59.716,134.638,34.34,190.559,34.34c34.38,0,65.806,9.585,89.877,25.421a60.6,60.6,0,0,1,29.892-7.845c34,0,61.579,27.961,61.579,62.452a64.347,64.347,0,0,1-.348,6.534A62.623,62.623,0,0,1,398,172.189Z" transform="translate(0 -22.393)" fill="#88b3c6" opacity="0.1" style="isolation:isolate"/><ellipse cx="136.378" cy="3.653" rx="136.378" ry="3.653" transform="translate(7.306 162.213)" fill="#6c63ff" opacity="0.1" style="isolation:isolate"/><g transform="translate(49.402 64.105)" opacity="0.7"><rect width="43.488" height="24.005" transform="translate(0 74.799)" fill="#65617d"/><rect width="13.22" height="2.783" transform="translate(15.308 78.974)" opacity="0.1" style="isolation:isolate"/><rect width="9.915" height="2.087" transform="translate(16.96 79.322)" opacity="0.1" style="isolation:isolate"/><rect width="43.488" height="24.005" transform="translate(44.184 74.799)" fill="#65617d"/><rect width="13.22" height="2.783" transform="translate(59.491 78.974)" opacity="0.1" style="isolation:isolate"/><rect width="9.915" height="2.087" transform="translate(61.144 79.322)" opacity="0.1" style="isolation:isolate"/><rect width="43.488" height="24.005" transform="translate(0 50.098)" fill="#65617d"/><rect width="13.22" height="2.783" transform="translate(15.308 54.273)" opacity="0.1" style="isolation:isolate"/><rect width="9.915" height="2.087" transform="translate(16.96 54.621)" opacity="0.1" style="isolation:isolate"/><rect width="43.488" height="24.005" transform="translate(44.184 50.098)" fill="#65617d"/><rect width="13.22" height="2.783" transform="translate(59.491 54.273)" opacity="0.1" style="isolation:isolate"/><rect width="9.915" height="2.087" transform="translate(61.144 54.621)" opacity="0.1" style="isolation:isolate"/><rect width="43.488" height="24.005" transform="translate(0 25.049)" fill="#65617d"/><rect width="13.22" height="2.783" transform="translate(15.308 29.224)" opacity="0.1" style="isolation:isolate"/><rect width="9.915" height="2.087" transform="translate(16.96 29.572)" opacity="0.1" style="isolation:isolate"/><rect width="43.488" height="24.005" transform="translate(44.184 25.049)" fill="#65617d"/><rect width="13.22" height="2.783" transform="translate(59.491 29.224)" opacity="0.1" style="isolation:isolate"/><rect width="9.915" height="2.087" transform="translate(61.144 29.572)" opacity="0.1" style="isolation:isolate"/><rect width="43.488" height="24.005" transform="translate(44.184)" fill="#65617d"/><rect width="13.22" height="2.783" transform="translate(59.491 4.175)" opacity="0.1" style="isolation:isolate"/><rect width="9.915" height="2.087" transform="translate(61.144 4.523)" opacity="0.1" style="isolation:isolate"/></g><g transform="translate(137.769 63.757)" opacity="0.7"><rect width="43.488" height="24.005" transform="translate(0 74.799)" fill="#65617d"/><rect width="13.22" height="2.783" transform="translate(15.308 78.974)" opacity="0.1" style="isolation:isolate"/><rect width="9.915" height="2.087" transform="translate(16.96 79.322)" opacity="0.1" style="isolation:isolate"/><rect width="43.488" height="24.005" transform="translate(44.184 74.799)" fill="#65617d"/><rect width="13.22" height="2.783" transform="translate(59.491 78.974)" opacity="0.1" style="isolation:isolate"/><rect width="9.915" height="2.087" transform="translate(61.144 79.322)" opacity="0.1" style="isolation:isolate"/><rect width="43.488" height="24.005" transform="translate(0 50.098)" fill="#65617d"/><rect width="13.22" height="2.783" transform="translate(15.308 54.273)" opacity="0.1" style="isolation:isolate"/><rect width="9.915" height="2.087" transform="translate(16.96 54.621)" opacity="0.1" style="isolation:isolate"/><rect width="43.488" height="24.005" transform="translate(44.184 50.098)" fill="#65617d"/><rect width="13.22" height="2.783" transform="translate(59.491 54.273)" opacity="0.1" style="isolation:isolate"/><rect width="9.915" height="2.087" transform="translate(61.144 54.621)" opacity="0.1" style="isolation:isolate"/><rect width="43.488" height="24.005" transform="translate(0 25.049)" fill="#65617d"/><rect width="13.22" height="2.783" transform="translate(15.308 29.224)" opacity="0.1" style="isolation:isolate"/><rect width="9.915" height="2.087" transform="translate(16.96 29.572)" opacity="0.1" style="isolation:isolate"/><rect width="43.488" height="24.005" transform="translate(44.184 25.049)" fill="#65617d"/><rect width="13.22" height="2.783" transform="translate(59.491 29.224)" opacity="0.1" style="isolation:isolate"/><rect width="9.915" height="2.087" transform="translate(61.144 29.572)" opacity="0.1" style="isolation:isolate"/><rect width="43.488" height="24.005" transform="translate(44.184)" fill="#65617d"/><rect width="13.22" height="2.783" transform="translate(59.491 4.175)" opacity="0.1" style="isolation:isolate"/><rect width="9.915" height="2.087" transform="translate(61.144 4.523)" opacity="0.1" style="isolation:isolate"/></g><path d="M829.318.039S800.028-1.729,803.472,18.8a4.988,4.988,0,0,0,2.6,5.274s.052-1.52,3.006-1a13.737,13.737,0,0,0,3.183.153,6.631,6.631,0,0,0,3.889-1.607h0s8.235-3.4,11.436-16.859c0,0,2.369-2.936,2.275-3.691L824.92,3.177s1.691,3.566.348,6.53c0,0-.16-6.4-1.11-6.262-.191.031-2.568,1.235-2.568,1.235s2.9,6.21.713,10.726c0,0,.832-7.654-1.621-10.277L817.2,7.16s3.4,6.415,1.092,11.651c0,0,.591-8.03-1.826-11.157l-3.152,2.46s3.19,6.325,1.245,10.667c0,0-.254-9.348-1.927-10.054,0,0-2.759,2.435-3.18,3.43,0,0,2.185,4.592.828,7.014,0,0-.831-6.227-1.513-6.262,0,0-2.749,4.126-3.034,6.958a15,15,0,0,1,2.369-7.351A8.27,8.27,0,0,0,803.9,16.7s.428-2.919,4.888-3.173c0,0,2.272-3.131,2.877-3.322,0,0-4.432-.369-7.122.821,0,0,2.366-2.752,7.936-1.5l3.114-2.543s-5.838-.8-8.315.083c0,0,2.849-2.435,9.153-.658l3.4-2.011s-4.978-1.072-7.943-.7c0,0,3.131-1.687,8.938.143l2.435-1.089s-3.646-.717-4.714-.831-1.124-.407-1.124-.407a12.646,12.646,0,0,1,6.85.762S829.408.362,829.318.039Z" transform="translate(-523.759)" fill="#ec5e04" opacity="0.1" style="isolation:isolate"/><path d="M752.336,15.088s-13.22-.8-11.672,8.478a2.264,2.264,0,0,0,1.172,2.383s.024-.7,1.36-.456a6.077,6.077,0,0,0,1.437.07,2.982,2.982,0,0,0,1.757-.727h0s3.723-1.534,5.17-7.616c0,0,1.068-1.329,1.026-1.67l-2.234.953a4.006,4.006,0,0,1,.163,2.954s-.073-2.895-.5-2.825c-.087,0-1.162.557-1.162.557s1.315,2.808.323,4.85c0,0,.376-3.458-.734-4.644l-1.573.918s1.538,2.9.494,5.264c0,0,.268-3.629-.825-5.041l-1.423,1.11s1.44,2.86.564,4.822c0,0-.115-4.227-.873-4.544a8.721,8.721,0,0,0-1.437,1.552s.988,2.087.376,3.166c0,0-.376-2.815-.7-2.825a9.437,9.437,0,0,0-1.371,3.131,6.8,6.8,0,0,1,1.071-3.322,3.744,3.744,0,0,0-1.9.985s.195-1.315,2.209-1.433a9.509,9.509,0,0,1,1.3-1.5,8.158,8.158,0,0,0-3.218.372s1.068-1.245,3.587-.678l1.392-1.148a12,12,0,0,0-3.757.038s1.287-1.1,4.137-.3l1.531-.915a13.758,13.758,0,0,0-3.59-.31s1.416-.765,4.039.063l1.1-.491s-1.649-.327-2.133-.376-.508-.184-.508-.184a5.7,5.7,0,0,1,3.1.348A14.056,14.056,0,0,0,752.336,15.088Z" transform="translate(-482.904 -9.827)" fill="#ec5e04" opacity="0.1" style="isolation:isolate"/><ellipse cx="13.989" cy="2.366" rx="13.989" ry="2.366" transform="translate(64.007 219.582)" fill="#ec5e04"/><path d="M216.572,614.754a4.048,4.048,0,0,0,1.332-2.014,1.8,1.8,0,0,0-.932-2.049c-.856-.327-1.771.268-2.463.866a3.288,3.288,0,0,1-2.394,1.155,3.653,3.653,0,0,0,1.127-3.413,1.435,1.435,0,0,0-.313-.7c-.477-.508-1.336-.292-1.907.108-1.809,1.273-2.314,3.733-2.324,5.942a11.168,11.168,0,0,1-.031-2.435,2.509,2.509,0,0,0-.922-2.167,2.756,2.756,0,0,0-1.392-.327,2.889,2.889,0,0,0-2.272.647,2.242,2.242,0,0,0,.087,2.783,8.856,8.856,0,0,0,2.355,1.885,5.217,5.217,0,0,1,1.68,1.6,1.435,1.435,0,0,1,.125.289h5.1A14.185,14.185,0,0,0,216.572,614.754Z" transform="translate(-132.79 -396.675)" fill="#ec5e04"/><path d="M693.976,339.432a1.584,1.584,0,0,0-.866-1.246,1.618,1.618,0,0,0-2.122.854l-.021.05-7.727,16.257L681.5,419.362h2.783l1.044-63.871,8.5-15.05A1.653,1.653,0,0,0,693.976,339.432Z" transform="translate(-444.405 -220.446)" fill="#3f3d56"/><path d="M582.209,598.289a50.329,50.329,0,0,1-7.334,5.326,1.233,1.233,0,0,1-.136.16,2.265,2.265,0,0,1-.957.48h0a57.268,57.268,0,0,1-28.208,7.243H354.291C332.373,609.245,319,606.256,319,602.975c0-2.543,8.03-4.912,21.855-6.9q2.15-.313,4.484-.605,1.437-.181,2.94-.348l1.7-.2q1.893-.216,3.886-.421h.108l1.392-.139q1.764-.183,3.6-.348l.891-.08,2.272-.2q2.213-.2,4.523-.379,1.917-.15,3.9-.3c13.38-.992,28.806-1.74,45.593-2.223l4.794-.164,1.614-.035,3.41-.077,1.367-.028,1.437-.028,1.023-.017,4.8-.076,2.467-.035h.5q8.75-.1,17.827-.108c11.961,0,23.56.143,34.613.414h0q9.519.23,18.456.585h.056c17.179.675,32.557,1.67,45.283,2.9l.233.024c3.267.317,6.36.654,9.261,1,2.731.327,5.3.671,7.675,1.023.824.122,1.625.247,2.4.369l.2.035C576.861,597.158,579.756,597.7,582.209,598.289Z" transform="translate(-208.02 -384.914)" fill="#6c63ff" opacity="0.1" style="isolation:isolate"/><path d="M823.751,317.309a1.236,1.236,0,0,1-.136.16,2.266,2.266,0,0,1-.957.48h0a9.635,9.635,0,0,1-2.157.348h-.219a9.359,9.359,0,0,1-1.249-.042,5.789,5.789,0,0,0-.915-.059h-.042a6.5,6.5,0,0,0-1.3.324,11.574,11.574,0,0,1-2.888.411h-.348c-1.092,0-2.2-.038-3.295-.031h-.532c-1.879.049-3.747.348-5.626.379h-.6a8.852,8.852,0,0,1-5.187-1.552,2.048,2.048,0,0,1-.7-.779,2.186,2.186,0,0,1-.122-1.044,2.456,2.456,0,0,1,.63-1.74,2.733,2.733,0,0,1,1-.484c.637-.205,1.277-.4,1.913-.6s1.364-.41,2.049-.612l.132-.042.383-.115.247-.083a4.031,4.031,0,0,0,.856-.39,2.837,2.837,0,0,0,.88-.88c.038-.063.08-.129.115-.195s0-.108-.024-.164c-.059-.435-.1-.88-.181-1.3a5.22,5.22,0,0,1-2.571-1.454,8.269,8.269,0,0,1-1.5-2.028,42.448,42.448,0,0,1-1.959-5.177,46.134,46.134,0,0,0-3.89-7.466c-1.329-2.22-2.665-4.446-4.175-6.544-1.005-1.392-2.087-2.717-3.082-4.112a36.525,36.525,0,0,1-5.942-12.977,17.216,17.216,0,0,0-.72-2.637,26.8,26.8,0,0,0-2.543-3.987,13.2,13.2,0,0,1-1.84-4.721c-.174-.953-.466-1.983-1.416-2.087h0l-.1.2c-1.969,3.827-3.99,7.723-6.958,10.848a11.49,11.49,0,0,0-1.3,1.492,14.378,14.378,0,0,0-.835,1.607,10.435,10.435,0,0,1-1.847,2.7,5.287,5.287,0,0,1-.731.616,3.925,3.925,0,0,1-1.145.574h0a3.372,3.372,0,0,1-.494.111c0,.042.017.08.021.122s.021.091.028.136a16.352,16.352,0,0,1-.637,8.325c-.024.083-.052.164-.083.247q-.216.585-.47,1.148c-.424.922-.929,1.806-1.326,2.741-.066.16-.132.32-.191.48-1.392,3.726-1.044,7.887-1.224,11.891a13.1,13.1,0,0,1-.31,2.6c-.237.964-.616,1.959-.825,2.954a5,5,0,0,0-.045,2.279l-.083.031c-.372.139-.751.264-1.131.383v.052c.136.779.268,1.559.4,2.334a3.417,3.417,0,0,0,.717,1.865,2.524,2.524,0,0,1,.348.348c.275.431.031,1,.083,1.513.077.724.745,1.339.64,2.06a1.357,1.357,0,0,1-.814.967,2.407,2.407,0,0,1-.536.17l-.115.024c-.209.038-.417.059-.626.08a29.186,29.186,0,0,1-7.786.077c-.508-.087-1.012-.2-1.527-.243a11.4,11.4,0,0,0-1.948.08,95.7,95.7,0,0,1-14.33.278c-1.242-.07-2.668-.271-3.326-1.332a3.853,3.853,0,0,1-.073-3.023,3.255,3.255,0,0,1,.421-1.044.685.685,0,0,1,.076-.1c.64-.8,1.844-.845,2.881-.814l3.389.1a3.18,3.18,0,0,0,.995-.077,10.472,10.472,0,0,0,1.482-.845c.647-.31,1.461-.348,1.927-.877l.059-.077a4.112,4.112,0,0,0,.23-.348c0-.024.031-.049.049-.073h0a.649.649,0,0,1,.042-.063,5.507,5.507,0,0,1,1.785-1.11,1.856,1.856,0,0,0,.261-.184l.07-.063a7.143,7.143,0,0,1-1.691-1.7,1.712,1.712,0,0,1-.386-.675.977.977,0,0,1,.042-.567.848.848,0,0,1,.056-.129l.017-.035c.237-.466.724-.887.992-1.364a.225.225,0,0,0,.024-.049,2.149,2.149,0,0,0-.1-2.334c.278-4.582,1.538-9.045,1.816-13.641.111-1.819.066-3.646.15-5.472s.278-3.6.484-5.389c.459-4.095,1.573-8.106,1.416-12.218a7.462,7.462,0,0,1,.049-1.148.706.706,0,0,1,0-.083,7.056,7.056,0,0,1,.776-2.408,18.48,18.48,0,0,1,1.708-2.407c2.14-2.783,4.711-5.566,5.472-8.99a19.425,19.425,0,0,1,2.129-4.975,8.762,8.762,0,0,1,1.861-2.613,8.2,8.2,0,0,0,1.228-1.044,9.81,9.81,0,0,0,.929-2.634c.174-.456.442-.873.574-1.343a.71.71,0,0,1,.035-.143,9.472,9.472,0,0,0,.122-1.433,3.215,3.215,0,0,1,.038-.411h0a14.524,14.524,0,0,1,1.186-3.977c.073-.16.143-.324.212-.484a14.91,14.91,0,0,1-4.175-3.622,8.538,8.538,0,0,1-1.012-1.527,18.9,18.9,0,0,1-1.218-4.6c-.807-3.716-2.654-7.215-2.912-11.015a12.181,12.181,0,0,0-.4-3.451,6.863,6.863,0,0,0-.393-.863c-.062-.118-.122-.237-.184-.348l-.07-.132-.178-.348-.285.223a208.4,208.4,0,0,1-22.37,15.28l-.668.4a2.434,2.434,0,0,0-.884.724c-.028.045-.052.09-.077.136h0c-.16.331-.2.7-.348,1.044a2.849,2.849,0,0,1-1.938,1.541,5.985,5.985,0,0,1-4.4-.567,5.327,5.327,0,0,1-.5-.278,6.789,6.789,0,0,1-1.28.546,15.163,15.163,0,0,1-4.29.383,12.884,12.884,0,0,0-4.276.473,10.684,10.684,0,0,1-2.741.87,2.564,2.564,0,0,1-.327,0,4.741,4.741,0,0,1-1.552-.456l-.285-.129a4.614,4.614,0,0,1-.431-.233,2.37,2.37,0,0,1-.421-.33,1.538,1.538,0,0,1-.39-.665,1.105,1.105,0,0,1,0-.553.348.348,0,0,1,.118-.209.372.372,0,0,1,.205-.052,6.284,6.284,0,0,1,1.19.1,4.262,4.262,0,0,0,.7.038h.125a1.509,1.509,0,0,0,1.044-.591.641.641,0,0,0,.09-.167h0a.767.767,0,0,0,.063-.31.5.5,0,0,0,0-.08c-.146-.066-.292-.132-.431-.212-.073-.038-.143-.08-.212-.122l-.042-.028a2.368,2.368,0,0,1-.348-.289,1.22,1.22,0,0,1-.177-.223,1.338,1.338,0,0,1-.205-.417h0a1.87,1.87,0,0,0-.866.024c-.379.1-.762.327-1.138.4a1.008,1.008,0,0,1-.574-.024c-.543-.195-.734-.856-.849-1.423-.021-.108-.045-.219-.063-.331h0a1.753,1.753,0,0,1,0-.647,2.384,2.384,0,0,1,.915-1.193l1.141-.957.083-.07a2,2,0,0,0-.052-.282,1.779,1.779,0,0,1,0-.651,2.37,2.37,0,0,1,.915-1.19l2.526-2.126a2.968,2.968,0,0,1,1.6-.856c.915-.063,1.646.7,2.331,1.3a5.292,5.292,0,0,0,3.062,1.468,4.5,4.5,0,0,0,1.618-.223l.3-.1c-.063-.129-.125-.257-.184-.386-.1-.212-.2-.428-.3-.644a6.91,6.91,0,0,0,3.952-1.882c1.124-.974,2.087-2.126,3.222-3.082,1.225-1.044,2.63-1.82,3.872-2.825,2.888-2.341,4.8-5.782,7.894-7.845a10.255,10.255,0,0,0,3.041-2.366c.226-.348.4-.7.63-1.044.741-1.044,2.011-1.524,3.058-2.247a15.211,15.211,0,0,0,2.811-2.8c.605-.727,1.214-1.454,1.792-2.2.532-.992.981-2.028,1.538-3.006a14.772,14.772,0,0,1,1.646-2.324c.143-.278.289-.557.445-.828s.271-.456.418-.7c.1-.157.205-.306.313-.459-.317-.56-.619-1.044-.762-1.256l-.07-.094a10.421,10.421,0,0,0-.981-.918,9.285,9.285,0,0,1-1.078-.23,10.148,10.148,0,0,1-7.466-9.8.1.1,0,0,1,0-.031,10.089,10.089,0,0,1,1.106-4.585c.146-.285.3-.56.473-.828a3.121,3.121,0,0,1-.463-.188,1.834,1.834,0,0,1-.647-.532,1.535,1.535,0,0,1-.268-.675,3.441,3.441,0,0,1,.251-1.684,8,8,0,0,1,.324-.751.277.277,0,0,0,.024-.045,9.669,9.669,0,0,1,8.183-5.191c3.573-.143,7.052,1.534,9.87,3.935A13.219,13.219,0,0,1,760,157.514a14.251,14.251,0,0,1,2.331,7.254,11.141,11.141,0,0,1-.042,2.407,5.73,5.73,0,0,1-.174.842c-.045.164-.1.327-.167.491a3.213,3.213,0,0,1-.157.348v.017c-.052.111-.111.216-.17.32l-.031.045-.045.073c.028.066.059.136.091.2s.059.129.094.191h.042c.7.056,1.339.153,2.049.209a4.723,4.723,0,0,1,.988.153,6.6,6.6,0,0,1,1.806,1.127c1.447,1.023,3.229,1.5,4.651,2.557,2.087,1.559,3.131,4.133,4.4,6.44,1.67,3.089,4.39,5.72,5.591,9.025q.814,2.251,1.635,4.495a70.01,70.01,0,0,0,3.587,8.645c2.018,3.848,4.749,7.306,6.367,11.349a1.809,1.809,0,0,0,.849.939,73.843,73.843,0,0,1,5.862,9.807,18.4,18.4,0,0,1,2,5.681,13.7,13.7,0,0,1-.435,5.309,25.782,25.782,0,0,1-1.019,3.013,4.977,4.977,0,0,0-.348,1.075v.115a9.807,9.807,0,0,0,.254,2,3.7,3.7,0,0,1-.177,1.593c-.028.08-.059.16-.09.24a8.575,8.575,0,0,0-.546,1.266,1.3,1.3,0,0,0-.028.16,6.453,6.453,0,0,0,.348,2.272,30.493,30.493,0,0,1,.348,8.35c-.08,1.392,1.044,2.508,1.983,3.535a38.088,38.088,0,0,1,4.411,6.415,20.552,20.552,0,0,1,1.8,3.6,30.09,30.09,0,0,1,.971,4.436c.887,4.592,3.785,8.649,4.571,13.252a11.828,11.828,0,0,0,2.689,5.7,12.086,12.086,0,0,1,1.159,1.392,5.575,5.575,0,0,1,.574,1.252,9.289,9.289,0,0,1,.477,3.176,4.783,4.783,0,0,0,.087,1.545c.327,1.068,1.5,1.656,1.979,2.661s.15,2.293.348,3.434a3.7,3.7,0,0,0,1.392,2.317c-.278.244-.571.466-.87.7a3.475,3.475,0,0,1,.72.758,3.411,3.411,0,0,1,.348.616c.459,1.068.473,2.338.849,3.479a2.5,2.5,0,0,1,.247,1.454,1.584,1.584,0,0,0-.118.431c0,.313.327.518.452.8A.863.863,0,0,1,823.751,317.309Z" transform="translate(-456.895 -98.607)" fill="url(#a)"/><path d="M835.482,210.505a21.741,21.741,0,0,0,5.883-2.961l6.474-4.123a5.631,5.631,0,0,1-4.175-2.908,14.687,14.687,0,0,1-1.579-5.013,26.235,26.235,0,0,0-7.442,4.871c-.891.769-2.783,1.931-3.058,3.131s1.479,2.174,2.157,2.978C833.976,206.748,836.171,210.314,835.482,210.505Z" transform="translate(-542.257 -127.485)" fill="#fbbebe"/><path d="M835.482,210.505a21.741,21.741,0,0,0,5.883-2.961l6.474-4.123a5.631,5.631,0,0,1-4.175-2.908,14.687,14.687,0,0,1-1.579-5.013,26.235,26.235,0,0,0-7.442,4.871c-.891.769-2.783,1.931-3.058,3.131s1.479,2.174,2.157,2.978C833.976,206.748,836.171,210.314,835.482,210.505Z" transform="translate(-542.257 -127.485)" opacity="0.1" style="isolation:isolate"/><path d="M714.755,333.4a7.2,7.2,0,0,1-3.632,1.1,5.277,5.277,0,0,1-3.058-1.458c-.7-.605-1.413-1.36-2.328-1.3a2.983,2.983,0,0,0-1.6.849l-2.522,2.112a2.374,2.374,0,0,0-.915,1.183,2.347,2.347,0,0,0,.059.981c.115.564.306,1.221.849,1.412s1.134-.219,1.708-.376a2.011,2.011,0,0,1,1.973.581,1.172,1.172,0,0,1,.348.758c0,.63-.7,1.044-1.336,1.075s-1.253-.177-1.886-.139a.289.289,0,0,0-.323.25v.007a1.33,1.33,0,0,0,.407,1.211,3.531,3.531,0,0,0,1.134.7,4.623,4.623,0,0,0,1.552.452,8.237,8.237,0,0,0,3.062-.866,13.237,13.237,0,0,1,4.272-.47,15.08,15.08,0,0,0,4.283-.379,4.857,4.857,0,0,0,3.232-2.63.632.632,0,0,0,.059-.4.669.669,0,0,0-.292-.348c-1.941-1.437-2.728-3.183-4.912-4.217Z" transform="translate(-456.908 -216.327)" fill="#fbbebe"/><path d="M714.755,333.4a7.2,7.2,0,0,1-3.632,1.1,5.277,5.277,0,0,1-3.058-1.458c-.7-.605-1.413-1.36-2.328-1.3a2.983,2.983,0,0,0-1.6.849l-2.522,2.112a2.374,2.374,0,0,0-.915,1.183,2.347,2.347,0,0,0,.059.981c.115.564.306,1.221.849,1.412s1.134-.219,1.708-.376a2.011,2.011,0,0,1,1.973.581,1.172,1.172,0,0,1,.348.758c0,.63-.7,1.044-1.336,1.075s-1.253-.177-1.886-.139a.289.289,0,0,0-.323.25v.007a1.33,1.33,0,0,0,.407,1.211,3.531,3.531,0,0,0,1.134.7,4.623,4.623,0,0,0,1.552.452,8.237,8.237,0,0,0,3.062-.866,13.237,13.237,0,0,1,4.272-.47,15.08,15.08,0,0,0,4.283-.379,4.857,4.857,0,0,0,3.232-2.63.632.632,0,0,0,.059-.4.669.669,0,0,0-.292-.348c-1.941-1.437-2.728-3.183-4.912-4.217Z" transform="translate(-456.908 -216.327)" opacity="0.1" style="isolation:isolate"/><path d="M777.762,228.6a4.2,4.2,0,0,0-3.681-.428,7.946,7.946,0,0,0-3.169,2.112,14.584,14.584,0,0,0-2.237,2.954c-.591,1.044-1.044,2.136-1.635,3.176a33.786,33.786,0,0,1-3.778,5.132,14.57,14.57,0,0,1-2.808,2.783c-1.092.744-2.314,1.2-3.055,2.233-.233.327-.4.7-.63,1.026a10.1,10.1,0,0,1-3.037,2.348c-3.082,2.053-5,5.469-7.88,7.8-1.242,1-2.644,1.788-3.865,2.811-1.138.95-2.087,2.087-3.222,3.062a6.891,6.891,0,0,1-3.945,1.868,20.323,20.323,0,0,0,3.862,6.078c1.694,1.715,4.234,2.811,6.547,2.14a2.845,2.845,0,0,0,1.938-1.531,6.522,6.522,0,0,1,.411-1.186,2.437,2.437,0,0,1,.88-.72,207.982,207.982,0,0,0,26.479-18.345c2.237-1.823,4.457-3.455,6.753-5.219a14.753,14.753,0,0,0,2.272-1.99,7.564,7.564,0,0,0,.918-8.332,19.756,19.756,0,0,0-2.108-2.856A25.1,25.1,0,0,0,777.762,228.6Z" transform="translate(-479.175 -148.634)" fill="#ec5e04"/><path d="M777.762,228.6a4.2,4.2,0,0,0-3.681-.428,7.946,7.946,0,0,0-3.169,2.112,14.584,14.584,0,0,0-2.237,2.954c-.591,1.044-1.044,2.136-1.635,3.176a33.786,33.786,0,0,1-3.778,5.132,14.57,14.57,0,0,1-2.808,2.783c-1.092.744-2.314,1.2-3.055,2.233-.233.327-.4.7-.63,1.026a10.1,10.1,0,0,1-3.037,2.348c-3.082,2.053-5,5.469-7.88,7.8-1.242,1-2.644,1.788-3.865,2.811-1.138.95-2.087,2.087-3.222,3.062a6.891,6.891,0,0,1-3.945,1.868,20.323,20.323,0,0,0,3.862,6.078c1.694,1.715,4.234,2.811,6.547,2.14a2.845,2.845,0,0,0,1.938-1.531,6.522,6.522,0,0,1,.411-1.186,2.437,2.437,0,0,1,.88-.72,207.982,207.982,0,0,0,26.479-18.345c2.237-1.823,4.457-3.455,6.753-5.219a14.753,14.753,0,0,0,2.272-1.99,7.564,7.564,0,0,0,.918-8.332,19.756,19.756,0,0,0-2.108-2.856A25.1,25.1,0,0,0,777.762,228.6Z" transform="translate(-479.175 -148.634)" fill="#ec5e04" opacity="0.1" style="isolation:isolate"/><path d="M789.8,596.645a5.327,5.327,0,0,0-1.785,1.106c-.139.181-.233.393-.383.567-.463.543-1.284.567-1.927.877a9.337,9.337,0,0,1-1.479.838,3.213,3.213,0,0,1-1,.077l-3.382-.1c-1.072-.031-2.328.024-2.95.9a3.189,3.189,0,0,0-.424,1.044,3.87,3.87,0,0,0,.073,3.006c.654,1.044,2.087,1.256,3.323,1.326A95.9,95.9,0,0,0,794.175,606a11.358,11.358,0,0,1,1.941-.08c.515.042,1.019.157,1.527.244a29.256,29.256,0,0,0,7.776-.077,4.059,4.059,0,0,0,1.277-.271,1.353,1.353,0,0,0,.811-.964c.108-.717-.564-1.325-.637-2.046-.052-.508.191-1.075-.087-1.506a2.46,2.46,0,0,0-.348-.348,3.426,3.426,0,0,1-.717-1.851l-.609-3.573a1.1,1.1,0,0,0-.292-.675,1.006,1.006,0,0,0-.431-.177c-2.651-.6-5.368-.052-8,.282a21.5,21.5,0,0,1-4.095.205c-.591-.038-.821-.108-1.263.278S790.348,596.321,789.8,596.645Z" transform="translate(-506.158 -387.615)" fill="#3f3d56"/><path d="M985.759,605.555a5.854,5.854,0,0,1-1.482.581q-2.049.6-4.091,1.249a2.72,2.72,0,0,0-1,.48,2.428,2.428,0,0,0-.63,1.739,2.185,2.185,0,0,0,.122,1.044,2.09,2.09,0,0,0,.7.772,9.133,9.133,0,0,0,5.549,1.545c1.955,0,3.9-.331,5.852-.383,2.362-.063,4.787.271,7.059-.39a6.02,6.02,0,0,1,1.343-.327,5.708,5.708,0,0,1,.911.059,9.669,9.669,0,0,0,3.625-.331,2.231,2.231,0,0,0,.96-.477.9.9,0,0,0,.257-.981c-.125-.282-.445-.487-.449-.8a1.5,1.5,0,0,1,.115-.431,2.443,2.443,0,0,0-.247-1.444c-.449-1.343-.376-2.888-1.179-4.053a5.132,5.132,0,0,0-3.681-1.83,10.2,10.2,0,0,0-3.427.1c-1.27.271-2.456.838-3.7,1.2a12.107,12.107,0,0,1-4.453.421c-.995-.083-.654.073-.992.908A2.962,2.962,0,0,1,985.759,605.555Z" transform="translate(-638.104 -392.225)" fill="#3f3d56"/><circle cx="10.089" cy="10.089" r="10.089" transform="translate(281.974 58.016)" fill="#fbbebe"/><path d="M893.556,341.918a17.877,17.877,0,0,1-11.481,3.907,9.429,9.429,0,0,1-5.027-1.072c-.1-.571-.146-1.186-.25-1.757a6.415,6.415,0,0,1-4.063-3.462,41.622,41.622,0,0,1-1.959-5.142,45.916,45.916,0,0,0-3.883-7.421c-1.329-2.206-2.661-4.418-4.175-6.5-1-1.392-2.088-2.7-3.079-4.088a36.182,36.182,0,0,1-5.932-12.893,16.829,16.829,0,0,0-.72-2.62,26.67,26.67,0,0,0-2.54-3.963,13.1,13.1,0,0,1-1.84-4.693c-.17-.946-.463-1.969-1.412-2.066h0c-2,3.879-4.032,7.821-7.052,10.976a11.38,11.38,0,0,0-1.3,1.482,14.258,14.258,0,0,0-.835,1.6,10.3,10.3,0,0,1-1.844,2.686,4.3,4.3,0,0,1-2.373,1.294,16.225,16.225,0,0,1-1.141,9.915c-.421.918-.925,1.8-1.322,2.724-1.621,3.827-1.245,8.144-1.416,12.295a12.909,12.909,0,0,1-.306,2.585c-.421,1.7-1.291,3.5-.87,5.2-4.363,1.666-9.209,1.562-13.829.859a6.664,6.664,0,0,1-2.578-.783,7.092,7.092,0,0,1-1.691-1.691,1.7,1.7,0,0,1-.386-.671c-.181-.793.7-1.392,1.1-2.087a2.11,2.11,0,0,0-.08-2.369c.278-4.554,1.538-9,1.816-13.568.111-1.809.066-3.625.15-5.438s.278-3.576.48-5.358c.459-4.067,1.573-8.054,1.416-12.142a7.062,7.062,0,0,1,.838-3.615,18.214,18.214,0,0,1,1.7-2.394c2.136-2.759,4.7-5.525,5.465-8.931a19.348,19.348,0,0,1,2.126-4.944,8.753,8.753,0,0,1,1.858-2.6,8.139,8.139,0,0,0,1.228-1.044,9.657,9.657,0,0,0,.929-2.616c.174-.452.442-.87.571-1.336a7.606,7.606,0,0,0,.157-1.566,14.649,14.649,0,0,1,1.44-4.853,14.875,14.875,0,0,1-4.175-3.6,8.828,8.828,0,0,1-1.009-1.52,18.659,18.659,0,0,1-1.218-4.571c-.8-3.695-2.651-7.17-2.908-10.945a12.157,12.157,0,0,0-.4-3.43,10.747,10.747,0,0,0-.647-1.339,5.491,5.491,0,0,1-.55-1.35,23.489,23.489,0,0,1,0-3.131,22.641,22.641,0,0,0-.671-2.686,12.758,12.758,0,0,1-.1-3.549,29.058,29.058,0,0,0,.271-4.2,16.237,16.237,0,0,1,4.366-12.5l.08-.08c.664-.7,1.392-1.312,1.99-2.049.814-.988,1.392-2.15,2.251-3.11.376-.428.8-.811,1.172-1.242a10.306,10.306,0,0,1,1.131-1.266,1.74,1.74,0,0,1,1.573-.421,4.356,4.356,0,0,0,.48,1.482c.724.056,1.367.157,2.087.212a4.721,4.721,0,0,1,.988.153,6.428,6.428,0,0,1,1.8,1.117c1.447,1.019,3.225,1.492,4.648,2.543,2.087,1.548,3.131,4.105,4.391,6.4,1.666,3.072,4.384,5.685,5.566,8.969l1.632,4.467a69.776,69.776,0,0,0,3.583,8.59c2.014,3.827,4.742,7.275,6.36,11.279a1.817,1.817,0,0,0,.845.932,72.758,72.758,0,0,1,5.855,9.741,18.131,18.131,0,0,1,2,5.646,16.432,16.432,0,0,1-1.451,8.27,4.312,4.312,0,0,0-.348,1.183,9.677,9.677,0,0,0,.254,1.983,3.67,3.67,0,0,1-.268,1.823,8.329,8.329,0,0,0-.546,1.259,5.483,5.483,0,0,0,.327,2.414,30.073,30.073,0,0,1,.348,8.294c-.08,1.392,1.044,2.494,1.98,3.514a37.584,37.584,0,0,1,4.408,6.374,20.577,20.577,0,0,1,1.8,3.576,29.626,29.626,0,0,1,.971,4.408c.884,4.561,3.778,8.593,4.565,13.168a11.7,11.7,0,0,0,2.686,5.66,12.285,12.285,0,0,1,1.158,1.392,5.6,5.6,0,0,1,.571,1.245,9.175,9.175,0,0,1,.477,3.155,4.719,4.719,0,0,0,.087,1.534c.327,1.061,1.5,1.646,1.976,2.644s.15,2.279.348,3.413A3.675,3.675,0,0,0,893.556,341.918Z" transform="translate(-528.35 -132.195)" fill="#ec5e04"/><path d="M720.755,324.4a7.2,7.2,0,0,1-3.632,1.1,5.277,5.277,0,0,1-3.058-1.458c-.7-.605-1.413-1.36-2.327-1.3a2.982,2.982,0,0,0-1.6.849l-2.522,2.112a2.372,2.372,0,0,0-.915,1.183,2.345,2.345,0,0,0,.059.981c.115.564.306,1.221.849,1.412s1.134-.219,1.708-.376a2.011,2.011,0,0,1,1.973.581,1.173,1.173,0,0,1,.348.758c0,.63-.7,1.044-1.336,1.075s-1.253-.177-1.886-.139a.289.289,0,0,0-.323.25v.007a1.329,1.329,0,0,0,.407,1.211,3.533,3.533,0,0,0,1.134.7,4.623,4.623,0,0,0,1.552.452,8.235,8.235,0,0,0,3.062-.866,13.238,13.238,0,0,1,4.272-.47,15.083,15.083,0,0,0,4.283-.379,4.858,4.858,0,0,0,3.232-2.63.633.633,0,0,0,.059-.4.669.669,0,0,0-.292-.348c-1.941-1.437-2.728-3.183-4.912-4.217Z" transform="translate(-460.821 -210.458)" fill="#fbbebe"/><path d="M816,162.522a8.619,8.619,0,0,0-1.684.731,2.9,2.9,0,0,1-2.38-.125,1.839,1.839,0,0,1-.651-.529,2.575,2.575,0,0,1-.017-2.345A9.562,9.562,0,0,1,819.8,154.3c3.569-.143,7.042,1.524,9.856,3.907a13.474,13.474,0,0,1,2.237,2.341,14.142,14.142,0,0,1,2.328,7.209,9.392,9.392,0,0,1-.212,3.229,3.924,3.924,0,0,1-1.83,2.467,3.614,3.614,0,0,1-3.194-.139,13.469,13.469,0,0,1-2.731-1.99,4.061,4.061,0,0,0-1.36-.866,1.392,1.392,0,0,0-1.472.348c-.466.56-.348,1.479-.772,2.087a2.429,2.429,0,0,1-2.053.7,2.26,2.26,0,0,1-1.945-.654,2.448,2.448,0,0,1-.195-1.993,6.53,6.53,0,0,0,.348-2.035c-.143-1.392-1.36-2.247-1.739-3.528-.247-.838.3-1.193.24-1.952A1.1,1.1,0,0,0,816,162.522Z" transform="translate(-528.85 -100.616)" fill="#3f3d56"/><path d="M891.107,409.417v.087h0c-2,3.879-4.032,7.821-7.052,10.976a11.367,11.367,0,0,0-1.3,1.482,14.3,14.3,0,0,0-.835,1.6,10.3,10.3,0,0,1-1.844,2.686l-2.519,1.259,8-41.748Z" transform="translate(-572.256 -251.553)" opacity="0.1" style="isolation:isolate"/><path d="M853.278,240.683a14.753,14.753,0,0,1-2.272,1.99c-2.3,1.74-4.523,3.382-6.753,5.219q-2.7,2.2-5.469,4.3a5.483,5.483,0,0,1-.55-1.35,23.489,23.489,0,0,1,0-3.131,22.607,22.607,0,0,0-.672-2.686,12.754,12.754,0,0,1-.1-3.549,29.075,29.075,0,0,0,.271-4.2,16.236,16.236,0,0,1,4.387-12.528l.08-.08a6.106,6.106,0,0,1,1.183-.529,4.2,4.2,0,0,1,3.681.445,25.1,25.1,0,0,1,5.01,4.912,19.766,19.766,0,0,1,2.108,2.856A7.564,7.564,0,0,1,853.278,240.683Z" transform="translate(-546.057 -146.005)" opacity="0.1" style="isolation:isolate"/><path d="M783.762,219.6a4.2,4.2,0,0,0-3.681-.428,7.947,7.947,0,0,0-3.169,2.112,14.581,14.581,0,0,0-2.237,2.954c-.591,1.044-1.044,2.136-1.635,3.176a33.787,33.787,0,0,1-3.778,5.132,14.571,14.571,0,0,1-2.808,2.783c-1.092.745-2.314,1.2-3.055,2.234-.233.327-.4.7-.63,1.026a10.1,10.1,0,0,1-3.037,2.348c-3.082,2.053-5,5.469-7.88,7.8-1.242,1-2.644,1.788-3.865,2.811-1.138.95-2.087,2.087-3.222,3.062a6.89,6.89,0,0,1-3.945,1.868,20.323,20.323,0,0,0,3.862,6.078c1.694,1.715,4.234,2.811,6.548,2.14a2.845,2.845,0,0,0,1.938-1.531,6.529,6.529,0,0,1,.411-1.186,2.435,2.435,0,0,1,.88-.72,208.007,208.007,0,0,0,26.479-18.345c2.237-1.823,4.457-3.455,6.753-5.219a14.75,14.75,0,0,0,2.272-1.99,7.564,7.564,0,0,0,.919-8.332,19.768,19.768,0,0,0-2.108-2.856A25.092,25.092,0,0,0,783.762,219.6Z" transform="translate(-483.088 -142.766)" fill="#ec5e04"/><g transform="translate(282.144 58.166)" opacity="0.1"><path d="M821.283,180.6a2.311,2.311,0,0,1-1.945-.654,2.462,2.462,0,0,1-.195-1.993,6.523,6.523,0,0,0,.348-2.035c-.143-1.392-1.36-2.247-1.74-3.528-.247-.838.3-1.193.24-1.952a1.1,1.1,0,0,0-1.3-.9,8.625,8.625,0,0,0-1.684.731,2.9,2.9,0,0,1-2.38-.125,1.838,1.838,0,0,1-.651-.529,2.575,2.575,0,0,1-.017-2.345c0-.028.024-.052.035-.08a8.419,8.419,0,0,0-.731,1.472,2.575,2.575,0,0,0,.017,2.345,1.84,1.84,0,0,0,.651.529,2.9,2.9,0,0,0,2.38.125,8.625,8.625,0,0,1,1.684-.731,1.1,1.1,0,0,1,1.3.9c.056.758-.487,1.113-.24,1.952.372,1.28,1.59,2.15,1.739,3.528a6.12,6.12,0,0,1-.348,2.035,2.422,2.422,0,0,0,.195,1.993,3.3,3.3,0,0,0,4-.042,2.925,2.925,0,0,0,.372-1.068A2.945,2.945,0,0,1,821.283,180.6Z" transform="translate(-810.988 -167.19)"/><path d="M856.642,199.6a3.614,3.614,0,0,1-3.194-.139,13.474,13.474,0,0,1-2.731-1.99,4.06,4.06,0,0,0-1.36-.866,1.391,1.391,0,0,0-1.472.348,2.638,2.638,0,0,0-.435,1.169,1.471,1.471,0,0,1,1.211-.129,4.061,4.061,0,0,1,1.36.866,13.728,13.728,0,0,0,2.731,1.99,3.624,3.624,0,0,0,3.194.139,3.872,3.872,0,0,0,1.785-2.341A3.22,3.22,0,0,1,856.642,199.6Z" transform="translate(-834.765 -186.321)"/></g><circle cx="10.437" cy="10.437" r="10.437" transform="translate(207.001 200.134)" fill="#3f3d56"/><circle cx="10.437" cy="10.437" r="10.437" transform="translate(207.001 200.134)" opacity="0.1" style="isolation:isolate"/><circle cx="6.61" cy="6.61" r="6.61" transform="translate(210.828 203.961)" fill="#65617d"/><circle cx="6.61" cy="6.61" r="6.61" transform="translate(210.828 203.961)" opacity="0.1" style="isolation:isolate"/><path d="M602,556.3l6.847,15.482a1.329,1.329,0,0,0,2.411.049L619.4,555.26Z" transform="translate(-392.563 -362.084)" fill="#3f3d56"/><path d="M602,556.3l6.847,15.482a1.329,1.329,0,0,0,2.411.049L619.4,555.26Z" transform="translate(-392.563 -362.084)" opacity="0.1" style="isolation:isolate"/><circle cx="10.437" cy="10.437" r="10.437" transform="translate(141.944 200.134)" fill="#3f3d56"/><circle cx="10.437" cy="10.437" r="10.437" transform="translate(141.944 200.134)" opacity="0.1" style="isolation:isolate"/><circle cx="6.61" cy="6.61" r="6.61" transform="translate(145.771 203.961)" fill="#65617d"/><circle cx="6.61" cy="6.61" r="6.61" transform="translate(145.771 203.961)" opacity="0.1" style="isolation:isolate"/><path d="M415,556.3l6.847,15.482a1.329,1.329,0,0,0,2.411.049L432.4,555.26Z" transform="translate(-270.621 -362.084)" fill="#3f3d56"/><path d="M415,556.3l6.847,15.482a1.329,1.329,0,0,0,2.411.049L432.4,555.26Z" transform="translate(-270.621 -362.084)" opacity="0.1" style="isolation:isolate"/><path d="M702.236,341.432a1.584,1.584,0,0,0-.866-1.245,1.618,1.618,0,0,0-2.123.854l-.02.05-5.987,14.866-1.739,66.8h2.783l1.044-66.654,6.763-13.659A1.653,1.653,0,0,0,702.236,341.432Z" transform="translate(-450.926 -221.75)" fill="#3f3d56"/><path d="M368.5,550.044l9.393-5.914,101.413-.87,2.609,6.784Z" transform="translate(-240.298 -354.259)" fill="#ec5e04"/><path d="M368.5,566.936v-6.262l115.253-1.113-.111,4.244H370.587v3.131Z" transform="translate(-240.298 -364.888)" fill="#3f3d56"/><circle cx="10.437" cy="10.437" r="10.437" transform="translate(132.376 203.787)" fill="#3f3d56"/><circle cx="6.61" cy="6.61" r="6.61" transform="translate(136.203 207.614)" fill="#65617d"/><path d="M387.5,566.8l6.847,15.482a1.329,1.329,0,0,0,2.411.049L404.9,565.76Z" transform="translate(-252.688 -368.931)" fill="#3f3d56"/><circle cx="10.437" cy="10.437" r="10.437" transform="translate(213.438 203.787)" fill="#3f3d56"/><circle cx="6.61" cy="6.61" r="6.61" transform="translate(217.264 207.614)" fill="#65617d"/><path d="M620.5,566.8l6.847,15.482a1.329,1.329,0,0,0,2.411.049L637.9,565.76Z" transform="translate(-404.627 -368.931)" fill="#3f3d56"/><rect width="43.488" height="24.005" transform="translate(141.248 168.475)" fill="#65617d"/><rect width="13.22" height="2.783" transform="translate(156.556 172.65)" opacity="0.1" style="isolation:isolate"/><rect width="9.915" height="2.087" transform="translate(158.208 172.998)" opacity="0.1" style="isolation:isolate"/><rect width="43.488" height="24.005" transform="translate(185.431 168.475)" fill="#65617d"/><rect width="13.22" height="2.783" transform="translate(200.739 172.65)" opacity="0.1" style="isolation:isolate"/><rect width="9.915" height="2.087" transform="translate(202.392 172.998)" opacity="0.1" style="isolation:isolate"/><rect width="43.488" height="24.005" transform="translate(141.248 143.774)" fill="#65617d"/><rect width="13.22" height="2.783" transform="translate(156.556 147.949)" opacity="0.1" style="isolation:isolate"/><rect width="9.915" height="2.087" transform="translate(158.208 148.297)" opacity="0.1" style="isolation:isolate"/><rect width="43.488" height="24.005" transform="translate(185.431 143.774)" fill="#65617d"/><rect width="13.22" height="2.783" transform="translate(200.739 147.949)" opacity="0.1" style="isolation:isolate"/><rect width="9.915" height="2.087" transform="translate(202.392 148.297)" opacity="0.1" style="isolation:isolate"/><rect width="43.488" height="24.005" transform="translate(141.248 118.725)" fill="#65617d"/><rect width="13.22" height="2.783" transform="translate(156.556 122.9)" opacity="0.1" style="isolation:isolate"/><rect width="9.915" height="2.087" transform="translate(158.208 123.248)" opacity="0.1" style="isolation:isolate"/><rect width="43.488" height="24.005" transform="translate(185.431 118.725)" fill="#65617d"/><rect width="13.22" height="2.783" transform="translate(200.739 122.9)" opacity="0.1" style="isolation:isolate"/><rect width="9.915" height="2.087" transform="translate(202.392 123.248)" opacity="0.1" style="isolation:isolate"/><rect width="43.488" height="24.005" transform="translate(185.431 93.676)" fill="#65617d"/><rect width="13.22" height="2.783" transform="translate(200.739 97.851)" opacity="0.1" style="isolation:isolate"/><rect width="9.915" height="2.087" transform="translate(202.392 98.199)" opacity="0.1" style="isolation:isolate"/></g></svg>