<svg id="Layer_1" data-name="Layer 1" xmlns="http://www.w3.org/2000/svg" xmlns:xlink="http://www.w3.org/1999/xlink" viewBox="0 0 398 226.59"><defs><style>.cls-1{fill:#88b3c6;}.cls-1,.cls-11,.cls-2,.cls-5,.cls-6{opacity:0.1;}.cls-1,.cls-2,.cls-5,.cls-6{isolation:isolate;}.cls-2{fill:#6c63ff;}.cls-3{opacity:0.7;}.cls-4{fill:#65617d;}.cls-6,.cls-7{fill:#ec5e04;}.cls-8{fill:#3f3d56;}.cls-9{fill:url(#linear-gradient);}.cls-10{fill:#fbbebe;}</style><linearGradient id="linear-gradient" x1="-478.58" y1="496.92" x2="-478.58" y2="495.92" gradientTransform="matrix(123.31, 0, 0, -168.07, 59319.61, 83482.64)" gradientUnits="userSpaceOnUse"><stop offset="0" stop-color="gray" stop-opacity="0.25"/><stop offset="0.54" stop-color="gray" stop-opacity="0.12"/><stop offset="1" stop-color="gray" stop-opacity="0.1"/></linearGradient></defs><path class="cls-1" d="M398,149.8a62.8,62.8,0,0,1-9.09,32.66c0,12-5.61,23-14.72,30.91a49.69,49.69,0,0,1-7.33,5.33c-.1.07-.22.13-.32.19l-.59.35-.19.11h0a57.25,57.25,0,0,1-28.2,7.24h-262c-18.07,0-34.43-6.29-46.28-16.45S10.13,185.9,10.13,170.38A62.84,62.84,0,0,1,0,136.06c0-34.49,27.57-62.45,61.58-62.45,1.2,0,2.4,0,3.58.11C86.5,37.32,134.64,12,190.56,12c34.38,0,65.8,9.58,89.88,25.42a60.52,60.52,0,0,1,29.89-7.85c34,0,61.58,28,61.58,62.45a64.81,64.81,0,0,1-.35,6.54A62.62,62.62,0,0,1,398,149.8Z" transform="translate(0 0)"/><ellipse class="cls-2" cx="143.68" cy="165.87" rx="136.38" ry="3.65"/><g class="cls-3"><rect class="cls-4" x="49.4" y="138.9" width="43.49" height="24"/><rect class="cls-5" x="64.71" y="143.08" width="13.22" height="2.78"/><rect class="cls-5" x="66.36" y="143.43" width="9.91" height="2.09"/><rect class="cls-4" x="93.59" y="138.9" width="43.49" height="24"/><rect class="cls-5" x="108.89" y="143.08" width="13.22" height="2.78"/><rect class="cls-5" x="110.55" y="143.43" width="9.91" height="2.09"/><rect class="cls-4" x="49.4" y="114.2" width="43.49" height="24"/><rect class="cls-5" x="64.71" y="118.38" width="13.22" height="2.78"/><rect class="cls-5" x="66.36" y="118.73" width="9.91" height="2.09"/><rect class="cls-4" x="93.59" y="114.2" width="43.49" height="24"/><rect class="cls-5" x="108.89" y="118.38" width="13.22" height="2.78"/><rect class="cls-5" x="110.55" y="118.73" width="9.91" height="2.09"/><rect class="cls-4" x="49.4" y="89.15" width="43.49" height="24"/><rect class="cls-5" x="64.71" y="93.33" width="13.22" height="2.78"/><rect class="cls-5" x="66.36" y="93.68" width="9.91" height="2.09"/><rect class="cls-4" x="93.59" y="89.15" width="43.49" height="24"/><rect class="cls-5" x="108.89" y="93.33" width="13.22" height="2.78"/><rect class="cls-5" x="110.55" y="93.68" width="9.91" height="2.09"/><rect class="cls-4" x="93.59" y="64.1" width="43.49" height="24"/><rect class="cls-5" x="108.89" y="68.28" width="13.22" height="2.78"/><rect class="cls-5" x="110.55" y="68.63" width="9.91" height="2.09"/></g><g class="cls-3"><rect class="cls-4" x="137.77" y="138.56" width="43.49" height="24"/><rect class="cls-5" x="153.08" y="142.73" width="13.22" height="2.78"/><rect class="cls-5" x="154.73" y="143.08" width="9.91" height="2.09"/><rect class="cls-4" x="181.95" y="138.56" width="43.49" height="24"/><rect class="cls-5" x="197.26" y="142.73" width="13.22" height="2.78"/><rect class="cls-5" x="198.91" y="143.08" width="9.91" height="2.09"/><rect class="cls-4" x="137.77" y="113.85" width="43.49" height="24"/><rect class="cls-5" x="153.08" y="118.03" width="13.22" height="2.78"/><rect class="cls-5" x="154.73" y="118.38" width="9.91" height="2.09"/><rect class="cls-4" x="181.95" y="113.85" width="43.49" height="24"/><rect class="cls-5" x="197.26" y="118.03" width="13.22" height="2.78"/><rect class="cls-5" x="198.91" y="118.38" width="9.91" height="2.09"/><rect class="cls-4" x="137.77" y="88.81" width="43.49" height="24"/><rect class="cls-5" x="153.08" y="92.98" width="13.22" height="2.78"/><rect class="cls-5" x="154.73" y="93.33" width="9.91" height="2.09"/><rect class="cls-4" x="181.95" y="88.81" width="43.49" height="24"/><rect class="cls-5" x="197.26" y="92.98" width="13.22" height="2.78"/><rect class="cls-5" x="198.91" y="93.33" width="9.91" height="2.09"/><rect class="cls-4" x="181.95" y="63.76" width="43.49" height="24"/><rect class="cls-5" x="197.26" y="67.93" width="13.22" height="2.78"/><rect class="cls-5" x="198.91" y="68.28" width="9.91" height="2.09"/></g><path class="cls-6" d="M305.56,0S276.27-1.73,279.71,18.8a5,5,0,0,0,2.6,5.27s.05-1.52,3-1a13.55,13.55,0,0,0,3.18.16,6.66,6.66,0,0,0,3.89-1.61h0s8.24-3.4,11.44-16.86c0,0,2.37-2.94,2.27-3.69l-4.94,2.11s1.69,3.56.35,6.53c0,0-.16-6.4-1.11-6.26-.19,0-2.57,1.23-2.57,1.23s2.9,6.21.71,10.73c0,0,.84-7.66-1.62-10.28l-3.48,2s3.4,6.41,1.09,11.65c0,0,.59-8-1.82-11.16l-3.15,2.46s3.19,6.33,1.24,10.67c0,0-.25-9.35-1.93-10,0,0-2.76,2.43-3.18,3.43,0,0,2.19,4.59.83,7,0,0-.83-6.23-1.51-6.26,0,0-2.75,4.13-3,7a15.11,15.11,0,0,1,2.37-7.35,8.27,8.27,0,0,0-4.2,2.18s.43-2.92,4.89-3.17c0,0,2.27-3.13,2.88-3.33,0,0-4.44-.36-7.13.83,0,0,2.37-2.76,7.94-1.5L291.83,7s-5.83-.8-8.31.09c0,0,2.85-2.44,9.15-.66l3.4-2s-5-1.07-7.94-.7c0,0,3.13-1.69,8.94.14l2.43-1.09s-3.64-.72-4.71-.83-1.13-.41-1.13-.41a12.63,12.63,0,0,1,6.85.77S305.65.36,305.56,0Z" transform="translate(0 0)"/><path class="cls-6" d="M269.43,5.26s-13.22-.8-11.67,8.48a2.26,2.26,0,0,0,1.17,2.38s0-.7,1.36-.45a6.33,6.33,0,0,0,1.44.07,3,3,0,0,0,1.76-.73h0s3.72-1.53,5.17-7.62c0,0,1.06-1.33,1-1.67l-2.23,1a4,4,0,0,1,.16,3s-.07-2.89-.5-2.82c-.09,0-1.16.55-1.16.55s1.31,2.81.32,4.85c0,0,.38-3.46-.73-4.64L264,8.49s1.53,2.9.49,5.26c0,0,.27-3.63-.83-5l-1.42,1.11s1.44,2.86.57,4.82c0,0-.12-4.23-.88-4.54a8.41,8.41,0,0,0-1.43,1.55s1,2.09.37,3.17c0,0-.37-2.82-.7-2.83a9.43,9.43,0,0,0-1.37,3.13,6.76,6.76,0,0,1,1.07-3.32,3.86,3.86,0,0,0-1.9,1s.2-1.31,2.21-1.43a9.79,9.79,0,0,1,1.3-1.5,8.36,8.36,0,0,0-3.22.37s1.07-1.24,3.59-.67l1.39-1.15a12.16,12.16,0,0,0-3.76,0s1.29-1.1,4.14-.29l1.53-.92a14,14,0,0,0-3.59-.31s1.42-.77,4,.06l1.1-.49s-1.65-.32-2.13-.37-.51-.19-.51-.19a5.76,5.76,0,0,1,3.1.35A13.48,13.48,0,0,0,269.43,5.26Z" transform="translate(0 0)"/><ellipse class="cls-7" cx="78" cy="221.95" rx="13.99" ry="2.37"/><path class="cls-7" d="M83.78,218.08a4,4,0,0,0,1.33-2,1.8,1.8,0,0,0-.93-2,2.6,2.6,0,0,0-2.46.86A3.27,3.27,0,0,1,79.33,216a3.67,3.67,0,0,0,1.12-3.42,1.53,1.53,0,0,0-.31-.7c-.48-.5-1.34-.29-1.91.11-1.81,1.28-2.31,3.74-2.32,5.94a11,11,0,0,1,0-2.43,2.55,2.55,0,0,0-.92-2.17,2.72,2.72,0,0,0-1.4-.32,2.88,2.88,0,0,0-2.27.64,2.25,2.25,0,0,0,.09,2.79,9.1,9.1,0,0,0,2.35,1.88,5.14,5.14,0,0,1,1.68,1.6,1.08,1.08,0,0,1,.13.29h5.1A14.18,14.18,0,0,0,83.78,218.08Z" transform="translate(0 0)"/><path class="cls-8" d="M249.57,119a1.57,1.57,0,0,0-.87-1.25,1.62,1.62,0,0,0-2.12.85l0,0-7.73,16.26-1.73,64h2.78l1-63.88,8.5-15A1.62,1.62,0,0,0,249.57,119Z" transform="translate(0 0)"/><path class="cls-2" d="M374.19,213.38a50.45,50.45,0,0,1-7.34,5.32,1,1,0,0,1-.13.16,2.23,2.23,0,0,1-1,.48h0a57.18,57.18,0,0,1-28.21,7.24H146.27c-21.92-2.25-35.29-5.24-35.29-8.52,0-2.54,8-4.91,21.86-6.9,1.43-.21,2.92-.41,4.48-.6l2.94-.35,1.7-.2c1.26-.15,2.56-.29,3.89-.42h.1l1.4-.14,3.6-.35.89-.08,2.27-.2,4.52-.38,3.9-.3c13.38-1,28.81-1.74,45.59-2.22l4.8-.17,1.61,0,3.41-.08,1.37,0,1.44,0,1,0,4.8-.08,2.47,0h.5q8.75-.11,17.82-.11c12,0,23.56.14,34.62.41h0q9.51.24,18.45.59h.06c17.18.67,32.56,1.67,45.28,2.9l.23,0c3.27.32,6.36.66,9.27,1,2.73.33,5.3.67,7.67,1l2.4.36.2,0C368.84,212.24,371.74,212.79,374.19,213.38Z" transform="translate(0 0)"/><path class="cls-9" d="M366.86,218.7a1.07,1.07,0,0,1-.14.16,2.18,2.18,0,0,1-1,.48h0a9.2,9.2,0,0,1-2.15.35h-.22a10.38,10.38,0,0,1-1.25,0,4.69,4.69,0,0,0-.92-.06h0a6.5,6.5,0,0,0-1.3.32,11.27,11.27,0,0,1-2.89.41h-.34l-3.3,0h-.53c-1.88.05-3.75.35-5.63.38h-.6a8.77,8.77,0,0,1-5.18-1.55,2,2,0,0,1-.7-.78,2.17,2.17,0,0,1-.13-1,2.46,2.46,0,0,1,.63-1.74,2.75,2.75,0,0,1,1-.49l1.92-.6c.63-.2,1.36-.41,2.05-.61l.13,0,.38-.12.25-.08a4.36,4.36,0,0,0,.85-.39,2.64,2.64,0,0,0,.88-.88l.12-.19c0-.07,0-.11,0-.17-.05-.43-.1-.88-.18-1.3a5.25,5.25,0,0,1-2.57-1.45,8.54,8.54,0,0,1-1.5-2,43.08,43.08,0,0,1-2-5.18,45.57,45.57,0,0,0-3.89-7.46c-1.33-2.22-2.66-4.45-4.17-6.55-1-1.39-2.09-2.71-3.08-4.11a36.43,36.43,0,0,1-6-13,17.36,17.36,0,0,0-.72-2.63,26.4,26.4,0,0,0-2.54-4,13.17,13.17,0,0,1-1.84-4.72c-.17-1-.46-2-1.41-2.09h0l-.1.2c-2,3.83-4,7.72-7,10.85a11.47,11.47,0,0,0-1.3,1.49,16.4,16.4,0,0,0-.84,1.61,10.58,10.58,0,0,1-1.84,2.7,4.8,4.8,0,0,1-.74.61,3.72,3.72,0,0,1-1.14.58h0a2.88,2.88,0,0,1-.49.11.5.5,0,0,0,0,.12s0,.09,0,.14a16.23,16.23,0,0,1-.63,8.32,1.84,1.84,0,0,1-.09.25c-.14.39-.3.77-.47,1.15-.42.92-.92,1.8-1.32,2.74-.07.16-.13.32-.19.48-1.39,3.73-1.05,7.89-1.23,11.89a12.65,12.65,0,0,1-.31,2.6c-.23,1-.61,2-.82,2.95a5,5,0,0,0,0,2.28l-.08,0c-.37.14-.75.27-1.13.39v0c.14.78.27,1.56.4,2.33a3.46,3.46,0,0,0,.72,1.87,2.26,2.26,0,0,1,.34.35c.28.43,0,1,.09,1.51.07.72.74,1.34.64,2.06a1.36,1.36,0,0,1-.82,1,3.27,3.27,0,0,1-.53.17l-.12,0c-.21,0-.41.06-.62.08a29.45,29.45,0,0,1-7.79.08c-.51-.09-1-.2-1.53-.25a11.41,11.41,0,0,0-1.94.08,95.26,95.26,0,0,1-14.33.28c-1.25-.07-2.67-.27-3.33-1.33a3.82,3.82,0,0,1-.07-3,3.09,3.09,0,0,1,.42-1.05.61.61,0,0,1,.07-.1c.64-.8,1.85-.84,2.88-.81l3.39.1a3.06,3.06,0,0,0,1-.08,10.82,10.82,0,0,0,1.48-.84c.65-.31,1.46-.35,1.93-.88l.06-.08c.08-.11.16-.23.23-.35s0,0,.05-.07h0a.21.21,0,0,1,0-.06,5.5,5.5,0,0,1,1.78-1.11,2.4,2.4,0,0,0,.26-.18l.07-.07a7.37,7.37,0,0,1-1.69-1.7,1.6,1.6,0,0,1-.38-.67.93.93,0,0,1,0-.57.69.69,0,0,1,.05-.13l0,0c.24-.47.73-.89,1-1.37l0-.05a2.14,2.14,0,0,0-.1-2.33c.28-4.58,1.54-9.05,1.81-13.64.11-1.82.07-3.65.15-5.47s.28-3.6.49-5.39c.46-4.1,1.57-8.11,1.41-12.22a8.85,8.85,0,0,1,0-1.15v-.08a7.1,7.1,0,0,1,.78-2.41,17.54,17.54,0,0,1,1.71-2.41c2.14-2.78,4.71-5.56,5.47-9a19.18,19.18,0,0,1,2.13-5,8.47,8.47,0,0,1,1.86-2.61,8.75,8.75,0,0,0,1.23-1.05,10.3,10.3,0,0,0,.93-2.63c.17-.46.44-.88.57-1.35l0-.14a9.75,9.75,0,0,0,.13-1.43,2.73,2.73,0,0,1,0-.41h0a14.86,14.86,0,0,1,1.19-4l.21-.48a14.94,14.94,0,0,1-4.17-3.63,8.54,8.54,0,0,1-1-1.52,18.83,18.83,0,0,1-1.22-4.6c-.81-3.72-2.66-7.22-2.91-11a12.57,12.57,0,0,0-.4-3.45,8.42,8.42,0,0,0-.4-.86l-.18-.35-.07-.13-.18-.35-.28.22A207.27,207.27,0,0,1,270,120.59l-.67.4a2.51,2.51,0,0,0-.89.73l-.07.13h0c-.16.33-.2.7-.35,1.05a2.85,2.85,0,0,1-1.94,1.54,6,6,0,0,1-4.4-.57,4.91,4.91,0,0,1-.5-.28,6.86,6.86,0,0,1-1.28.55,15.09,15.09,0,0,1-4.29.38,13.16,13.16,0,0,0-4.28.47,10.18,10.18,0,0,1-2.74.87,1.71,1.71,0,0,1-.32,0,4.74,4.74,0,0,1-1.56-.45l-.28-.13c-.15-.07-.29-.15-.43-.23a2.78,2.78,0,0,1-.42-.33,1.52,1.52,0,0,1-.39-.67,1,1,0,0,1,0-.55.3.3,0,0,1,.12-.21.35.35,0,0,1,.2-.05,5.92,5.92,0,0,1,1.19.1,5.48,5.48,0,0,0,.7,0h.13a1.51,1.51,0,0,0,1-.6.51.51,0,0,0,.09-.16h0a.85.85,0,0,0,.06-.31v-.08c-.14-.07-.29-.13-.43-.21l-.21-.13,0,0a3.37,3.37,0,0,1-.35-.29,1.3,1.3,0,0,1-.18-.23,1.2,1.2,0,0,1-.2-.41h0a2,2,0,0,0-.87,0c-.38.1-.76.33-1.14.4a1,1,0,0,1-.57,0c-.54-.2-.73-.86-.85-1.43,0-.1,0-.22-.06-.33h0a1.72,1.72,0,0,1,0-.64,2.42,2.42,0,0,1,.91-1.2l1.14-.95.09-.07a1.5,1.5,0,0,0-.06-.29,1.78,1.78,0,0,1,0-.65,2.4,2.4,0,0,1,.92-1.19l2.53-2.12a2.93,2.93,0,0,1,1.6-.86c.91-.06,1.64.7,2.33,1.3a5.28,5.28,0,0,0,3.06,1.47,4.7,4.7,0,0,0,1.62-.22l.3-.1c-.07-.13-.13-.26-.19-.39l-.3-.64a6.92,6.92,0,0,0,3.95-1.89c1.13-1,2.09-2.12,3.23-3.08s2.63-1.82,3.87-2.82c2.89-2.34,4.8-5.79,7.89-7.85a10.16,10.16,0,0,0,3-2.36c.23-.35.4-.7.63-1,.74-1,2-1.52,3.06-2.25a14.61,14.61,0,0,0,2.81-2.8c.61-.72,1.22-1.45,1.79-2.2.54-1,1-2,1.54-3a14.64,14.64,0,0,1,1.65-2.33l.44-.82.42-.7c.1-.16.21-.31.31-.46-.31-.56-.61-1-.76-1.26l-.07-.09a8.53,8.53,0,0,0-1-.92,10.4,10.4,0,0,1-1.08-.23,10.14,10.14,0,0,1-7.46-9.8v0a10.15,10.15,0,0,1,1.1-4.59,8.37,8.37,0,0,1,.48-.82,3.85,3.85,0,0,1-.47-.19,1.94,1.94,0,0,1-.64-.53,1.44,1.44,0,0,1-.27-.68,3.45,3.45,0,0,1,.25-1.68,6.26,6.26,0,0,1,.32-.75l0-.05A9.66,9.66,0,0,1,291,52.61c3.57-.14,7.05,1.53,9.87,3.93a13.54,13.54,0,0,1,2.23,2.37,14.31,14.31,0,0,1,2.33,7.25,11.43,11.43,0,0,1-.05,2.41,5,5,0,0,1-.17.84,3.17,3.17,0,0,1-.17.49,2.17,2.17,0,0,1-.15.35v0l-.17.32,0,0-.05.07.09.2a1.14,1.14,0,0,0,.1.19h0c.7.06,1.34.16,2.05.21a4.66,4.66,0,0,1,1,.16,6.52,6.52,0,0,1,1.81,1.12c1.45,1,3.23,1.5,4.65,2.56,2.09,1.56,3.13,4.13,4.4,6.44,1.67,3.09,4.39,5.72,5.59,9,.54,1.5,1.09,3,1.64,4.49a70.93,70.93,0,0,0,3.58,8.65c2,3.84,4.75,7.3,6.37,11.34a1.78,1.78,0,0,0,.85.94,75.42,75.42,0,0,1,5.86,9.81,18.24,18.24,0,0,1,2,5.68,13.6,13.6,0,0,1-.43,5.31,26,26,0,0,1-1,3,4.7,4.7,0,0,0-.35,1.08V141a10.23,10.23,0,0,0,.25,2,3.77,3.77,0,0,1-.17,1.6l-.09.24a8.29,8.29,0,0,0-.55,1.26l0,.16a6.55,6.55,0,0,0,.35,2.28,30.34,30.34,0,0,1,.35,8.35c-.08,1.39,1,2.5,2,3.53a37.11,37.11,0,0,1,4.41,6.42,19.85,19.85,0,0,1,1.8,3.6,29.17,29.17,0,0,1,1,4.43c.89,4.59,3.79,8.65,4.58,13.25a11.81,11.81,0,0,0,2.68,5.7,12,12,0,0,1,1.16,1.4,5.26,5.26,0,0,1,.58,1.25,9.2,9.2,0,0,1,.47,3.17,5,5,0,0,0,.09,1.55c.33,1.07,1.5,1.65,2,2.66s.15,2.29.35,3.43a3.68,3.68,0,0,0,1.39,2.32c-.28.24-.57.47-.87.7a3.46,3.46,0,0,1,.72.76,3.7,3.7,0,0,1,.35.61c.46,1.07.47,2.34.85,3.48a2.53,2.53,0,0,1,.24,1.46,1.24,1.24,0,0,0-.11.43c0,.31.32.52.45.8A.86.86,0,0,1,366.86,218.7Z" transform="translate(0 0)"/><path class="cls-10" d="M293.22,83a21.72,21.72,0,0,0,5.89-3l6.47-4.12A5.63,5.63,0,0,1,301.41,73a14.5,14.5,0,0,1-1.58-5,26.12,26.12,0,0,0-7.44,4.88c-.9.76-2.79,1.93-3.06,3.13s1.48,2.17,2.15,3C291.72,79.26,293.91,82.83,293.22,83Z" transform="translate(0 0)"/><path class="cls-5" d="M293.22,83a21.72,21.72,0,0,0,5.89-3l6.47-4.12A5.63,5.63,0,0,1,301.41,73a14.5,14.5,0,0,1-1.58-5,26.12,26.12,0,0,0-7.44,4.88c-.9.76-2.79,1.93-3.06,3.13s1.48,2.17,2.15,3C291.72,79.26,293.91,82.83,293.22,83Z" transform="translate(0 0)"/><path class="cls-10" d="M257.85,117.07a7.12,7.12,0,0,1-3.64,1.1,5.21,5.21,0,0,1-3.05-1.46c-.7-.6-1.42-1.35-2.33-1.29a3,3,0,0,0-1.6.84l-2.52,2.12a1.76,1.76,0,0,0-.86,2.16c.12.56.31,1.22.85,1.41s1.13-.22,1.71-.37a2,2,0,0,1,2,.58,1.15,1.15,0,0,1,.35.75c0,.63-.7,1-1.34,1.08s-1.25-.18-1.88-.14a.29.29,0,0,0-.33.25h0a1.35,1.35,0,0,0,.41,1.21,3.62,3.62,0,0,0,1.14.7,4.62,4.62,0,0,0,1.55.45,8.26,8.26,0,0,0,3.06-.87,13.67,13.67,0,0,1,4.27-.47,15,15,0,0,0,4.28-.37,4.9,4.9,0,0,0,3.24-2.63.7.7,0,0,0,.06-.4.69.69,0,0,0-.3-.35c-1.94-1.44-2.72-3.19-4.91-4.22Z" transform="translate(0 0)"/><path class="cls-5" d="M257.85,117.07a7.12,7.12,0,0,1-3.64,1.1,5.21,5.21,0,0,1-3.05-1.46c-.7-.6-1.42-1.35-2.33-1.29a3,3,0,0,0-1.6.84l-2.52,2.12a1.76,1.76,0,0,0-.86,2.16c.12.56.31,1.22.85,1.41s1.13-.22,1.71-.37a2,2,0,0,1,2,.58,1.15,1.15,0,0,1,.35.75c0,.63-.7,1-1.34,1.08s-1.25-.18-1.88-.14a.29.29,0,0,0-.33.25h0a1.35,1.35,0,0,0,.41,1.21,3.62,3.62,0,0,0,1.14.7,4.62,4.62,0,0,0,1.55.45,8.26,8.26,0,0,0,3.06-.87,13.67,13.67,0,0,1,4.27-.47,15,15,0,0,0,4.28-.37,4.9,4.9,0,0,0,3.24-2.63.7.7,0,0,0,.06-.4.69.69,0,0,0-.3-.35c-1.94-1.44-2.72-3.19-4.91-4.22Z" transform="translate(0 0)"/><path class="cls-7" d="M298.59,80a4.17,4.17,0,0,0-3.68-.43,7.83,7.83,0,0,0-3.17,2.11,14.91,14.91,0,0,0-2.24,2.95c-.59,1.05-1,2.14-1.64,3.18a33.19,33.19,0,0,1-3.77,5.13,14.85,14.85,0,0,1-2.81,2.79c-1.09.74-2.32,1.2-3.06,2.23-.23.33-.4.7-.63,1a10.05,10.05,0,0,1-3,2.35c-3.08,2.06-5,5.47-7.88,7.8-1.25,1-2.65,1.79-3.87,2.81s-2.08,2.09-3.22,3.07a6.91,6.91,0,0,1-3.94,1.86,20.2,20.2,0,0,0,3.86,6.08c1.69,1.72,4.23,2.81,6.54,2.14a2.84,2.84,0,0,0,1.94-1.53,7.28,7.28,0,0,1,.41-1.19,2.66,2.66,0,0,1,.88-.72,207.76,207.76,0,0,0,26.48-18.34c2.24-1.82,4.46-3.46,6.76-5.22a14.78,14.78,0,0,0,2.27-2,7.58,7.58,0,0,0,.92-8.33,20.49,20.49,0,0,0-2.11-2.86A25.06,25.06,0,0,0,298.59,80Z" transform="translate(0 0)"/><path class="cls-6" d="M298.59,80a4.17,4.17,0,0,0-3.68-.43,7.83,7.83,0,0,0-3.17,2.11,14.91,14.91,0,0,0-2.24,2.95c-.59,1.05-1,2.14-1.64,3.18a33.19,33.19,0,0,1-3.77,5.13,14.85,14.85,0,0,1-2.81,2.79c-1.09.74-2.32,1.2-3.06,2.23-.23.33-.4.7-.63,1a10.05,10.05,0,0,1-3,2.35c-3.08,2.06-5,5.47-7.88,7.8-1.25,1-2.65,1.79-3.87,2.81s-2.08,2.09-3.22,3.07a6.91,6.91,0,0,1-3.94,1.86,20.2,20.2,0,0,0,3.86,6.08c1.69,1.72,4.23,2.81,6.54,2.14a2.84,2.84,0,0,0,1.94-1.53,7.28,7.28,0,0,1,.41-1.19,2.66,2.66,0,0,1,.88-.72,207.76,207.76,0,0,0,26.48-18.34c2.24-1.82,4.46-3.46,6.76-5.22a14.78,14.78,0,0,0,2.27-2,7.58,7.58,0,0,0,.92-8.33,20.49,20.49,0,0,0-2.11-2.86A25.06,25.06,0,0,0,298.59,80Z" transform="translate(0 0)"/><path class="cls-8" d="M283.64,209a5.24,5.24,0,0,0-1.78,1.11c-.14.18-.24.39-.39.56-.46.55-1.28.57-1.92.88a10.26,10.26,0,0,1-1.48.84,3.38,3.38,0,0,1-1,.08l-3.38-.1c-1.08,0-2.33,0-2.95.9a3.06,3.06,0,0,0-.43,1,3.93,3.93,0,0,0,.07,3c.66,1,2.09,1.25,3.33,1.32a96.3,96.3,0,0,0,14.31-.28,11.41,11.41,0,0,1,1.94-.09c.51,0,1,.16,1.52.25a29.37,29.37,0,0,0,7.78-.08,4,4,0,0,0,1.28-.27,1.38,1.38,0,0,0,.81-1c.11-.72-.57-1.33-.64-2.05,0-.51.19-1.07-.09-1.51a2.73,2.73,0,0,0-.34-.34,3.42,3.42,0,0,1-.72-1.85l-.61-3.58a1.1,1.1,0,0,0-.29-.67,1.16,1.16,0,0,0-.43-.18c-2.65-.6-5.37-.05-8,.28a21.64,21.64,0,0,1-4.1.21c-.59,0-.82-.11-1.26.28S284.19,208.71,283.64,209Z" transform="translate(0 0)"/><path class="cls-8" d="M347.65,213.33a5.56,5.56,0,0,1-1.48.58c-1.36.4-2.73.82-4.09,1.25a2.72,2.72,0,0,0-1,.48,2.42,2.42,0,0,0-.63,1.74,2.3,2.3,0,0,0,.12,1,2.08,2.08,0,0,0,.7.77,9.08,9.08,0,0,0,5.55,1.55c2,0,3.9-.33,5.85-.38,2.37-.07,4.79.27,7.06-.39a6.34,6.34,0,0,1,1.35-.33,5.57,5.57,0,0,1,.91.06,9.61,9.61,0,0,0,3.62-.33,2.13,2.13,0,0,0,1-.48.9.9,0,0,0,.26-1c-.12-.28-.44-.49-.45-.8a1.62,1.62,0,0,1,.12-.43,2.51,2.51,0,0,0-.25-1.45c-.45-1.34-.38-2.88-1.18-4a5.15,5.15,0,0,0-3.68-1.83,10.4,10.4,0,0,0-3.43.1c-1.27.27-2.45.84-3.7,1.2a11.93,11.93,0,0,1-4.45.42c-1-.08-.65.08-1,.91A3,3,0,0,1,347.65,213.33Z" transform="translate(0 0)"/><circle class="cls-10" cx="292.06" cy="68.1" r="10.09"/><path class="cls-7" d="M365.21,209.72a17.87,17.87,0,0,1-11.48,3.91,9.43,9.43,0,0,1-5-1.07c-.1-.57-.15-1.19-.25-1.76a6.4,6.4,0,0,1-4.06-3.46,40,40,0,0,1-2-5.14,46,46,0,0,0-3.89-7.42c-1.33-2.21-2.66-4.42-4.17-6.5-1-1.4-2.09-2.7-3.08-4.09a36.14,36.14,0,0,1-5.93-12.89,16.63,16.63,0,0,0-.72-2.62,27,27,0,0,0-2.54-4,13,13,0,0,1-1.84-4.69c-.17-1-.47-2-1.41-2.07h0c-2,3.88-4,7.82-7.06,11a11.48,11.48,0,0,0-1.3,1.48,14.27,14.27,0,0,0-.83,1.6,10.15,10.15,0,0,1-1.85,2.69,4.28,4.28,0,0,1-2.37,1.29,16.27,16.27,0,0,1-1.14,9.92c-.42.91-.92,1.8-1.32,2.72-1.62,3.83-1.25,8.14-1.42,12.3a13.26,13.26,0,0,1-.3,2.58c-.42,1.7-1.29,3.5-.87,5.2-4.37,1.67-9.21,1.56-13.83.86a6.67,6.67,0,0,1-2.58-.78,7.14,7.14,0,0,1-1.69-1.69,1.86,1.86,0,0,1-.39-.68c-.18-.79.7-1.39,1.1-2.08a2.11,2.11,0,0,0-.08-2.37c.28-4.56,1.54-9,1.82-13.57.11-1.81.06-3.62.15-5.44s.28-3.57.48-5.36c.46-4.06,1.57-8,1.41-12.14a7.19,7.19,0,0,1,.84-3.61,17.62,17.62,0,0,1,1.7-2.4c2.14-2.76,4.7-5.52,5.47-8.93a19.3,19.3,0,0,1,2.12-4.94,8.77,8.77,0,0,1,1.86-2.6,8.22,8.22,0,0,0,1.23-1,9.68,9.68,0,0,0,.93-2.61c.17-.45.44-.87.57-1.34a7.44,7.44,0,0,0,.16-1.56,14.51,14.51,0,0,1,1.44-4.86,14.88,14.88,0,0,1-4.18-3.6,9.12,9.12,0,0,1-1-1.52,18.48,18.48,0,0,1-1.22-4.57c-.8-3.69-2.65-7.17-2.9-10.94a12.39,12.39,0,0,0-.4-3.43,11,11,0,0,0-.65-1.34,5.64,5.64,0,0,1-.55-1.35,23.35,23.35,0,0,1,0-3.13,22.49,22.49,0,0,0-.67-2.69,12.8,12.8,0,0,1-.1-3.55,29.43,29.43,0,0,0,.27-4.2,16.21,16.21,0,0,1,4.37-12.5l.08-.08c.66-.7,1.39-1.31,2-2,.81-1,1.39-2.15,2.25-3.11.37-.42.8-.81,1.17-1.24A10.38,10.38,0,0,1,302.68,71a1.74,1.74,0,0,1,1.57-.43,4.41,4.41,0,0,0,.48,1.49c.73,0,1.37.15,2.09.21a4.84,4.84,0,0,1,1,.15,6.62,6.62,0,0,1,1.8,1.12c1.44,1,3.22,1.49,4.65,2.54,2.08,1.55,3.13,4.11,4.39,6.4,1.66,3.07,4.38,5.69,5.56,9l1.63,4.47a70.15,70.15,0,0,0,3.59,8.59c2,3.82,4.74,7.27,6.36,11.28a1.82,1.82,0,0,0,.84.93,73.33,73.33,0,0,1,5.86,9.74,18.32,18.32,0,0,1,2,5.65,16.48,16.48,0,0,1-1.45,8.27,4,4,0,0,0-.35,1.18,9.42,9.42,0,0,0,.25,2,3.54,3.54,0,0,1-.27,1.82,10,10,0,0,0-.54,1.26,5.4,5.4,0,0,0,.33,2.42,30.3,30.3,0,0,1,.34,8.29c-.08,1.39,1.05,2.5,2,3.52a36.72,36.72,0,0,1,4.41,6.37,20,20,0,0,1,1.8,3.58,28.79,28.79,0,0,1,1,4.4c.89,4.56,3.78,8.6,4.57,13.17a11.67,11.67,0,0,0,2.68,5.66,12.75,12.75,0,0,1,1.16,1.39,5.65,5.65,0,0,1,.57,1.25,9.1,9.1,0,0,1,.48,3.15,4.43,4.43,0,0,0,.09,1.54c.32,1.06,1.5,1.64,2,2.64s.15,2.28.35,3.41A3.65,3.65,0,0,0,365.21,209.72Z" transform="translate(0 0)"/><path class="cls-10" d="M259.93,113.94a7.08,7.08,0,0,1-3.63,1.1,5.27,5.27,0,0,1-3.06-1.46c-.7-.6-1.41-1.36-2.32-1.3a3,3,0,0,0-1.6.85l-2.52,2.12a1.76,1.76,0,0,0-.86,2.16c.11.56.31,1.22.85,1.41s1.13-.22,1.71-.38a2,2,0,0,1,2,.59,1.2,1.2,0,0,1,.35.75c0,.63-.7,1-1.34,1.08s-1.25-.18-1.88-.14a.29.29,0,0,0-.33.25h0a1.35,1.35,0,0,0,.41,1.21,3.57,3.57,0,0,0,1.13.7,4.74,4.74,0,0,0,1.56.45,8.26,8.26,0,0,0,3.06-.87,13.67,13.67,0,0,1,4.27-.47,14.67,14.67,0,0,0,4.28-.38,4.81,4.81,0,0,0,3.23-2.63.55.55,0,0,0,.06-.4.64.64,0,0,0-.29-.34c-1.94-1.44-2.73-3.19-4.91-4.22Z" transform="translate(0 0)"/><path class="cls-8" d="M287.15,61.91a7.84,7.84,0,0,0-1.68.73,2.91,2.91,0,0,1-2.38-.13,1.78,1.78,0,0,1-.66-.53,2.57,2.57,0,0,1,0-2.34,9.56,9.56,0,0,1,8.53-6c3.57-.14,7,1.53,9.86,3.91A13.73,13.73,0,0,1,303,59.93a14.08,14.08,0,0,1,2.33,7.21,9.25,9.25,0,0,1-.21,3.23,3.92,3.92,0,0,1-1.83,2.47,3.61,3.61,0,0,1-3.19-.14,13.81,13.81,0,0,1-2.74-2,4.06,4.06,0,0,0-1.36-.87,1.39,1.39,0,0,0-1.47.35c-.46.56-.35,1.48-.77,2.09a2.45,2.45,0,0,1-2.05.7,2.28,2.28,0,0,1-1.95-.66,2.47,2.47,0,0,1-.19-2,6.72,6.72,0,0,0,.35-2c-.15-1.39-1.36-2.24-1.74-3.52-.25-.84.3-1.2.24-1.95a1.1,1.1,0,0,0-1.26-.92Z" transform="translate(0 0)"/><path class="cls-5" d="M318.85,157.86V158h0c-2,3.88-4,7.82-7.05,11a10.76,10.76,0,0,0-1.3,1.48,15.19,15.19,0,0,0-.84,1.6,10.28,10.28,0,0,1-1.84,2.69L305.3,176l8-41.74Z" transform="translate(0 0)"/><path class="cls-5" d="M307.22,94.68a15.34,15.34,0,0,1-2.27,2c-2.3,1.74-4.52,3.38-6.75,5.22-1.8,1.46-3.63,2.9-5.47,4.3a5.25,5.25,0,0,1-.55-1.35,23.35,23.35,0,0,1,0-3.13,24.58,24.58,0,0,0-.67-2.69,12.42,12.42,0,0,1-.1-3.55,29.43,29.43,0,0,0,.27-4.2,16.24,16.24,0,0,1,4.38-12.53l.08-.08a7.07,7.07,0,0,1,1.19-.53,4.2,4.2,0,0,1,3.68.45,25.06,25.06,0,0,1,5,4.91,20.49,20.49,0,0,1,2.11,2.86A7.58,7.58,0,0,1,307.22,94.68Z" transform="translate(0 0)"/><path class="cls-7" d="M300.67,76.83a4.2,4.2,0,0,0-3.68-.42,7.9,7.9,0,0,0-3.17,2.11,14.58,14.58,0,0,0-2.23,3c-.59,1-1,2.14-1.64,3.18a33.74,33.74,0,0,1-3.78,5.13,14.46,14.46,0,0,1-2.8,2.78c-1.1.75-2.32,1.2-3.06,2.24-.23.32-.4.7-.63,1a10,10,0,0,1-3,2.35c-3.08,2-5,5.47-7.88,7.8-1.24,1-2.64,1.79-3.86,2.81s-2.09,2.09-3.22,3.06a6.89,6.89,0,0,1-3.95,1.87,20.6,20.6,0,0,0,3.86,6.08c1.7,1.72,4.24,2.81,6.55,2.14a2.84,2.84,0,0,0,1.94-1.53,7,7,0,0,1,.41-1.19,2.47,2.47,0,0,1,.88-.72,207.76,207.76,0,0,0,26.48-18.34c2.24-1.82,4.46-3.46,6.75-5.22a13.9,13.9,0,0,0,2.27-2,7.54,7.54,0,0,0,.92-8.33,19.65,19.65,0,0,0-2.1-2.86A25.44,25.44,0,0,0,300.67,76.83Z" transform="translate(0 0)"/><g class="cls-11"><path d="M292.44,71.58a2.34,2.34,0,0,1-1.95-.66,2.47,2.47,0,0,1-.19-2,6.72,6.72,0,0,0,.35-2c-.15-1.39-1.36-2.24-1.74-3.52-.25-.84.3-1.2.24-2a1.1,1.1,0,0,0-1.27-.9h0a8.75,8.75,0,0,0-1.69.74,2.91,2.91,0,0,1-2.38-.13,1.83,1.83,0,0,1-.65-.53,2.54,2.54,0,0,1,0-2.34.19.19,0,0,1,0-.08,7.75,7.75,0,0,0-.73,1.47,2.54,2.54,0,0,0,0,2.34,1.68,1.68,0,0,0,.65.53,2.91,2.91,0,0,0,2.38.13,8.06,8.06,0,0,1,1.68-.73,1.08,1.08,0,0,1,1.29.86v0c.06.75-.49,1.11-.24,2,.37,1.28,1.59,2.15,1.74,3.53a6.1,6.1,0,0,1-.35,2,2.43,2.43,0,0,0,.2,2,3.3,3.3,0,0,0,4,0,2.9,2.9,0,0,0,.37-1.07A3,3,0,0,1,292.44,71.58Z" transform="translate(0 0)"/><path d="M304,71.45a3.61,3.61,0,0,1-3.19-.14,13.74,13.74,0,0,1-2.73-2,4,4,0,0,0-1.36-.87,1.4,1.4,0,0,0-1.48.35,2.72,2.72,0,0,0-.43,1.17,1.43,1.43,0,0,1,1.21-.13,4,4,0,0,1,1.36.86,13,13,0,0,0,2.73,2,3.64,3.64,0,0,0,3.2.14,3.82,3.82,0,0,0,1.78-2.34A3.35,3.35,0,0,1,304,71.45Z" transform="translate(0 0)"/></g><circle class="cls-8" cx="217.44" cy="210.57" r="10.44"/><circle class="cls-5" cx="217.44" cy="210.57" r="10.44"/><circle class="cls-4" cx="217.44" cy="210.57" r="6.61"/><circle class="cls-5" cx="217.44" cy="210.57" r="6.61"/><path class="cls-8" d="M209.44,194.22l6.84,15.48a1.33,1.33,0,0,0,1.76.68,1.39,1.39,0,0,0,.66-.63l8.14-16.57Z" transform="translate(0 0)"/><path class="cls-5" d="M209.44,194.22l6.84,15.48a1.33,1.33,0,0,0,1.76.68,1.39,1.39,0,0,0,.66-.63l8.14-16.57Z" transform="translate(0 0)"/><circle class="cls-8" cx="152.38" cy="210.57" r="10.44"/><circle class="cls-5" cx="152.38" cy="210.57" r="10.44"/><circle class="cls-4" cx="152.38" cy="210.57" r="6.61"/><circle class="cls-5" cx="152.38" cy="210.57" r="6.61"/><path class="cls-8" d="M144.38,194.22l6.85,15.48a1.32,1.32,0,0,0,1.75.68,1.35,1.35,0,0,0,.66-.63l8.14-16.57Z" transform="translate(0 0)"/><path class="cls-5" d="M144.38,194.22l6.85,15.48a1.32,1.32,0,0,0,1.75.68,1.35,1.35,0,0,0,.66-.63l8.14-16.57Z" transform="translate(0 0)"/><path class="cls-8" d="M251.31,119.68a1.57,1.57,0,0,0-.87-1.24,1.62,1.62,0,0,0-2.12.85h0l0,0-6,14.87L240.57,201h2.79l1-66.66,6.77-13.66A1.66,1.66,0,0,0,251.31,119.68Z" transform="translate(0 0)"/><path class="cls-7" d="M128.2,195.79l9.4-5.92L239,189l2.61,6.79Z" transform="translate(0 0)"/><path class="cls-8" d="M128.2,202.05v-6.26l115.25-1.12-.11,4.25h-113v3.13Z" transform="translate(0 0)"/><circle class="cls-8" cx="142.81" cy="214.22" r="10.44"/><circle class="cls-4" cx="142.81" cy="214.22" r="6.61"/><path class="cls-8" d="M134.81,197.87l6.85,15.48a1.32,1.32,0,0,0,1.75.68,1.31,1.31,0,0,0,.66-.63l8.14-16.57Z" transform="translate(0 0)"/><circle class="cls-8" cx="223.88" cy="214.22" r="10.44"/><circle class="cls-4" cx="223.87" cy="214.22" r="6.61"/><path class="cls-8" d="M215.87,197.87l6.85,15.48a1.33,1.33,0,0,0,1.75.68,1.31,1.31,0,0,0,.66-.63l8.14-16.57Z" transform="translate(0 0)"/><rect class="cls-4" x="141.25" y="168.47" width="43.49" height="24"/><rect class="cls-5" x="156.56" y="172.65" width="13.22" height="2.78"/><rect class="cls-5" x="158.21" y="173" width="9.91" height="2.09"/><rect class="cls-4" x="185.43" y="168.47" width="43.49" height="24"/><rect class="cls-5" x="200.74" y="172.65" width="13.22" height="2.78"/><rect class="cls-5" x="202.39" y="173" width="9.91" height="2.09"/><rect class="cls-4" x="141.25" y="143.77" width="43.49" height="24"/><rect class="cls-5" x="156.56" y="147.95" width="13.22" height="2.78"/><rect class="cls-5" x="158.21" y="148.3" width="9.91" height="2.09"/><rect class="cls-4" x="185.43" y="143.77" width="43.49" height="24"/><rect class="cls-5" x="200.74" y="147.95" width="13.22" height="2.78"/><rect class="cls-5" x="202.39" y="148.3" width="9.91" height="2.09"/><rect class="cls-4" x="141.25" y="118.72" width="43.49" height="24"/><rect class="cls-5" x="156.56" y="122.9" width="13.22" height="2.78"/><rect class="cls-5" x="158.21" y="123.25" width="9.91" height="2.09"/><rect class="cls-4" x="185.43" y="118.72" width="43.49" height="24"/><rect class="cls-5" x="200.74" y="122.9" width="13.22" height="2.78"/><rect class="cls-5" x="202.39" y="123.25" width="9.91" height="2.09"/><rect class="cls-4" x="185.43" y="93.68" width="43.49" height="24"/><rect class="cls-5" x="200.74" y="97.85" width="13.22" height="2.78"/><rect class="cls-5" x="202.39" y="98.2" width="9.91" height="2.09"/></svg>