<svg xmlns="http://www.w3.org/2000/svg" width="254.687" height="213.72" viewBox="0 0 254.687 213.72">
  <g id="Main_image" data-name="Main image" transform="translate(0 0)">
    <circle id="Ellipse_138" data-name="Ellipse 138" cx="18.809" cy="18.809" r="18.809" transform="translate(52.711 10.635)" fill="#88b3c6"/>
    <path id="Path_19129" data-name="Path 19129" d="M576.524,70.806H553.963V50.3Z" transform="translate(-395.173 -35.879)" fill="#3f3d56"/>
    <rect id="Rectangle_406" data-name="Rectangle 406" width="113.497" height="156.802" transform="translate(70.49 34.256)" fill="#e6e6e6"/>
    <rect id="Rectangle_407" data-name="Rectangle 407" width="13.353" height="28.136" transform="translate(81.813 45.25)" fill="#fff"/>
    <rect id="Rectangle_408" data-name="Rectangle 408" width="13.353" height="28.136" transform="translate(102.467 45.25)" fill="#fff"/>
    <rect id="Rectangle_409" data-name="Rectangle 409" width="13.353" height="28.136" transform="translate(80.054 85.128)" fill="#fff"/>
    <rect id="Rectangle_410" data-name="Rectangle 410" width="13.353" height="28.136" transform="translate(102.467 85.128)" fill="#fff"/>
    <rect id="Rectangle_411" data-name="Rectangle 411" width="13.353" height="28.136" transform="translate(80.054 122.027)" fill="#fff"/>
    <rect id="Rectangle_412" data-name="Rectangle 412" width="13.353" height="28.136" transform="translate(101.964 121.524)" fill="#fff"/>
    <rect id="Rectangle_413" data-name="Rectangle 413" width="13.353" height="28.136" transform="translate(121.371 162.985)" fill="#ccc"/>
    <rect id="Rectangle_414" data-name="Rectangle 414" width="13.353" height="28.136" transform="translate(141.545 121.524)" fill="#fff"/>
    <rect id="Rectangle_415" data-name="Rectangle 415" width="13.353" height="28.136" transform="translate(163.958 121.524)" fill="#fff"/>
    <rect id="Rectangle_416" data-name="Rectangle 416" width="13.353" height="28.136" transform="translate(142.048 84.83)" fill="#fff"/>
    <rect id="Rectangle_417" data-name="Rectangle 417" width="13.353" height="28.136" transform="translate(164.461 84.83)" fill="#fff"/>
    <rect id="Rectangle_418" data-name="Rectangle 418" width="13.353" height="28.136" transform="translate(142.048 45.25)" fill="#fff"/>
    <rect id="Rectangle_419" data-name="Rectangle 419" width="13.353" height="28.136" transform="translate(164.461 45.25)" fill="#fff"/>
    <rect id="Rectangle_420" data-name="Rectangle 420" width="113.497" height="4.292" transform="translate(70.49 70.498)" fill="#3f3d56"/>
    <rect id="Rectangle_421" data-name="Rectangle 421" width="113.497" height="2.384" transform="translate(70.49 103.88)" fill="#3f3d56"/>
    <rect id="Rectangle_422" data-name="Rectangle 422" width="113.497" height="2.384" transform="translate(70.49 96.25)" fill="#3f3d56"/>
    <rect id="Rectangle_423" data-name="Rectangle 423" width="2.384" height="19.075" transform="translate(79.312 132.969)" fill="#3f3d56"/>
    <rect id="Rectangle_424" data-name="Rectangle 424" width="2.384" height="19.075" transform="translate(92.665 132.969)" fill="#3f3d56"/>
    <rect id="Rectangle_425" data-name="Rectangle 425" width="2.384" height="19.075" transform="translate(106.017 132.969)" fill="#3f3d56"/>
    <rect id="Rectangle_426" data-name="Rectangle 426" width="2.384" height="19.075" transform="translate(119.37 132.969)" fill="#3f3d56"/>
    <rect id="Rectangle_427" data-name="Rectangle 427" width="2.384" height="19.075" transform="translate(132.723 132.969)" fill="#3f3d56"/>
    <rect id="Rectangle_428" data-name="Rectangle 428" width="2.384" height="19.075" transform="translate(146.075 132.969)" fill="#3f3d56"/>
    <rect id="Rectangle_429" data-name="Rectangle 429" width="2.384" height="19.075" transform="translate(159.428 132.969)" fill="#3f3d56"/>
    <rect id="Rectangle_430" data-name="Rectangle 430" width="2.384" height="19.075" transform="translate(172.78 132.969)" fill="#3f3d56"/>
    <rect id="Rectangle_431" data-name="Rectangle 431" width="2.384" height="19.075" transform="translate(79.551 96.726)" fill="#3f3d56"/>
    <rect id="Rectangle_432" data-name="Rectangle 432" width="2.384" height="19.075" transform="translate(92.903 96.726)" fill="#3f3d56"/>
    <rect id="Rectangle_433" data-name="Rectangle 433" width="2.384" height="19.075" transform="translate(106.256 96.726)" fill="#3f3d56"/>
    <rect id="Rectangle_434" data-name="Rectangle 434" width="2.384" height="19.075" transform="translate(119.608 96.726)" fill="#3f3d56"/>
    <rect id="Rectangle_435" data-name="Rectangle 435" width="2.384" height="19.075" transform="translate(132.961 96.726)" fill="#3f3d56"/>
    <rect id="Rectangle_436" data-name="Rectangle 436" width="2.384" height="19.075" transform="translate(146.314 96.726)" fill="#3f3d56"/>
    <rect id="Rectangle_437" data-name="Rectangle 437" width="2.384" height="19.075" transform="translate(159.666 96.726)" fill="#3f3d56"/>
    <rect id="Rectangle_438" data-name="Rectangle 438" width="2.384" height="19.075" transform="translate(173.019 96.726)" fill="#3f3d56"/>
    <rect id="Rectangle_439" data-name="Rectangle 439" width="2.384" height="19.075" transform="translate(79.551 54.284)" fill="#3f3d56"/>
    <rect id="Rectangle_440" data-name="Rectangle 440" width="2.384" height="19.075" transform="translate(92.903 54.284)" fill="#3f3d56"/>
    <rect id="Rectangle_441" data-name="Rectangle 441" width="2.384" height="19.075" transform="translate(106.256 54.284)" fill="#3f3d56"/>
    <rect id="Rectangle_442" data-name="Rectangle 442" width="2.384" height="19.075" transform="translate(119.608 54.284)" fill="#3f3d56"/>
    <rect id="Rectangle_443" data-name="Rectangle 443" width="2.384" height="19.075" transform="translate(132.961 54.284)" fill="#3f3d56"/>
    <rect id="Rectangle_444" data-name="Rectangle 444" width="2.384" height="19.075" transform="translate(146.314 54.284)" fill="#3f3d56"/>
    <rect id="Rectangle_445" data-name="Rectangle 445" width="2.384" height="19.075" transform="translate(159.666 54.284)" fill="#3f3d56"/>
    <rect id="Rectangle_446" data-name="Rectangle 446" width="2.384" height="19.075" transform="translate(173.019 54.284)" fill="#3f3d56"/>
    <rect id="Rectangle_447" data-name="Rectangle 447" width="113.497" height="2.384" transform="translate(70.49 60.961)" fill="#3f3d56"/>
    <rect id="Rectangle_448" data-name="Rectangle 448" width="113.497" height="2.384" transform="translate(70.49 53.331)" fill="#3f3d56"/>
    <rect id="Rectangle_449" data-name="Rectangle 449" width="113.497" height="4.292" transform="translate(70.49 111.986)" fill="#3f3d56"/>
    <rect id="Rectangle_450" data-name="Rectangle 450" width="123.942" height="6.396" transform="translate(65.267 32.491)" fill="#3f3d56"/>
    <path id="Path_19130" data-name="Path 19130" d="M313.921,574.683V568.6h-7.3v6.084h7.3Z" transform="translate(-218.73 -405.614)" fill="#fff"/>
    <path id="Path_19131" data-name="Path 19131" d="M313.312,606.8H306.62v6.084h7.3V606.8Z" transform="translate(-218.73 -432.867)" fill="#fff"/>
    <rect id="Rectangle_451" data-name="Rectangle 451" width="7.301" height="6.084" transform="translate(100.058 162.985)" fill="#fff"/>
    <rect id="Rectangle_452" data-name="Rectangle 452" width="7.301" height="6.084" transform="translate(100.058 173.936)" fill="#fff"/>
    <path id="Path_19132" data-name="Path 19132" d="M521.654,574.683V568.6h-7.3v6.084h7.3Z" transform="translate(-366.917 -405.614)" fill="#fff"/>
    <path id="Path_19133" data-name="Path 19133" d="M521.045,606.8h-6.692v6.084h7.3V606.8Z" transform="translate(-366.917 -432.867)" fill="#fff"/>
    <rect id="Rectangle_453" data-name="Rectangle 453" width="7.301" height="6.084" transform="translate(159.603 162.985)" fill="#fff"/>
    <rect id="Rectangle_454" data-name="Rectangle 454" width="7.301" height="6.084" transform="translate(159.603 173.936)" fill="#fff"/>
    <rect id="Rectangle_455" data-name="Rectangle 455" width="113.497" height="4.292" transform="translate(70.49 148.229)" fill="#3f3d56"/>
    <rect id="Rectangle_456" data-name="Rectangle 456" width="113.497" height="2.384" transform="translate(70.49 140.599)" fill="#3f3d56"/>
    <rect id="Rectangle_457" data-name="Rectangle 457" width="113.497" height="2.384" transform="translate(70.49 132.969)" fill="#3f3d56"/>
    <path id="Path_19134" data-name="Path 19134" d="M328.131,649.46q0-.2-.005-.4c-.1-3.515-3.589-4.469-5.459-2.8a3.243,3.243,0,0,0-4.253,0c-1.878-1.638-5.3-.752-5.408,2.723q-.006.2-.007.4a20.358,20.358,0,0,0,.134,2.187H328A20.184,20.184,0,0,0,328.131,649.46Z" transform="translate(-223.28 -460.446)" fill="#ec5e04"/>
    <path id="Path_19135" data-name="Path 19135" d="M534.24,649.46q0-.2-.005-.4c-.1-3.515-3.589-4.469-5.458-2.8a3.243,3.243,0,0,0-4.253,0c-1.878-1.638-5.3-.752-5.408,2.723q-.006.2-.007.4a20.509,20.509,0,0,0,.134,2.187h14.865A20.159,20.159,0,0,0,534.24,649.46Z" transform="translate(-370.309 -460.446)" fill="#ec5e04"/>
    <path id="Path_19136" data-name="Path 19136" d="M850.593,555.819h-2.3l.766-44.908h.766Z" transform="translate(-605.137 -364.462)" fill="#e6e6e6"/>
    <path id="Path_19137" data-name="Path 19137" d="M826.763,358.88l3.711-5.735a85.981,85.981,0,0,0-3.807-8.913l-2.4,1.938,1.9-2.936c-1.811-3.565-3.235-5.81-3.235-5.81S815.489,349.152,813,361.57l4.762,7.36-5.272-4.258a34.767,34.767,0,0,0-.289,4.362c0,14.706,4.8,26.629,10.728,26.629s10.728-11.922,10.728-26.629a45.8,45.8,0,0,0-2.454-13.741Z" transform="translate(-579.391 -240.704)" fill="#e6e6e6"/>
    <path id="Path_19138" data-name="Path 19138" d="M706.016,448.447H656.97V484.56H657v7.19l7.19-7.19h41.826Z" transform="translate(-468.654 -319.903)" fill="#ec5e04"/>
    <rect id="Rectangle_458" data-name="Rectangle 458" width="43.513" height="1.72" transform="translate(131.825 205.67)" fill="#e6e6e6"/>
    <rect id="Rectangle_459" data-name="Rectangle 459" width="43.749" height="1.72" transform="translate(210.938 205.67)" fill="#e6e6e6"/>
    <rect id="Rectangle_460" data-name="Rectangle 460" width="43.57" height="1.72" transform="translate(52.711 205.67)" fill="#e6e6e6"/>
    <rect id="Rectangle_461" data-name="Rectangle 461" width="254.508" height="0.479" transform="translate(0 191.082)" fill="#3f3d56"/>
    <rect id="Rectangle_462" data-name="Rectangle 462" width="5.124" height="0.813" transform="translate(199.616 198.552)" fill="#3f3d56"/>
    <path id="Path_19139" data-name="Path 19139" d="M567.15,643.778l1.057.245,40.178.022.361-.842a8.5,8.5,0,0,0,.625-4.594,3.574,3.574,0,0,0-1.591-2.819L606,623.913l-22.229-.04-8.6,6.936s-4.057-.073-6.261,2.671a6.441,6.441,0,0,0-1.347,3.547l-.087,1.427Z" transform="translate(-404.581 -445.044)" fill="#ec5e04"/>
    <circle id="Ellipse_139" data-name="Ellipse 139" cx="4.961" cy="4.961" r="4.961" transform="translate(166.433 193.574)" fill="#3f3d56"/>
    <circle id="Ellipse_140" data-name="Ellipse 140" cx="2.611" cy="2.611" r="2.611" transform="translate(168.783 195.924)" fill="#ccc"/>
    <circle id="Ellipse_141" data-name="Ellipse 141" cx="4.961" cy="4.961" r="4.961" transform="translate(190.914 193.587)" fill="#3f3d56"/>
    <circle id="Ellipse_142" data-name="Ellipse 142" cx="2.611" cy="2.611" r="2.611" transform="translate(193.264 195.937)" fill="#ccc"/>
    <path id="Path_19140" data-name="Path 19140" d="M607.043,633.308l12,.005h1.465l2.473,0v-.181l0-2.175,0-2.442h-1.645l-1.465,0-2.595,0h-1.465l-3,0Z" transform="translate(-433.038 -448.353)" fill="#fff"/>
    <path id="Path_19141" data-name="Path 19141" d="M669.466,633.334l6.343,0,0-1.245v-2.175l0-1.378h-.929l-1.465,0-3.951,0Z" transform="translate(-477.568 -448.37)" fill="#fff"/>
    <rect id="Rectangle_463" data-name="Rectangle 463" width="0.813" height="1.545" transform="translate(189.129 188.542)" fill="#3f3d56"/>
    <rect id="Rectangle_464" data-name="Rectangle 464" width="1.545" height="0.813" transform="translate(175.712 186.339)" fill="#3f3d56"/>
    <path id="Path_19142" data-name="Path 19142" d="M611.95,642.858h-.089a1.7,1.7,0,0,1-1.7-1.7h0a1.7,1.7,0,0,1,1.7-1.7h.089l0,3.4Z" transform="translate(-435.263 -456.162)" fill="#3f3d56"/>
    <path id="Path_19143" data-name="Path 19143" d="M568.278,662.364a2.627,2.627,0,0,0,1.434-4.974,6.441,6.441,0,0,0-1.347,3.547Z" transform="translate(-405.385 -468.954)" fill="#3f3d56"/>
    <path id="Path_19144" data-name="Path 19144" d="M651.813,628.524l3.107,4.619,0-2.175-1.644-2.443Z" transform="translate(-464.975 -448.362)" fill="#f2f2f2"/>
    <path id="Path_19145" data-name="Path 19145" d="M683.255,628.542l2.392,3.555v-2.175l-.927-1.378Z" transform="translate(-487.405 -448.375)" fill="#f2f2f2"/>
    <path id="Path_19146" data-name="Path 19146" d="M637.649,628.518l3.229,4.8h1.465l-3.229-4.8Z" transform="translate(-454.871 -448.358)" fill="#f2f2f2"/>
    <path id="Path_19147" data-name="Path 19147" d="M380.382.3l-.033.018a2.451,2.451,0,0,1-2.337.008L377.95.294A2.463,2.463,0,0,0,375.616.3l-.031.017a2.451,2.451,0,0,1-2.337.008l-.064-.034a2.448,2.448,0,0,0-2.311,0c-1.087.585-2.557,1.586-2.55,2.717,0,.045,0,.089.007.134.126,1.174,3.955,1.473,6.059.92a10.709,10.709,0,0,0,4.764,0c2.095.562,6,.24,6.116-.947a1.306,1.306,0,0,0,.006-.134c-.007-1.131-1.489-2.121-2.583-2.7A2.446,2.446,0,0,0,380.382.3Z" transform="translate(-262.745)" fill="#e6e6e6"/>
    <path id="Path_19148" data-name="Path 19148" d="M748.382,135.517l-.033.018a2.451,2.451,0,0,1-2.337.008l-.062-.033a2.463,2.463,0,0,0-2.334.008l-.031.017a2.451,2.451,0,0,1-2.337.008l-.064-.034a2.448,2.448,0,0,0-2.312,0c-1.087.585-2.557,1.586-2.55,2.717,0,.045,0,.089.008.134.126,1.174,3.955,1.473,6.059.92a10.709,10.709,0,0,0,4.764,0c2.094.562,6,.24,6.116-.947a1.324,1.324,0,0,0,.006-.134c-.007-1.131-1.489-2.121-2.583-2.7A2.446,2.446,0,0,0,748.382,135.517Z" transform="translate(-525.26 -96.457)" fill="#e6e6e6"/>
    <path id="Path_19149" data-name="Path 19149" d="M103.952,143.065l-.033.018a2.451,2.451,0,0,1-2.337.008l-.062-.033a2.464,2.464,0,0,0-2.335.008l-.031.017a2.451,2.451,0,0,1-2.337.008l-.064-.034a2.448,2.448,0,0,0-2.311,0c-1.087.585-2.557,1.586-2.55,2.717a1.305,1.305,0,0,0,.008.134c.126,1.174,3.955,1.473,6.058.92a10.709,10.709,0,0,0,4.764,0c2.095.562,6,.24,6.116-.947a1.306,1.306,0,0,0,.006-.134c-.006-1.131-1.489-2.121-2.583-2.7A2.446,2.446,0,0,0,103.952,143.065Z" transform="translate(-65.552 -101.842)" fill="#e6e6e6"/>
    <rect id="Rectangle_465" data-name="Rectangle 465" width="5.124" height="0.813" transform="translate(26.451 208.298)" fill="#3f3d56"/>
    <path id="Path_19150" data-name="Path 19150" d="M134.113,677.779l-1.057.245-40.178.021-.361-.842a8.5,8.5,0,0,1-.625-4.594,3.575,3.575,0,0,1,1.591-2.819l1.783-11.876,22.229-.04,8.6,6.936s4.057-.073,6.261,2.671a6.44,6.44,0,0,1,1.347,3.547l.087,1.427Z" transform="translate(-65.491 -469.299)" fill="#ec5e04"/>
    <circle id="Ellipse_143" data-name="Ellipse 143" cx="4.961" cy="4.961" r="4.961" transform="translate(54.836 203.32)" fill="#3f3d56"/>
    <circle id="Ellipse_144" data-name="Ellipse 144" cx="2.611" cy="2.611" r="2.611" transform="translate(57.186 205.67)" fill="#ccc"/>
    <circle id="Ellipse_145" data-name="Ellipse 145" cx="4.961" cy="4.961" r="4.961" transform="translate(29.89 203.846) rotate(-5.655)" fill="#3f3d56"/>
    <circle id="Ellipse_146" data-name="Ellipse 146" cx="2.611" cy="2.611" r="2.611" transform="translate(32.705 205.683)" fill="#ccc"/>
    <path id="Path_19151" data-name="Path 19151" d="M159.827,667.308l-12,.005H146.36l-2.473,0v-.181l0-2.175,0-2.442h1.646l1.465,0,2.595,0h1.465l3,0Z" transform="translate(-102.64 -472.607)" fill="#fff"/>
    <path id="Path_19152" data-name="Path 19152" d="M121.288,667.335l-6.343,0,0-1.245v-2.175l0-1.378h.929l1.465,0,3.951,0Z" transform="translate(-81.995 -472.625)" fill="#fff"/>
    <rect id="Rectangle_466" data-name="Rectangle 466" width="0.813" height="1.545" transform="translate(41.248 198.287)" fill="#3f3d56"/>
    <rect id="Rectangle_467" data-name="Rectangle 467" width="1.545" height="0.813" transform="translate(53.935 196.084)" fill="#3f3d56"/>
    <path id="Path_19153" data-name="Path 19153" d="M190.143,673.457h.089a1.7,1.7,0,0,1,1.7,1.7h0a1.7,1.7,0,0,1-1.7,1.7h-.089v-3.4Z" transform="translate(-135.64 -480.415)" fill="#3f3d56"/>
    <path id="Path_19154" data-name="Path 19154" d="M231.024,696.365a2.627,2.627,0,0,1-1.434-4.974,6.44,6.44,0,0,1,1.347,3.547Z" transform="translate(-162.726 -493.208)" fill="#3f3d56"/>
    <path id="Path_19155" data-name="Path 19155" d="M147,662.524l-3.107,4.619,0-2.175,1.644-2.442Z" transform="translate(-102.644 -472.616)" fill="#f2f2f2"/>
    <path id="Path_19156" data-name="Path 19156" d="M117.34,662.543l-2.392,3.555v-2.175l.927-1.378Z" transform="translate(-81.999 -472.63)" fill="#f2f2f2"/>
    <path id="Path_19157" data-name="Path 19157" d="M157.218,662.518l-3.229,4.8h-1.465l3.229-4.8Z" transform="translate(-108.804 -472.612)" fill="#f2f2f2"/>
    <path id="Path_19158" data-name="Path 19158" d="M720.941,494.372l-6.263-8.052,3.642-2.833,2.965,3.813L731.3,476.725l3.35,3.174Z" transform="translate(-509.821 -340.075)" fill="#fff"/>
    <path id="Path_19159" data-name="Path 19159" d="M6.34,480.325H55.386v36.113h-.03v7.19l-7.19-7.19H6.34Z" transform="translate(-4.523 -342.643)" fill="#ec5e04"/>
    <path id="Path_19160" data-name="Path 19160" d="M71.455,529.25,65.192,521.2l3.642-2.833,2.965,3.813L81.818,511.6l3.35,3.173Z" transform="translate(-46.505 -364.956)" fill="#fff"/>
  </g>
</svg>
