<svg xmlns="http://www.w3.org/2000/svg" width="431.919" height="224" viewBox="0 0 431.919 224"><g transform="translate(0 0.004)"><path d="M200.631,362.273l-10.639-16.885,10.644,18.724.006,1.924q1.139-.013,2.254-.087l-.868-24.715.012-.191-.019-.036-.083-2.336,11.124-18.505-11.136,16.757-.033.495-.656-18.673L210.8,299.6l-9.638,15.865-.448-38.7,0-.128v.126l-.218,30.516-9.138-12.21L200.5,309.9l.042,16.714-8.479-16.142,8.484,18.6.023,9.294-12.317-22.475,12.327,25.718Z" transform="translate(-96.688 -142.081)" fill="#e2e2e2"/><path d="M388.343,362.273,377.7,345.388l10.645,18.724.006,1.924q1.138-.013,2.254-.087l-.868-24.715.011-.191-.019-.036-.083-2.336,11.125-18.505-11.136,16.757-.034.495-.656-18.673,9.564-19.147-9.638,15.865-.448-38.7,0-.128v.126l-.218,30.516-9.139-12.21,9.147,14.838.043,16.714-8.479-16.142,8.484,18.6.024,9.294-12.317-22.476,12.326,25.718Z" transform="translate(-193.098 -142.081)" fill="#e2e2e2"/><path d="M16.374,389.637,8.691,377.445l7.687,13.52,0,1.39q.822-.01,1.628-.063l-.627-17.846.008-.138-.014-.026-.059-1.686,8.033-13.363-8.042,12.1-.024.357L16.811,358.2l6.906-13.825-6.96,11.456-.324-27.948v0l-.158,22.035-6.6-8.817,6.6,10.715.031,12.068-6.123-11.656,6.126,13.43.017,6.711-8.894-16.23,8.9,18.571Z" transform="translate(-3.819 -168.359)" fill="#e2e2e2"/><path d="M844.875,362.273l-10.639-16.885,10.644,18.724.006,1.924q1.139-.013,2.254-.087l-.868-24.715.012-.191-.02-.036-.082-2.336,11.124-18.505L846.17,336.922l-.033.495-.656-18.673,9.563-19.147-9.638,15.865-.448-38.7,0-.128v.126l-.218,30.516-9.138-12.21,9.147,14.838.042,16.714-8.479-16.142,8.484,18.6.023,9.294L832.5,315.889l12.327,25.718Z" transform="translate(-427.575 -142.081)" fill="#e2e2e2"/><rect width="57.395" height="2.432" transform="translate(128.756 192.268)" fill="#ec5e04"/><rect width="57.395" height="2.432" transform="translate(125.837 189.836)" fill="#ec5e04"/><rect width="57.395" height="2.432" transform="translate(129.242 187.404)" fill="#ec5e04"/><rect width="57.395" height="2.432" transform="translate(135.079 184.972)" fill="#ec5e04"/><rect width="1.993" height="14.149" transform="translate(86.244 174.225)" fill="#3f3d56"/><rect width="79.585" height="1.993" transform="translate(86.24 174.045) rotate(-22.092)" fill="#3f3d56"/><rect width="17.337" height="6.775" transform="translate(49.378 202.721)" fill="#3f3d56"/><rect width="85.489" height="7.572" transform="translate(50.973 208.699)" fill="#3f3d56"/><path d="M133.68,409.612h20.525V383.806H138.861l-5.181,13.015Z" transform="translate(-68.659 -197.127)" fill="#e2e2e2"/><rect width="8.768" height="8.768" transform="translate(73.59 188.274)" fill="#fff"/><path d="M137.777,396.057h5.58v-8.768h-2.392Z" transform="translate(-70.763 -198.916)" fill="#fff"/><rect width="1.993" height="3.786" transform="translate(79.967 202.023)" fill="#3f3d56"/><path d="M143.662,402.546h-.1a1.893,1.893,0,0,1-1.893-1.893h0a1.893,1.893,0,0,1,1.893-1.893h.1v3.786Z" transform="translate(-72.762 -204.807)" fill="#3f3d56"/><path d="M296.07,432.864h-.1a1.893,1.893,0,0,1-1.893-1.893h0a1.893,1.893,0,0,1,1.893-1.893h.1v3.786Z" transform="translate(-151.039 -220.379)" fill="#3f3d56"/><path d="M105.088,418.237a9.858,9.858,0,0,0-7.663,3.815H93.53l3.786-10.547,17.636-3.478-.5,14.025h-1.7A9.859,9.859,0,0,0,105.088,418.237Z" transform="translate(-48.037 -209.567)" fill="#e2e2e2"/><circle cx="8.668" cy="8.668" r="8.668" transform="translate(48.183 206.308)" fill="#3f3d56"/><circle cx="4.562" cy="4.562" r="4.562" transform="translate(52.289 210.414)" fill="#e2e2e2"/><circle cx="7.572" cy="7.572" r="7.572" transform="translate(127.594 208.4)" fill="#3f3d56"/><circle cx="3.985" cy="3.985" r="3.985" transform="translate(131.181 211.987)" fill="#e2e2e2"/><rect width="4.185" height="30.19" transform="translate(84.949 183.092)" fill="#3f3d56"/><rect width="60.181" height="1.793" transform="translate(84.949 207.803)" fill="#3f3d56"/><rect width="1.993" height="0.797" transform="translate(69.704 197.54)" fill="#3f3d56"/><path d="M324.339,372.47a.2.2,0,0,1-.051-.155l2.748-25.989a.2.2,0,0,1,.2-.178h0a.2.2,0,0,1,.2.177l2.972,25.935a.2.2,0,0,1-.176.22h-.02l-5.721.054h0A.2.2,0,0,1,324.339,372.47Zm2.9-24.3-2.535,23.968,5.276-.05Z" transform="translate(-166.556 -177.785)" fill="#3f3d56"/><path d="M99.976,415.494l.093.035a1.893,1.893,0,0,1,1.1,2.44h0a1.894,1.894,0,0,1-2.441,1.1l-.093-.035h0l1.34-3.541Z" transform="translate(-50.66 -213.402)" fill="#3f3d56"/><rect width="1.993" height="29.094" transform="translate(159.777 144.134)" fill="#3f3d56"/><circle cx="2.79" cy="2.79" r="2.79" transform="translate(84.451 171.833)" fill="#3f3d56"/><rect width="57.395" height="2.432" transform="translate(91.303 205.4)" fill="#ec5e04"/><rect width="57.395" height="2.432" transform="translate(94.708 202.968)" fill="#ec5e04"/><rect width="57.395" height="2.432" transform="translate(92.276 201.023)" fill="#ec5e04"/><rect width="57.395" height="2.432" transform="translate(95.681 198.591)" fill="#ec5e04"/><path d="M374.47,120.566a7.586,7.586,0,0,1,4.979,1.855,7.589,7.589,0,0,1,3.35-.147,7.617,7.617,0,0,1,13.889,4.323H367.019A7.619,7.619,0,0,1,374.47,120.566Z" transform="translate(-188.503 -61.11)" fill="#e2e2e2"/><path d="M283.134,170.005a7.171,7.171,0,0,1,4.707,1.754,7.182,7.182,0,0,1,3.167-.139,7.2,7.2,0,0,1,13.131,4.087H276.09A7.2,7.2,0,0,1,283.134,170.005Z" transform="translate(-141.801 -86.547)" fill="#e2e2e2"/><path d="M191.085,88.549a7.461,7.461,0,0,1,4.9,1.825,7.468,7.468,0,0,1,3.3-.145,7.492,7.492,0,0,1,13.662,4.252H183.756A7.5,7.5,0,0,1,191.085,88.549Z" transform="translate(-94.378 -44.679)" fill="#e2e2e2"/><path d="M595,167.89v60.753h23.626v-61.6l-5.485.2V154.811h-3.978l-.655-27.532c1.605-1.046,2.735-3.53,2.735-6.431a10.56,10.56,0,0,0-.289-2.473,5.058,5.058,0,0,0,.545-6.161,5.062,5.062,0,0,0,6.662-7.624c-.034-.029-.068-.058-.1-.087a5.063,5.063,0,1,0-6.816-4.751c0,.074,0,.148.005.221a5.066,5.066,0,0,0-6.488,4.077,5.063,5.063,0,1,0-3.641,9.3c0,.037,0,.073,0,.11a24.626,24.626,0,0,0,1.788,4.1,10.23,10.23,0,0,0-.522,3.281c0,2.9,1.13,5.385,2.735,6.431l-.656,27.532h-3.978v12.883Zm14.753-58.012h.013c.073,0,.145,0,.217-.006q.069.225.157.44a5.045,5.045,0,0,0-.387-.434Z" transform="translate(-305.594 -48.635)" fill="#e2e2e2"/><rect width="71.723" height="82.974" transform="translate(276.396 140.28)" fill="#3f3d56"/><rect width="19.337" height="16.876" transform="translate(302.589 206.377)" fill="#e2e2e2"/><path d="M512.051,31.105c0,.061,0,.122,0,.183a8.412,8.412,0,0,0,2.558,6.05,8.446,8.446,0,0,0,.422.788,17.049,17.049,0,0,0-.871,5.468c0,6.408,3.305,11.6,7.383,11.6s7.383-5.195,7.383-11.6a17.58,17.58,0,0,0-.481-4.121,8.432,8.432,0,0,0,.908-10.269,8.437,8.437,0,1,0,11.1-12.706q-.084-.073-.169-.144a8.439,8.439,0,1,0-11.36-7.918c0,.124,0,.246.009.368a8.445,8.445,0,0,0-10.813,6.8,8.438,8.438,0,1,0-6.068,15.506Zm14.41-5.793c.122,0,.243,0,.363-.009q.113.374.261.733a8.431,8.431,0,0,0-.646-.724Z" transform="translate(-259.557 0)" fill="#e2e2e2"/><path d="M529.941,169.658h8.439l-.3-12.656v0l-1.1-46.407a5.4,5.4,0,0,1-5.628,0L530.243,157v0Z" transform="translate(-272.18 -56.802)" fill="#ec5e04"/><path d="M498.141,227.805V329.063h39.374V226.4l-9.14.326V206.01H507.28V227.48Z" transform="translate(-255.847 -105.81)" fill="#ec5e04"/><path d="M718.781,31.105c0,.061,0,.122,0,.183a8.411,8.411,0,0,0,2.558,6.05,8.361,8.361,0,0,0,.422.788,17.04,17.04,0,0,0-.871,5.468c0,6.408,3.306,11.6,7.383,11.6s7.383-5.195,7.383-11.6a17.576,17.576,0,0,0-.481-4.121,8.432,8.432,0,0,0,.908-10.269,8.437,8.437,0,1,0,11.1-12.706c-.055-.049-.112-.1-.169-.144a8.439,8.439,0,1,0-11.36-7.918c0,.124,0,.246.009.368a8.445,8.445,0,0,0-10.813,6.8,8.438,8.438,0,1,0-6.068,15.506Zm14.41-5.793c.122,0,.243,0,.363-.009q.114.374.261.733a8.333,8.333,0,0,0-.645-.724Z" transform="translate(-365.735 0)" fill="#e2e2e2"/><path d="M736.674,169.66h8.438l-1.406-59.066a8.319,8.319,0,0,1-5.625,0Z" transform="translate(-378.359 -56.804)" fill="#ec5e04"/><path d="M704.871,227.805V329.063H744.25V226.4l-3.234.117-5.91.209V206.01H714.01V227.48Z" transform="translate(-362.025 -105.81)" fill="#ec5e04"/><rect width="9.728" height="9.728" transform="translate(322.958 150.294)" fill="#fff"/><rect width="9.728" height="9.728" transform="translate(307.394 150.294)" fill="#fff"/><rect width="9.728" height="9.728" transform="translate(291.829 150.294)" fill="#fff"/><rect width="9.728" height="9.728" transform="translate(322.958 165.859)" fill="#fff"/><rect width="9.728" height="9.728" transform="translate(307.394 165.859)" fill="#fff"/><rect width="9.728" height="9.728" transform="translate(291.829 165.859)" fill="#fff"/><rect width="9.728" height="9.728" transform="translate(322.958 181.423)" fill="#fff"/><rect width="9.728" height="9.728" transform="translate(307.394 181.423)" fill="#fff"/><rect width="9.728" height="9.728" transform="translate(291.829 181.423)" fill="#fff"/><rect width="9.728" height="9.728" transform="translate(257.117 146.403)" fill="#fff"/><rect width="9.728" height="9.728" transform="translate(257.117 161.967)" fill="#fff"/><rect width="9.728" height="9.728" transform="translate(257.117 177.532)" fill="#fff"/><rect width="9.728" height="9.728" transform="translate(257.117 193.097)" fill="#fff"/><rect width="9.728" height="9.728" transform="translate(357.589 146.403)" fill="#fff"/><rect width="9.728" height="9.728" transform="translate(357.589 161.967)" fill="#fff"/><rect width="9.728" height="9.728" transform="translate(357.589 177.532)" fill="#fff"/><rect width="9.728" height="9.728" transform="translate(357.589 193.097)" fill="#fff"/><rect width="431.919" height="0.973" transform="translate(0 222.911)" fill="#3f3d56"/></g></svg>