<svg id="Layer_1" data-name="Layer 1" xmlns="http://www.w3.org/2000/svg" viewBox="0 0 431.92 224"><defs><style>.cls-1{fill:#e2e2e2;}.cls-2{fill:#ec5e04;}.cls-3{fill:#3f3d56;}.cls-4{fill:#fff;}</style></defs><path class="cls-1" d="M103.94,220.2,93.3,203.31,104,222V224c.76,0,1.51,0,2.26-.09l-.87-24.71V199l0,0-.08-2.34,11.12-18.5-11.13,16.76,0,.49-.65-18.67,9.56-19.15-9.64,15.87-.44-38.7v0l-.22,30.51L94.67,153l9.14,14.83,0,16.72-8.47-16.15,8.48,18.6,0,9.3L91.56,173.81l12.33,25.72Z" transform="translate(0 0)"/><path class="cls-1" d="M195.24,220.2,184.6,203.31,195.25,222V224c.76,0,1.51,0,2.26-.09l-.87-24.71V199l0,0-.08-2.34,11.12-18.5-11.13,16.76,0,.49-.65-18.67,9.56-19.15-9.64,15.87-.45-38.7v0l-.21,30.52L186,153l9.14,14.84,0,16.71-8.48-16.14,8.48,18.6,0,9.29-12.32-22.47,12.33,25.72Z" transform="translate(0 0)"/><path class="cls-1" d="M12.56,221.28,4.87,209.09l7.69,13.52V224c.55,0,1.09,0,1.63-.06l-.63-17.85V206l0,0-.06-1.69,8-13.36-8,12.1,0,.36L13,189.85,19.9,176l-7,11.46-.33-27.95h0l-.15,22-6.6-8.81,6.6,10.71,0,12.07L6.36,183.87l6.13,13.43,0,6.71-8.9-16.23,8.9,18.57Z" transform="translate(0 0)"/><path class="cls-1" d="M417.3,220.2l-10.64-16.89L417.3,222V224c.76,0,1.51,0,2.26-.09l-.87-24.71V199l0,0-.08-2.34,11.12-18.5-11.14,16.76,0,.49-.65-18.67,9.56-19.15-9.64,15.86-.45-38.7v0l-.22,30.52L408,153l9.14,14.84.05,16.71-8.48-16.14,8.48,18.6,0,9.29-12.32-22.48,12.33,25.72Z" transform="translate(0 0)"/><rect class="cls-2" x="128.76" y="192.27" width="57.4" height="2.43"/><rect class="cls-2" x="125.84" y="189.84" width="57.4" height="2.43"/><rect class="cls-2" x="129.24" y="187.41" width="57.4" height="2.43"/><rect class="cls-2" x="135.08" y="184.98" width="57.4" height="2.43"/><rect class="cls-3" x="86.24" y="174.23" width="1.99" height="14.15"/><rect class="cls-3" x="83.69" y="159.01" width="79.58" height="1.99" transform="translate(-51.11 58.19) rotate(-22.09)"/><rect class="cls-3" x="49.38" y="202.73" width="17.34" height="6.78"/><rect class="cls-3" x="50.97" y="208.7" width="85.49" height="7.57"/><path class="cls-1" d="M65,212.49H85.55V186.68H70.2L65,199.7Z" transform="translate(0 0)"/><rect class="cls-4" x="73.59" y="188.28" width="8.77" height="8.77"/><path class="cls-4" d="M67,197.15h5.58v-8.77H70.2Z" transform="translate(0 0)"/><rect class="cls-3" x="79.97" y="202.03" width="1.99" height="3.79"/><path class="cls-3" d="M70.9,197.74h-.1a1.88,1.88,0,0,1-1.89-1.89h0A1.88,1.88,0,0,1,70.8,194h.1Z" transform="translate(0 0)"/><path class="cls-3" d="M145,212.49h-.1A1.89,1.89,0,0,1,143,210.6h0a1.9,1.9,0,0,1,1.89-1.9h.1Z" transform="translate(0 0)"/><path class="cls-1" d="M57.05,208.67a9.87,9.87,0,0,0-7.66,3.82h-3.9l3.79-10.55,17.64-3.48-.5,14h-1.7A9.91,9.91,0,0,0,57.05,208.67Z" transform="translate(0 0)"/><circle class="cls-3" cx="56.85" cy="214.98" r="8.67"/><circle class="cls-1" cx="56.85" cy="214.98" r="4.56"/><circle class="cls-3" cx="135.17" cy="215.98" r="7.57"/><circle class="cls-1" cx="135.17" cy="215.98" r="3.98"/><rect class="cls-3" x="84.95" y="183.1" width="4.18" height="30.19"/><rect class="cls-3" x="84.95" y="207.81" width="60.18" height="1.79"/><rect class="cls-3" x="69.7" y="197.54" width="1.99" height="0.8"/><path class="cls-3" d="M157.78,194.69a.22.22,0,0,1-.05-.16l2.75-26a.2.2,0,0,1,.2-.17h0a.2.2,0,0,1,.2.17l3,25.94a.19.19,0,0,1-.17.22h0l-5.73.05h0A.22.22,0,0,1,157.78,194.69Zm2.9-24.3-2.53,24,5.27-.05Z" transform="translate(0 0)"/><path class="cls-3" d="M49.32,202.1l.09,0a1.89,1.89,0,0,1,1.1,2.44h0a1.89,1.89,0,0,1-2.44,1.1l-.1,0h0l1.34-3.54Z" transform="translate(0 0)"/><rect class="cls-3" x="159.78" y="144.14" width="1.99" height="29.09"/><circle class="cls-3" cx="87.24" cy="174.63" r="2.79"/><rect class="cls-2" x="91.3" y="205.4" width="57.4" height="2.43"/><rect class="cls-2" x="94.71" y="202.97" width="57.4" height="2.43"/><rect class="cls-2" x="92.28" y="201.03" width="57.4" height="2.43"/><rect class="cls-2" x="95.68" y="198.6" width="57.4" height="2.43"/><path class="cls-1" d="M186,59.46a7.61,7.61,0,0,1,5,1.86,7.58,7.58,0,0,1,3.35-.15,7.62,7.62,0,0,1,13.89,4.32H178.52A7.61,7.61,0,0,1,186,59.46Z" transform="translate(0 0)"/><path class="cls-1" d="M141.33,83.46A7.16,7.16,0,0,1,146,85.22a7.07,7.07,0,0,1,3.17-.14,7.2,7.2,0,0,1,13.13,4.08H134.29A7.2,7.2,0,0,1,141.33,83.46Z" transform="translate(0 0)"/><path class="cls-1" d="M96.71,43.87a7.48,7.48,0,0,1,4.9,1.83,7.5,7.5,0,0,1,3.3-.15,7.49,7.49,0,0,1,13.66,4.26H89.38A7.51,7.51,0,0,1,96.71,43.87Z" transform="translate(0 0)"/><path class="cls-1" d="M289.41,119.26V180H313v-61.6l-5.48.2V106.18h-4l-.66-27.53c1.61-1.05,2.74-3.53,2.74-6.43a10.85,10.85,0,0,0-.29-2.48,5,5,0,0,0,.54-6.16A5.06,5.06,0,1,0,312.57,56h0l-.1-.09a5.06,5.06,0,1,0-6.82-4.75,1.55,1.55,0,0,0,0,.22,5.07,5.07,0,0,0-6.33,3.37,4.29,4.29,0,0,0-.16.71,5.06,5.06,0,1,0-5.2,8.69,5.12,5.12,0,0,0,1.56.61v.11a24.48,24.48,0,0,0,1.79,4.1,10.19,10.19,0,0,0-.53,3.28c0,2.9,1.13,5.39,2.74,6.43l-.66,27.53h-4v12.89Zm14.75-58h.23a3.29,3.29,0,0,0,.16.44,4,4,0,0,0-.39-.43Z" transform="translate(0 0)"/><rect class="cls-3" x="276.4" y="140.28" width="71.72" height="82.97"/><rect class="cls-1" x="302.59" y="206.38" width="19.34" height="16.88"/><path class="cls-1" d="M252.49,31.11v.18a8.4,8.4,0,0,0,2.56,6.05c.13.27.27.53.42.79a17.2,17.2,0,0,0-.87,5.47c0,6.41,3.31,11.6,7.39,11.6s7.38-5.2,7.38-11.6a17.84,17.84,0,0,0-.48-4.12,8.45,8.45,0,0,0,.91-10.27,8.44,8.44,0,0,0,11.31-12.52l-.21-.19-.17-.14a8.44,8.44,0,1,0-11.36-7.92c0,.12,0,.25,0,.37a8.46,8.46,0,0,0-10.55,5.61,8.18,8.18,0,0,0-.27,1.19,8.43,8.43,0,1,0-6.07,15.5Zm14.41-5.79h.37a6.34,6.34,0,0,0,.26.73,7.41,7.41,0,0,0-.65-.72Z" transform="translate(0 0)"/><path class="cls-2" d="M257.76,112.86h8.44l-.3-12.66h0l-1.1-46.4a5.43,5.43,0,0,1-5.63,0l-1.11,46.4h0Z" transform="translate(0 0)"/><path class="cls-2" d="M242.29,122V223.26h39.38V120.59l-9.14.33V100.2h-21.1v21.47Z" transform="translate(0 0)"/><path class="cls-1" d="M353.05,31.11v.18a8.39,8.39,0,0,0,2.55,6.05,7.52,7.52,0,0,0,.43.79,16.93,16.93,0,0,0-.87,5.47c0,6.41,3.3,11.6,7.38,11.6s7.38-5.2,7.38-11.6a17.84,17.84,0,0,0-.48-4.12,8.44,8.44,0,0,0,.91-10.27,8.44,8.44,0,0,0,11.31-12.52l-.21-.19-.17-.14a8.44,8.44,0,1,0-11.36-7.92c0,.12,0,.25,0,.37a8.44,8.44,0,0,0-10.54,5.61,9.78,9.78,0,0,0-.28,1.19,8.43,8.43,0,1,0-6.06,15.5Zm14.41-5.79h.36a6.34,6.34,0,0,0,.26.73,7.41,7.41,0,0,0-.65-.72Z" transform="translate(0 0)"/><path class="cls-2" d="M358.32,112.86h8.43l-1.4-59.07a8.25,8.25,0,0,1-5.63,0Z" transform="translate(0 0)"/><path class="cls-2" d="M342.85,122V223.26h39.38V120.59l-3.24.12-5.91.21V100.2H352v21.47Z" transform="translate(0 0)"/><rect class="cls-4" x="322.96" y="150.3" width="9.73" height="9.73"/><rect class="cls-4" x="307.39" y="150.3" width="9.73" height="9.73"/><rect class="cls-4" x="291.83" y="150.3" width="9.73" height="9.73"/><rect class="cls-4" x="322.96" y="165.86" width="9.73" height="9.73"/><rect class="cls-4" x="307.39" y="165.86" width="9.73" height="9.73"/><rect class="cls-4" x="291.83" y="165.86" width="9.73" height="9.73"/><rect class="cls-4" x="322.96" y="181.43" width="9.73" height="9.73"/><rect class="cls-4" x="307.39" y="181.43" width="9.73" height="9.73"/><rect class="cls-4" x="291.83" y="181.43" width="9.73" height="9.73"/><rect class="cls-4" x="257.12" y="146.41" width="9.73" height="9.73"/><rect class="cls-4" x="257.12" y="161.97" width="9.73" height="9.73"/><rect class="cls-4" x="257.12" y="177.54" width="9.73" height="9.73"/><rect class="cls-4" x="257.12" y="193.1" width="9.73" height="9.73"/><rect class="cls-4" x="357.59" y="146.41" width="9.73" height="9.73"/><rect class="cls-4" x="357.59" y="161.97" width="9.73" height="9.73"/><rect class="cls-4" x="357.59" y="177.54" width="9.73" height="9.73"/><rect class="cls-4" x="357.59" y="193.1" width="9.73" height="9.73"/><rect class="cls-3" y="222.92" width="431.92" height="0.97"/></svg>