<svg xmlns="http://www.w3.org/2000/svg" width="266.484" height="182" viewBox="0 0 266.484 182"><path d="M354.324,147.141H321.269v-7.149a1.71,1.71,0,0,0-1.71-1.71h-9.707v-7.615a1.076,1.076,0,0,0-1.077-1.077h-12.5a1.076,1.076,0,0,0-1.077,1.077v7.618H283.785a1.71,1.71,0,0,0-1.71,1.71h0v7.149h-31.52a.348.348,0,0,0-.345.348v94.9a.348.348,0,0,0,.345.348H271.5a.348.348,0,0,0,.348-.348V229.627a.35.35,0,0,1,.348-.348h8.849a.35.35,0,0,1,.348.348V242.4a.348.348,0,0,0,.345.348h41.394a.35.35,0,0,0,.348-.348V229.627a.348.348,0,0,1,.345-.348h8.849a.348.348,0,0,1,.348.348V242.4a.35.35,0,0,0,.348.348h20.948a.35.35,0,0,0,.348-.348V147.489A.35.35,0,0,0,354.324,147.141Zm-86.223,77.7a.345.345,0,0,1-.345.345H254.817a.345.345,0,0,1-.348-.343v-4.409a.348.348,0,0,1,.348-.348h12.946a.348.348,0,0,1,.345.348Zm0-11.419a.345.345,0,0,1-.342.348H254.817a.345.345,0,0,1-.348-.343v-4.422a.345.345,0,0,1,.343-.348h12.951a.345.345,0,0,1,.345.345v0Zm0-11.417a.348.348,0,0,1-.345.348H254.817a.348.348,0,0,1-.348-.348h0V197.59a.348.348,0,0,1,.348-.348h12.946a.348.348,0,0,1,.345.348Zm0-11.419a.345.345,0,0,1-.342.348H254.817a.345.345,0,0,1-.348-.343v-4.409a.345.345,0,0,1,.343-.348h12.951a.345.345,0,0,1,.345.345v0Zm0-11.417a.348.348,0,0,1-.345.348H254.817a.348.348,0,0,1-.348-.348h0v-4.419a.345.345,0,0,1,.345-.345h12.949a.345.345,0,0,1,.345.345Zm0-11.417a.345.345,0,0,1-.345.345H254.817a.345.345,0,0,1-.348-.343v-4.422a.348.348,0,0,1,.348-.348h12.946a.348.348,0,0,1,.345.348Zm0-11.419a.345.345,0,0,1-.342.348H254.817a.345.345,0,0,1-.348-.342v-4.409a.345.345,0,0,1,.343-.348h12.951a.345.345,0,0,1,.345.345v0Zm30.675,68.5a.345.345,0,0,1-.345.345H285.49a.348.348,0,0,1-.348-.345v-4.4a.35.35,0,0,1,.348-.348h12.939a.348.348,0,0,1,.348.348Zm0-11.419a.345.345,0,0,1-.342.348H285.49a.348.348,0,0,1-.348-.348v-4.414a.348.348,0,0,1,.348-.348h12.939a.345.345,0,0,1,.348.343v4.419Zm0-11.417a.348.348,0,0,1-.348.348H285.49a.35.35,0,0,1-.348-.348V197.59a.35.35,0,0,1,.348-.348h12.939a.348.348,0,0,1,.348.348Zm0-11.419a.345.345,0,0,1-.342.348H285.49a.348.348,0,0,1-.348-.348h0v-4.4a.348.348,0,0,1,.348-.348h12.939a.345.345,0,0,1,.348.343v4.406Zm0-11.417a.348.348,0,0,1-.348.348H285.49a.35.35,0,0,1-.348-.348v-4.417a.348.348,0,0,1,.348-.345h12.939a.345.345,0,0,1,.348.343v4.419Zm0-11.417a.345.345,0,0,1-.345.345H285.49a.348.348,0,0,1-.348-.345v-4.417a.35.35,0,0,1,.348-.348h12.939a.348.348,0,0,1,.348.348Zm0-11.419a.345.345,0,0,1-.342.348H285.49a.348.348,0,0,1-.348-.348h0v-4.4a.348.348,0,0,1,.348-.348h12.939a.345.345,0,0,1,.348.343v4.406Zm20.961,68.5a.345.345,0,0,1-.345.345H306.451a.347.347,0,0,1-.348-.345v-4.4a.35.35,0,0,1,.348-.348h12.939a.348.348,0,0,1,.348.348Zm0-11.419a.345.345,0,0,1-.343.348H306.451a.348.348,0,0,1-.348-.348v-4.412a.348.348,0,0,1,.348-.348h12.939a.345.345,0,0,1,.348.343v4.417Zm0-11.417a.348.348,0,0,1-.348.348H306.451A.35.35,0,0,1,306.1,202V197.59a.35.35,0,0,1,.348-.348h12.939a.348.348,0,0,1,.348.348Zm0-11.419a.345.345,0,0,1-.343.348H306.451a.348.348,0,0,1-.348-.348v-4.4a.348.348,0,0,1,.348-.348h12.939a.345.345,0,0,1,.348.343v4.4Zm0-11.417a.348.348,0,0,1-.348.348H306.451a.35.35,0,0,1-.348-.348v-4.414a.347.347,0,0,1,.348-.345h12.939a.345.345,0,0,1,.348.343v4.417Zm0-11.417a.345.345,0,0,1-.345.345H306.451a.348.348,0,0,1-.348-.345v-4.414a.35.35,0,0,1,.348-.348h12.939a.348.348,0,0,1,.348.348Zm0-11.419a.345.345,0,0,1-.343.348H306.451a.348.348,0,0,1-.348-.348v-4.4a.348.348,0,0,1,.348-.348h12.939a.345.345,0,0,1,.348.343v4.4Zm30.675,68.5a.348.348,0,0,1-.348.345H337.126a.345.345,0,0,1-.348-.343v-4.4a.348.348,0,0,1,.348-.348h12.939a.35.35,0,0,1,.348.348Zm0-11.419a.348.348,0,0,1-.348.348H337.126a.345.345,0,0,1-.348-.343v-4.414a.345.345,0,0,1,.343-.348h12.944a.348.348,0,0,1,.348.348Zm0-11.417a.35.35,0,0,1-.348.348H337.126a.348.348,0,0,1-.348-.348V197.59a.348.348,0,0,1,.348-.348h12.939a.35.35,0,0,1,.348.348Zm0-11.419a.348.348,0,0,1-.348.348H337.126a.345.345,0,0,1-.342-.34v-4.4a.345.345,0,0,1,.342-.348h12.944a.348.348,0,0,1,.348.348Zm0-11.417a.35.35,0,0,1-.348.348H337.126a.347.347,0,0,1-.348-.348v-4.412a.345.345,0,0,1,.345-.345h12.941a.348.348,0,0,1,.348.345Zm0-11.417a.348.348,0,0,1-.348.345H337.126a.345.345,0,0,1-.348-.343v-4.414a.348.348,0,0,1,.348-.348h12.939a.35.35,0,0,1,.348.348Zm0-11.419a.348.348,0,0,1-.348.348H337.126a.345.345,0,0,1-.342-.34v-4.4a.345.345,0,0,1,.342-.348h12.944a.348.348,0,0,1,.348.348Z" transform="translate(-185.772 -96.216)" fill="#f2f2f2"/><path d="M181.061,18.9l-4,2.534,2.426-4.414a3.953,3.953,0,0,0-2.416-.863h-.064a4.659,4.659,0,0,1-.829-.062l-1.355.858.579-1.056a4.807,4.807,0,0,1-2.369-1.8l-2.423,1.545,1.53-2.784a7.089,7.089,0,0,0-5.431-2.745,7.445,7.445,0,0,0-6.217,3.835,4.636,4.636,0,0,1-4.121,2.215h-.134c-2.784,0-5.04,3.157-5.04,7.049s2.266,7.051,5.05,7.051a3.79,3.79,0,0,0,1.754-.44,7.265,7.265,0,0,1,6.1-.118,6.352,6.352,0,0,0,5.187,0,7.27,7.27,0,0,1,6.044.118,3.79,3.79,0,0,0,1.738.44c2.784,0,5.04-3.157,5.04-7.051A8.936,8.936,0,0,0,181.061,18.9Z" transform="translate(-112.261 -7.506)" fill="#f2f2f2"/><path d="M173.558,55.7a7.441,7.441,0,0,0-4.319.469,6.358,6.358,0,0,1-5.184,0,7.282,7.282,0,0,0-6.1.118,3.76,3.76,0,0,1-1.756.44c-2.472,0-4.53-2.49-4.958-5.777a4.745,4.745,0,0,0,1.236-1.334,6.945,6.945,0,0,1,12.4-.041,4.759,4.759,0,0,0,4.108,2.256h.064C171.024,51.817,172.729,53.4,173.558,55.7Z" transform="translate(-112.29 -33.99)" opacity="0.03" style="isolation:isolate"/><path d="M771.23,4.386l-2,1.264,1.21-2.2a1.974,1.974,0,0,0-1.205-.43h-.031a2.215,2.215,0,0,1-.415-.031l-.675.43.288-.515a2.421,2.421,0,0,1-1.182-.9l-1.208.773.773-1.388A3.53,3.53,0,0,0,764.081,0a3.688,3.688,0,0,0-3.09,1.913,2.318,2.318,0,0,1-2.06,1.1h-.067c-1.388,0-2.514,1.574-2.514,3.515s1.125,3.515,2.514,3.515a1.888,1.888,0,0,0,.876-.219,3.626,3.626,0,0,1,3.041-.059,3.176,3.176,0,0,0,2.588,0,3.634,3.634,0,0,1,3.016.059,1.879,1.879,0,0,0,.865.214c1.388,0,2.514-1.574,2.514-3.515A4.475,4.475,0,0,0,771.23,4.386Z" transform="translate(-561.563)" fill="#f2f2f2"/><path d="M767.473,22.722a3.74,3.74,0,0,0-2.156.234,3.164,3.164,0,0,1-1.288.273,3.2,3.2,0,0,1-1.288-.278,3.631,3.631,0,0,0-3.044.059,1.877,1.877,0,0,1-.876.219c-1.234,0-2.259-1.241-2.472-2.882a2.379,2.379,0,0,0,.618-.664,3.461,3.461,0,0,1,6.181-.021,2.375,2.375,0,0,0,2.06,1.125h.034A2.584,2.584,0,0,1,767.473,22.722Z" transform="translate(-561.563 -13.194)" opacity="0.03" style="isolation:isolate"/><path d="M569.347,92.133,567,93.619l1.422-2.575a2.317,2.317,0,0,0-1.417-.515h-.039a2.777,2.777,0,0,1-.487-.036l-.793.515.34-.621a2.833,2.833,0,0,1-1.391-1.053l-1.422.9.9-1.633a4.159,4.159,0,0,0-3.186-1.612,4.369,4.369,0,0,0-3.647,2.251,2.719,2.719,0,0,1-2.411,1.288h-.08c-1.633,0-2.954,1.852-2.954,4.121s1.321,4.133,2.954,4.133a2.2,2.2,0,0,0,1.03-.258,4.265,4.265,0,0,1,3.577-.07,3.74,3.74,0,0,0,3.042,0,4.27,4.27,0,0,1,3.546.07,2.235,2.235,0,0,0,1.03.258c1.633,0,2.956-1.849,2.956-4.133A5.253,5.253,0,0,0,569.347,92.133Z" transform="translate(-409.722 -64.587)" fill="#f2f2f2"/><path d="M564.931,113.715a4.378,4.378,0,0,0-2.534.276,3.74,3.74,0,0,1-3.042,0,4.265,4.265,0,0,0-3.577.07,2.214,2.214,0,0,1-1.03.258c-1.45,0-2.658-1.46-2.908-3.387a2.771,2.771,0,0,0,.724-.773,4.08,4.08,0,0,1,7.278-.026,2.786,2.786,0,0,0,2.408,1.324h.028A3,3,0,0,1,564.931,113.715Z" transform="translate(-409.722 -80.119)" opacity="0.03" style="isolation:isolate"/><path d="M848.5,501.264c0,.443,0,.886-.028,1.324a31.309,31.309,0,0,1-.613,5.071c-1.692,8.269-6.577,14.7-12.714,16.6a12.7,12.7,0,0,1-3.77.574c-9.459,0-17.126-10.559-17.126-23.564s7.667-23.564,17.126-23.564c8.872,0,16.171,9.287,17.039,21.182C848.474,499.665,848.5,500.461,848.5,501.264Z" transform="translate(-604.552 -354.675)" fill="#36334a"/><path d="M884.855,518.932a31.349,31.349,0,0,1-.613,5.071c-1.692,8.27-6.578,14.7-12.715,16.6-4.752-2.186-8.277-10.381-8.277-20.157,0-11.45,4.842-20.732,10.816-20.732,5.014,0,9.233,6.547,10.456,15.429C884.692,516.357,884.8,517.629,884.855,518.932Z" transform="translate(-640.933 -371.017)" opacity="0.1" style="isolation:isolate"/><path d="M613.25,353.8s46.356-9.529,70.822-.773c0,0,3.606,1.8,0,4.893,0,0,3.41,3.605-2.544,4.893l-23.655,1.455-44.623-4.546Z" transform="translate(-455.316 -259.365)" fill="#3f3d56"/><path d="M644.75,360.307s39.689-8.159,60.637-.662c0,0,3.09,1.545,0,4.19,0,0,2.918,3.09-2.179,4.19l-20.253,1.244-38.205-3.886Z" transform="translate(-478.704 -264.671)" opacity="0.1" style="isolation:isolate"/><path d="M633.149,371.758l-3.09-6.181s1.355-6.253-9.658-8.092c-.61-2.727-3.376-4.785-6.7-4.785a6.694,6.694,0,0,0-6.649,4.584c-1.581.137-3.266.322-5.068.567l-2.519,13.505-.314-.628s1.6-7.386-12.815-8.465a5.363,5.363,0,0,0,1.226-3.381c0-3.273-3.057-5.923-6.825-5.923s-6.825,2.65-6.825,5.923a5.408,5.408,0,0,0,1.432,3.626q-2.022.193-4.265.494L568.25,378.2l13.134,1.8,20.86-3.09-1.847-3.7,11.89,1.633Z" transform="translate(-421.906 -261.867)" fill="#ec5e04"/><path d="M633.149,371.758l-3.09-6.181s1.355-6.253-9.658-8.092c-.61-2.727-3.376-4.785-6.7-4.785a6.694,6.694,0,0,0-6.649,4.584c-1.581.137-3.266.322-5.068.567l-2.519,13.505-.314-.628s1.6-7.386-12.815-8.465a5.363,5.363,0,0,0,1.226-3.381c0-3.273-3.057-5.923-6.825-5.923s-6.825,2.65-6.825,5.923a5.408,5.408,0,0,0,1.432,3.626q-2.022.193-4.265.494L568.25,378.2l13.134,1.8,20.86-3.09-1.847-3.7,11.89,1.633Z" transform="translate(-421.906 -261.867)" opacity="0.2" style="isolation:isolate"/><path d="M638.578,339.507s-2.06-11.558,7.469-11.816,6.438,16.74,6.438,16.74,7.211,1.545,7.726,4.378-24.981,3.605-24.981,3.605Z" transform="translate(-471.636 -243.297)" fill="#ec5e04"/><path d="M452.576,533.112c0,13.649-10.147,24.723-22.663,24.723s-22.663-11.074-22.663-24.723S417.523,506.2,430.042,506.2,452.576,519.458,452.576,533.112Z" transform="translate(-302.369 -375.836)" fill="#36334a"/><ellipse cx="18.027" cy="20.858" rx="18.027" ry="20.858" transform="translate(109.517 137.449)" opacity="0.1" style="isolation:isolate"/><ellipse cx="22.663" cy="24.723" rx="22.663" ry="24.723" transform="translate(5.215 130.233)" fill="#36334a"/><path d="M229.241,372.7s-10.559.515-10.044,6.181,9.014,1.545,9.014,1.545Z" transform="translate(-162.733 -276.717)" fill="#36334a"/><path d="M323.084,312.846l4.347-29.011s1.03-3.605-12.877-3.605c0,0-44.554-2.833-55.885,1.8,0,0-13.134,4.893-31.419,30.132C227.25,312.164,321.281,314.392,323.084,312.846Z" transform="translate(-168.725 -207.424)" fill="#3f3d56"/><path d="M335.145,291.7l-7.984,31.677-5.006-.121-23.693-.577-52.844-1.288c-.147-2.5,24.878-28.4,24.878-28.4Z" transform="translate(-182.362 -216.577)" fill="#36334a"/><path d="M450.84,353.854,453,345.51s-2.06-11.561,7.469-11.818,6.438,16.74,6.438,16.74,6.567,1.409,7.613,4Z" transform="translate(-334.733 -247.752)" fill="#ec5e04" opacity="0.2" style="isolation:isolate"/><path d="M244.079,437.837c-1.545-14.937-11.2-18.156-11.2-18.156-9.271-.515-15.452,34.767-15.452,34.767l-71.337,6.438s2.447-30-14.808-34.9-21.762,30.26-22.534,35.154S4.7,460.629,1.867,458.569s-1.8-21.891-1.03-23.436,2.833-8.5,2.833-8.5a14.267,14.267,0,0,1,1.452-5.21c.464-1.03.865-1.743.865-1.743,2.238-12.691,13.858-15.764,14.638-15.967h.041c3.09-3.09,31.677-5.151,31.677-5.151l10.816-2.06,87.941,1.728,3.742.075,44.708-2.15,30.235-1.455c6.953,0,10.559,17.512,10.559,17.512C246.783,427.665,244.079,437.837,244.079,437.837Z" transform="translate(0 -293.051)" fill="#3f3d56"/><ellipse cx="13.258" cy="8.3" rx="13.258" ry="8.3" transform="translate(80.602 119.168) rotate(-21.92)" opacity="0.1" style="isolation:isolate"/><ellipse cx="13.258" cy="8.3" rx="13.258" ry="8.3" transform="translate(80.087 118.137) rotate(-21.92)" fill="#f2f2f2"/><path d="M37.394,431.74a20.616,20.616,0,0,1-3.685,9.851c-3.675,5.542-8.715,8.805-11.818,7.85.464-1.03.865-1.743.865-1.743C24.993,435.006,36.613,431.933,37.394,431.74Z" transform="translate(-16.253 -320.552)" opacity="0.1" style="isolation:isolate"/><path d="M34.394,429.74a20.616,20.616,0,0,1-3.685,9.851c-3.675,5.542-8.715,8.805-11.818,7.85.464-1.03.865-1.744.865-1.744C21.993,433.006,33.613,429.933,34.394,429.74Z" transform="translate(-14.025 -319.067)" fill="#f2f2f2"/><path d="M157.625,451.523H137.28l-1.03-2.833h24.723Z" transform="translate(-101.161 -333.136)" fill="#36334a"/><rect width="33.48" height="9.786" transform="translate(18.349 139.247)" fill="#36334a"/><circle cx="4.636" cy="4.636" r="4.636" transform="translate(83.248 149.291)" opacity="0.1" style="isolation:isolate"/><circle cx="4.636" cy="4.636" r="4.636" transform="translate(82.733 148.518)" fill="#f2f2f2"/><ellipse cx="2.318" cy="4.893" rx="2.318" ry="4.893" transform="translate(1.352 145.428)" opacity="0.1" style="isolation:isolate"/><ellipse cx="2.318" cy="4.893" rx="2.318" ry="4.893" transform="translate(0.579 145.17)" fill="#f2f2f2"/><path d="M642.742,426.709c-2.833,8.756-3.09,22.406-3.09,22.406l-1.03,3.605L588.4,458.386s.258-25.238,1.03-37.085a48.087,48.087,0,0,0-2.712-18.875l3.742.075,44.708-2.15C642.639,405.586,645.284,418.846,642.742,426.709Z" transform="translate(-435.619 -297.246)" fill="#36334a"/><path d="M756.386,439.4a1.264,1.264,0,0,0-1.178,1.346c0,.04.007.08.014.12a.9.9,0,0,0,.515.672c.832.415,6.369-.515,8.468-.886a1.424,1.424,0,0,0,1.19-1.27c.026-.366-.108-.677-.644-.677Z" transform="translate(-560.714 -325.719)" fill="#f2f2f2"/><path d="M586.25,386.138s1.288,5.666,7.469,3.863l2.06-7.984-4.121-2.318Z" transform="translate(-435.27 -281.914)" fill="#36334a"/><path d="M608.276,354.889c2.833-1.679,7.327-3.147,11.772.379a5.253,5.253,0,0,1,1.517,6.32c-1.455,3.15-4.909,6.567-12.972,2.475a5.2,5.2,0,0,1-1.962-1.736l-.041-.062a5.228,5.228,0,0,1,1.478-7.244Q608.169,354.952,608.276,354.889Z" transform="translate(-449.727 -262.168)" fill="#36334a"/><circle cx="5.151" cy="5.151" r="5.151" transform="translate(122.522 151.995)" fill="#f2f2f2"/><ellipse cx="2.833" cy="5.151" rx="2.833" ry="5.151" transform="translate(231.202 142.724)" fill="#f2f2f2"/><rect width="6.696" height="9.014" rx="3.348" transform="translate(124.196 141.307)" fill="#36334a"/><path d="M899.84,510.19h0a1.8,1.8,0,0,1,1.8,1.8v4.121a3.091,3.091,0,0,1-3.09,3.09h0a1.8,1.8,0,0,1-1.8-1.8V513.28A3.091,3.091,0,0,1,899.84,510.19Z" transform="translate(-665.805 -378.798)" fill="#36334a"/><path d="M899.84,612.214h0a3.091,3.091,0,0,1-3.09-3.09V606.29a3.091,3.091,0,0,1,3.09-3.09h0c1.7,0,1.545,1.391,1.545,3.09v2.833C901.383,610.823,901.545,612.214,899.84,612.214Z" transform="translate(-665.805 -447.855)" fill="#36334a"/><path d="M872.81,556.19h0a3.091,3.091,0,0,1,3.09,3.09v3.863a2.06,2.06,0,0,1-2.06,2.06h0a3.091,3.091,0,0,1-3.09-3.09V558.25A2.06,2.06,0,0,1,872.81,556.19Z" transform="translate(-646.501 -412.951)" fill="#36334a"/><path d="M935.007,561.775c0,.443,0,.886-.028,1.324a31.349,31.349,0,0,1-.613,5.071,3.169,3.169,0,0,1-.515.044,3.091,3.091,0,0,1-3.09-3.09V562.29a3.091,3.091,0,0,1,3.09-3.09,3.011,3.011,0,0,1,.8.106c.093.026.185.054.273.088C934.978,560.176,935.007,560.972,935.007,561.775Z" transform="translate(-691.056 -415.186)" fill="#36334a"/><rect width="6.696" height="9.014" rx="3.348" transform="translate(137.202 152.252)" fill="#36334a"/><rect width="6.696" height="9.014" rx="3.348" transform="translate(111.964 152.252)" fill="#36334a"/><rect width="6.696" height="9.014" rx="3.348" transform="translate(124.325 165.644)" fill="#36334a"/><path d="M820.338,193.707a4.228,4.228,0,0,1-.257,1.44,4.275,4.275,0,0,1-8.007.113,4.2,4.2,0,0,1-.294-1.545,4.275,4.275,0,1,1,8.55,0Z" transform="translate(-602.718 -140.652)" fill="#88b3c6"/><path d="M811.639,191.9a4.275,4.275,0,0,1,1.664-5.813h0a4.232,4.232,0,0,1,1.545-.515,4.275,4.275,0,1,0,.36,8.517A4.273,4.273,0,0,1,811.639,191.9Z" transform="translate(-601.709 -137.779)" fill="#88b3c6"/><rect width="11.453" height="17.865" transform="translate(208.001 59.009)" fill="#ff6584"/><rect width="11.453" height="17.865" transform="translate(208.259 58.494)" opacity="0.1" style="isolation:isolate"/><path d="M712.3,480.81s-1.221,3.348-4.121,3.817a20.179,20.179,0,0,0-4.574,1.216l6.871,4.427,3.665-.458s.456-4.733,1.983-5.8S712.3,480.81,712.3,480.81Z" transform="translate(-522.405 -356.984)" fill="#fbbebe"/><path d="M918.288,480.81s1.221,3.348,4.121,3.817a20,20,0,0,1,4.579,1.223l-6.871,4.427-3.665-.458s-.456-4.733-1.983-5.8S918.288,480.81,918.288,480.81Z" transform="translate(-678.757 -356.984)" fill="#fbbebe"/><path d="M744.342,365.79a5.334,5.334,0,0,0-2.444,2.748,10.66,10.66,0,0,0-5.192,3.971s-2.289,2.441-2.6,3.665-3.817,8.56-3.817,8.56-3.51,11.45-5.344,12.673c0,0,5.8-1.223,6.871,4.579,0,0,1.375,0,2.9-5.344a68.974,68.974,0,0,1,5.189-11.908s1.223-4.582,2.292-5.344,2.748-4.275,4.275-3.361,11.6-.152,11.6-.152,5.954,2.748,6.106,4.582,1.223,1.983,1.375,3.51,5.8,13.59,5.8,13.59,1.069,3.348,1.373,4.121c0,0,3.361-8.092,7.788-3.513A10.477,10.477,0,0,0,779,393.274c-1.375-1.839-7.329-16.186-7.329-16.186a9.392,9.392,0,0,0-1.221-2.748c-.61-.61-5.344-5.5-7.02-5.5,0,0-.917-2.292-1.986-2.6Z" transform="translate(-538.25 -271.586)" fill="#696880"/><path d="M704.462,501.408a7.44,7.44,0,0,1-7.27-.979,14.488,14.488,0,0,0-3.242-1.877c-1.617-.654-3.557-1.141-4.146-.044-1.069,1.983,12.98,6.871,12.98,6.871A4.227,4.227,0,0,0,704.462,501.408Z" transform="translate(-512.111 -369.642)" fill="#696880"/><path d="M920.574,501.408a7.44,7.44,0,0,0,7.27-.979,14.489,14.489,0,0,1,3.242-1.877c1.617-.654,3.557-1.141,4.146-.044,1.069,1.983-12.98,6.871-12.98,6.871A4.227,4.227,0,0,1,920.574,501.408Z" transform="translate(-683.487 -369.642)" fill="#696880"/><path d="M807.277,263.5a1.812,1.812,0,0,1-.685,1.388,3.775,3.775,0,0,1-1.267.3,2.946,2.946,0,0,0-2.016,1.741,4.513,4.513,0,0,0-.191,2.717,10.033,10.033,0,0,0,.389,1.306,12.362,12.362,0,0,0,1.826,3.577,15.193,15.193,0,0,0,2.4,2.256,4.133,4.133,0,0,0,3.168,1.288,3.079,3.079,0,0,0,1.7-.242c.773-.445,1-1.432,1.422-2.22.358-.672.888-1.239,1.221-1.924a7.669,7.669,0,0,0,.515-1.677l.713-3.17a4.48,4.48,0,0,0-.155-3.433.542.542,0,0,0-.191-.2.709.709,0,0,0-.389-.041,4.2,4.2,0,0,1-2.356-.538.934.934,0,0,1-.3-.232,1.168,1.168,0,0,1-.183-.543,5.738,5.738,0,0,0-.33-1.149.774.774,0,0,0-.224-.343.8.8,0,0,0-.361-.121,29.474,29.474,0,0,0-3.33-.35c-.368-.015-.919-.162-1.169.16S807.318,263.116,807.277,263.5Z" transform="translate(-596.193 -194.413)" fill="#fbbebe"/><path d="M807.277,263.5a1.812,1.812,0,0,1-.685,1.388,3.775,3.775,0,0,1-1.267.3,2.946,2.946,0,0,0-2.016,1.741,4.513,4.513,0,0,0-.191,2.717,10.033,10.033,0,0,0,.389,1.306,12.362,12.362,0,0,0,1.826,3.577,15.193,15.193,0,0,0,2.4,2.256,4.133,4.133,0,0,0,3.168,1.288,3.079,3.079,0,0,0,1.7-.242c.773-.445,1-1.432,1.422-2.22.358-.672.888-1.239,1.221-1.924a7.669,7.669,0,0,0,.515-1.677l.713-3.17a4.48,4.48,0,0,0-.155-3.433.542.542,0,0,0-.191-.2.709.709,0,0,0-.389-.041,4.2,4.2,0,0,1-2.356-.538.934.934,0,0,1-.3-.232,1.168,1.168,0,0,1-.183-.543,5.738,5.738,0,0,0-.33-1.149.774.774,0,0,0-.224-.343.8.8,0,0,0-.361-.121,29.474,29.474,0,0,0-3.33-.35c-.368-.015-.919-.162-1.169.16S807.318,263.116,807.277,263.5Z" transform="translate(-596.193 -194.413)" opacity="0.1" style="isolation:isolate"/><path d="M793.147,273.4a7.064,7.064,0,0,0-1.839-.291,4.6,4.6,0,0,0-3.9,1.677,3.958,3.958,0,0,0-.59,2.949,6.107,6.107,0,0,0,1.339,2.748,8.273,8.273,0,0,1,1.03,1.349,7.15,7.15,0,0,1,.515,2.575c.258,2.089,1.149,4.056,1.5,6.132s.046,4.486-1.594,5.81c-.276.221-.608.453-.631.806-.039.564.7.806,1.259.858a14.355,14.355,0,0,0,5.055-.116c.68-.18,1.332-.461,2.022-.59,1.754-.327,3.515.343,5.267.667a23.647,23.647,0,0,0,3.84.312,2.061,2.061,0,0,0,.886-.116.708.708,0,0,0,.448-.706,1.2,1.2,0,0,0-.3-.515,8.4,8.4,0,0,1-1.4-3.938l-.8-4.674c-.435-2.493-.84-5.2.34-7.44.85-1.61,2.411-2.743,3.307-4.327a2.1,2.1,0,0,0-1.182-3.325,5.978,5.978,0,0,0-4.479-.162,18.077,18.077,0,0,1-.443,3.348l-.312,1.8a22.943,22.943,0,0,1-.7,3.142,3.4,3.4,0,0,1-.559,1.138,2.942,2.942,0,0,1-.986.719,5.862,5.862,0,0,1-2.614.595,3.429,3.429,0,0,1-1.154-.175,4.929,4.929,0,0,1-1.589-1.12,2.609,2.609,0,0,1-.42-.453,2.732,2.732,0,0,1-.286-.688,13.976,13.976,0,0,1-.489-1.926c-.08-.5-.1-1.007-.139-1.512A36.747,36.747,0,0,0,793.147,273.4Z" transform="translate(-584.131 -202.491)" fill="#f2f2f2"/><path d="M805.477,390.1s-.61,8.092,3.206,9.467.458-6.719.458-6.719l-1.221-2.444Z" transform="translate(-598.011 -289.635)" fill="#fbbebe"/><path d="M841.478,390.1s.61,8.092-3.206,9.467-.458-6.719-.458-6.719l1.221-2.444Z" transform="translate(-621.033 -289.635)" fill="#fbbebe"/><path d="M789.021,283.817,787.8,285.8s1.069,6.871,1.221,8.092a15.933,15.933,0,0,0,.61,2.591s.152,3.665.152,5.037a15.38,15.38,0,0,0,.773,3.665,16.627,16.627,0,0,0,.773,3.817c.61,1.682,1.223,3.665,1.223,3.665s.773-2.138,3.817,1.069a1.851,1.851,0,0,0,0-2.6,40.4,40.4,0,0,1-.917-6.258c0-2.138-1.679-12.362-1.679-12.362S792.685,280.914,789.021,283.817Z" transform="translate(-584.914 -210.378)" opacity="0.1" style="isolation:isolate"/><path d="M787.851,283.237l-1.221,1.983s1.069,6.871,1.221,8.094a16.06,16.06,0,0,0,.613,2.593s.16,3.665.16,5.043a15.314,15.314,0,0,0,.773,3.665,16.69,16.69,0,0,0,.773,3.817c.61,1.679,1.221,3.665,1.221,3.665s.773-2.138,3.817,1.069a1.849,1.849,0,0,0,0-2.6,40.391,40.391,0,0,1-.917-6.261c0-2.14-1.679-12.362-1.679-12.362S791.51,280.348,787.851,283.237Z" transform="translate(-584.045 -209.95)" fill="#f2f2f2"/><path d="M846.455,277.931l.773.909a28.057,28.057,0,0,1-1.084,11.764l-.61,5.957s-1.069,5.037-1.223,6.261-.152,1.373-.456,1.831a.587.587,0,0,0,0,.773l-.917,3.361s-1.375-1.679-4.121.458a2.423,2.423,0,0,1-.152-2.292c.621-1.069.61-1.527.458-1.831s.61-1.834.61-2.138,1.069-7.329,1.069-7.329.458-6.871.917-9.161a42.851,42.851,0,0,0,.227-6.76,2.588,2.588,0,0,1,4.378-1.929A1.194,1.194,0,0,1,846.455,277.931Z" transform="translate(-622.499 -205.716)" opacity="0.1" style="isolation:isolate"/><path d="M848.215,275.759l.773.909a28.107,28.107,0,0,1-1.084,11.764l-.61,5.954s-1.069,5.04-1.223,6.261-.152,1.375-.458,1.831a.6.6,0,0,0,0,.773L844.7,306.6s-1.375-1.679-4.121.458a2.418,2.418,0,0,1-.152-2.289c.621-1.069.61-1.527.456-1.834s.613-1.831.613-2.138,1.069-7.329,1.069-7.329.458-6.871.914-9.161.155-9.161.155-9.161A3.532,3.532,0,0,1,848.215,275.759Z" transform="translate(-623.806 -203.848)" fill="#f2f2f2"/><circle cx="6.109" cy="6.109" r="6.109" transform="translate(208.076 57.557)" fill="#fbbebe"/><path d="M820.957,210.617a4.275,4.275,0,0,1-8.007.113,7.578,7.578,0,0,1,4.821-.1A4.32,4.32,0,0,1,820.957,210.617Z" transform="translate(-603.587 -156.123)" opacity="0.1" style="isolation:isolate"/><path d="M804.81,211.818s-11.756-4.121-8.857,15.88c0,0,2.6,1.679,4.582.61,0,0-1.375-13.907,3.969-13.284S808.933,228,808.933,228s3.054.917,3.969-.773S812.6,209.068,804.81,211.818Z" transform="translate(-590.626 -157.007)" fill="#88b3c6"/><path d="M818.592,221.663c-3.667-.42-4.17,5.99-4.121,10.057.046-4.041.726-9.529,4.121-9.14,3.817.435,4.44,6.863,4.486,10.5C823.119,229.745,822.753,222.14,818.592,221.663Z" transform="translate(-604.714 -164.563)" opacity="0.1" style="isolation:isolate"/><path d="M795.964,255.65a41.512,41.512,0,0,1-.456-5.3,39.177,39.177,0,0,0,.456,6.207s2.6,1.679,4.582.61c0,0-.033-.33-.07-.883C798.5,257.3,795.964,255.65,795.964,255.65Z" transform="translate(-590.636 -185.876)" opacity="0.1" style="isolation:isolate"/><path d="M851.649,264.176c-.852,1.563-3.559.878-3.927.773-.018.567-.041.9-.041.9s3.054.917,3.969-.773a6.963,6.963,0,0,0,.258-2.629A4.763,4.763,0,0,1,851.649,264.176Z" transform="translate(-629.372 -194.86)" opacity="0.1" style="isolation:isolate"/><path d="M975.913,569.964c.706-1.306-.1-2.908-1.015-4.072s-2.042-2.377-2.019-3.863c.036-2.132,2.3-3.392,4.121-4.522a20.064,20.064,0,0,0,3.69-2.967,5.467,5.467,0,0,0,1.133-1.517,6.189,6.189,0,0,0,.34-2.7q-.116-4.566-.451-9.124" transform="translate(-722.328 -401.822)" fill="none" stroke="#3f3d56" stroke-miterlimit="10" stroke-width="4"/><path d="M1001.3,531.41a3.322,3.322,0,0,0-1.661-2.727l-.744,1.473.023-1.785a3.369,3.369,0,0,0-1.1-.131,3.327,3.327,0,1,0,3.479,3.17Z" transform="translate(-738.495 -392.197)" fill="#ec5e04"/><path d="M979.319,614.029a3.327,3.327,0,0,1-6.281-1.365,3.282,3.282,0,0,1,.216-1.352,3.33,3.33,0,0,1,6.227.036l-2.078,1.692,2.284-.531A3.293,3.293,0,0,1,979.319,614.029Z" transform="translate(-722.443 -452.295)" fill="#ec5e04"/><path d="M981.018,583.739a3.328,3.328,0,0,1-3.479-3.168v0a3.281,3.281,0,0,1,.288-1.514,3.348,3.348,0,0,1,2.135-1.844l-.015,1.373.752-1.494h0a3.327,3.327,0,0,1,3.477,3.17,3.261,3.261,0,0,1-.142,1.136A3.327,3.327,0,0,1,981.018,583.739Z" transform="translate(-725.785 -428.466)" fill="#ec5e04"/><path d="M1012.387,562.867a3.327,3.327,0,0,1-3.479-3.168v0a3.27,3.27,0,0,1,.314-1.576,3.325,3.325,0,0,1,4.425-1.589c.071.034.142.07.21.108l-.587,1.61,1.208-1.161a3.325,3.325,0,0,1,1.077,2.3,3.256,3.256,0,0,1-.085.917A3.327,3.327,0,0,1,1012.387,562.867Z" transform="translate(-749.075 -412.968)" fill="#ec5e04"/><path d="M1000.86,537.548c-.773.085-1.517.322-2.287.371a2.477,2.477,0,0,1-2.1-.737,10.336,10.336,0,0,1-.615-1.082,2.389,2.389,0,0,0-.837-.791,3.29,3.29,0,0,0-.358,1.661,3.327,3.327,0,0,0,6.577.549C1001.11,537.525,1000.984,537.535,1000.86,537.548Z" transform="translate(-738.496 -397.449)" opacity="0.1" style="isolation:isolate"/><path d="M1012.387,568.366a3.327,3.327,0,0,1-3.479-3.168v0a3.27,3.27,0,0,1,.314-1.576,2.473,2.473,0,0,1,.669.67,10.253,10.253,0,0,0,.659,1.1,2.723,2.723,0,0,0,2.207.773c.8-.036,1.576-.257,2.377-.337.111,0,.224-.018.335-.021A3.327,3.327,0,0,1,1012.387,568.366Z" transform="translate(-749.075 -418.468)" opacity="0.1" style="isolation:isolate"/><path d="M981.018,589.415a3.328,3.328,0,0,1-3.479-3.168v0a3.282,3.282,0,0,1,.288-1.514,2.739,2.739,0,0,1,.7.675,13.175,13.175,0,0,0,.721,1.123,3.088,3.088,0,0,0,2.357.827c.85-.018,1.617-.221,2.436-.283A3.327,3.327,0,0,1,981.018,589.415Z" transform="translate(-725.785 -434.141)" opacity="0.1" style="isolation:isolate"/><path d="M979.319,620.177a3.327,3.327,0,0,1-6.281-1.365,3.282,3.282,0,0,1,.216-1.352,3.351,3.351,0,0,1,.729.652,11.349,11.349,0,0,0,.891,1.182,4.163,4.163,0,0,0,2.756.971A14.667,14.667,0,0,0,979.319,620.177Z" transform="translate(-722.443 -458.442)" opacity="0.1" style="isolation:isolate"/><path d="M965.18,642.961s2.624-.08,3.417-.644,4.038-1.236,4.237-.332,3.945,4.5.981,4.52-6.889-.461-7.68-.943S965.18,642.961,965.18,642.961Z" transform="translate(-716.612 -476.323)" fill="#656380"/><path d="M973.867,650.272c-2.964.023-6.889-.464-7.68-.943-.6-.368-.84-1.682-.919-2.29h-.088s.165,2.12.955,2.6,4.715.966,7.68.943c.855,0,1.151-.312,1.136-.773C974.832,650.1,974.5,650.267,973.867,650.272Z" transform="translate(-716.612 -480.404)" opacity="0.2" style="isolation:isolate"/></svg>