<svg id="Layer_1" data-name="Layer 1" xmlns="http://www.w3.org/2000/svg" viewBox="0 0 266.48 182"><defs><style>.cls-1{fill:#f2f2f2;}.cls-2{opacity:0.03;}.cls-2,.cls-4,.cls-7,.cls-8{isolation:isolate;}.cls-3{fill:#36334a;}.cls-4{opacity:0.1;}.cls-5{fill:#3f3d56;}.cls-6,.cls-8{fill:#ec5e04;}.cls-7,.cls-8{opacity:0.2;}.cls-9{fill:#88b3c6;}.cls-10{fill:#ff6584;}.cls-11{fill:#fbbebe;}.cls-12{fill:#696880;}.cls-13{fill:none;stroke:#3f3d56;stroke-miterlimit:10;stroke-width:4px;}.cls-14{fill:#656380;}</style></defs><path class="cls-1" d="M168.55,50.93H135.5V43.78a1.71,1.71,0,0,0-1.71-1.71h-9.71V34.45A1.08,1.08,0,0,0,123,33.37H110.5a1.07,1.07,0,0,0-1.07,1.08h0v7.62H98a1.71,1.71,0,0,0-1.71,1.71h0v7.15H64.78a.34.34,0,0,0-.34.35v94.9a.34.34,0,0,0,.34.34h21a.35.35,0,0,0,.35-.34V133.41a.35.35,0,0,1,.34-.35h8.85a.35.35,0,0,1,.35.35v12.77a.34.34,0,0,0,.35.35h41.39a.35.35,0,0,0,.35-.35V133.41a.35.35,0,0,1,.34-.35h8.85a.35.35,0,0,1,.35.35v12.77a.35.35,0,0,0,.35.35h21a.34.34,0,0,0,.34-.35V51.27A.34.34,0,0,0,168.55,50.93Zm-86.22,77.7A.35.35,0,0,1,82,129H69a.34.34,0,0,1-.34-.34h0v-4.41a.35.35,0,0,1,.34-.35H82a.35.35,0,0,1,.35.35Zm0-11.42a.34.34,0,0,1-.34.34H69a.33.33,0,0,1-.34-.34h0v-4.42a.35.35,0,0,1,.34-.35H82a.35.35,0,0,1,.35.35h0Zm0-11.42a.35.35,0,0,1-.35.35H69a.35.35,0,0,1-.34-.35h0v-4.42A.34.34,0,0,1,69,101H82a.35.35,0,0,1,.35.34Zm0-11.42a.35.35,0,0,1-.34.35H69a.34.34,0,0,1-.34-.34h0V90a.35.35,0,0,1,.34-.35H82a.35.35,0,0,1,.35.34h0Zm0-11.42a.35.35,0,0,1-.35.35H69A.34.34,0,0,1,68.7,83h0V78.53a.34.34,0,0,1,.34-.34H82a.35.35,0,0,1,.35.34h0Zm0-11.41a.35.35,0,0,1-.35.34H69a.34.34,0,0,1-.34-.34h0V67.12a.34.34,0,0,1,.34-.35H82a.35.35,0,0,1,.35.35Zm0-11.42a.35.35,0,0,1-.34.35H69a.35.35,0,0,1-.34-.35h0V55.71a.34.34,0,0,1,.34-.34H82a.35.35,0,0,1,.35.34h0ZM113,128.62a.34.34,0,0,1-.34.34H99.72a.35.35,0,0,1-.35-.34v-4.4a.35.35,0,0,1,.35-.35h12.94a.34.34,0,0,1,.34.35Zm0-11.42a.35.35,0,0,1-.34.35H99.72a.35.35,0,0,1-.35-.35v-4.42a.35.35,0,0,1,.35-.34h12.94a.33.33,0,0,1,.34.34h0v4.42Zm0-11.42a.35.35,0,0,1-.34.35H99.72a.35.35,0,0,1-.35-.35v-4.41a.35.35,0,0,1,.35-.34h12.94a.34.34,0,0,1,.34.34Zm0-11.42a.34.34,0,0,1-.34.35H99.72a.35.35,0,0,1-.35-.35h0V90a.35.35,0,0,1,.35-.35h12.94A.35.35,0,0,1,113,90h0v4.4ZM113,83a.34.34,0,0,1-.34.34H99.72a.35.35,0,0,1-.35-.34V78.53a.35.35,0,0,1,.35-.35h12.94a.34.34,0,0,1,.34.35h0V83Zm0-11.42a.34.34,0,0,1-.34.34H99.72a.35.35,0,0,1-.35-.34V67.11a.35.35,0,0,1,.35-.35h12.94a.35.35,0,0,1,.34.35Zm0-11.42a.34.34,0,0,1-.34.35H99.72a.35.35,0,0,1-.35-.35h0v-4.4a.35.35,0,0,1,.35-.35h12.94a.34.34,0,0,1,.34.34h0v4.41Zm21,68.5a.34.34,0,0,1-.34.34H120.68a.35.35,0,0,1-.35-.34v-4.4a.35.35,0,0,1,.35-.35h12.94a.35.35,0,0,1,.35.35Zm0-11.42a.34.34,0,0,1-.34.35H120.68a.35.35,0,0,1-.35-.35v-4.41a.35.35,0,0,1,.35-.35h12.94a.35.35,0,0,1,.35.34h0v4.42Zm0-11.42a.34.34,0,0,1-.34.35H120.68a.35.35,0,0,1-.35-.34v-4.41a.34.34,0,0,1,.35-.34h12.93a.34.34,0,0,1,.35.34Zm0-11.42a.34.34,0,0,1-.34.35H120.68a.35.35,0,0,1-.35-.35V90a.35.35,0,0,1,.35-.34h12.94A.35.35,0,0,1,134,90h0v4.4Zm0-11.41a.35.35,0,0,1-.34.35H120.68a.36.36,0,0,1-.35-.35V78.52a.35.35,0,0,1,.35-.34h12.94a.35.35,0,0,1,.35.34h0v4.42Zm0-11.42a.35.35,0,0,1-.34.35H120.68a.35.35,0,0,1-.35-.35V67.11a.35.35,0,0,1,.35-.35h12.94a.35.35,0,0,1,.35.35Zm0-11.42a.34.34,0,0,1-.34.35H120.68a.35.35,0,0,1-.35-.35V55.7a.35.35,0,0,1,.35-.35h12.94a.35.35,0,0,1,.35.35h0v4.4Zm30.68,68.5a.35.35,0,0,1-.35.35H151.35a.35.35,0,0,1-.34-.35h0v-4.4a.34.34,0,0,1,.34-.34h12.94a.35.35,0,0,1,.35.34Zm0-11.42a.35.35,0,0,1-.35.35H151.35a.34.34,0,0,1-.34-.34h0v-4.42a.33.33,0,0,1,.34-.34h12.94a.34.34,0,0,1,.35.34Zm0-11.41a.35.35,0,0,1-.35.34H151.35a.34.34,0,0,1-.34-.34v-4.4a.34.34,0,0,1,.34-.34h12.94a.35.35,0,0,1,.35.34Zm0-11.42a.35.35,0,0,1-.35.34H151.35a.34.34,0,0,1-.34-.34V90a.34.34,0,0,1,.34-.34h13a.35.35,0,0,1,.35.34Zm0-11.42a.35.35,0,0,1-.35.35H151.35a.35.35,0,0,1-.34-.35h0V78.52a.35.35,0,0,1,.34-.35h12.94a.35.35,0,0,1,.35.35Zm0-11.42a.35.35,0,0,1-.35.35H151.35a.34.34,0,0,1-.34-.34h0V67.1a.35.35,0,0,1,.34-.35h12.94a.35.35,0,0,1,.35.35Zm0-11.42a.35.35,0,0,1-.35.35H151.35a.34.34,0,0,1-.34-.34V55.7a.35.35,0,0,1,.34-.35h13a.35.35,0,0,1,.35.35Z" transform="translate(0)"/><path class="cls-1" d="M68.8,11.39l-4,2.54,2.43-4.42a4,4,0,0,0-2.42-.86h-.06a4.57,4.57,0,0,1-.83-.06l-1.36.86.58-1.06a4.76,4.76,0,0,1-2.37-1.8L58.35,8.14l1.53-2.79a7.1,7.1,0,0,0-5.43-2.74,7.45,7.45,0,0,0-6.22,3.83,4.63,4.63,0,0,1-4.12,2.22H44c-2.79,0-5,3.15-5,7.05S41.2,22.76,44,22.76a3.94,3.94,0,0,0,1.75-.44,7.23,7.23,0,0,1,6.1-.12,6.34,6.34,0,0,0,5.19,0,7.24,7.24,0,0,1,6,.12,3.9,3.9,0,0,0,1.74.44c2.78,0,5-3.16,5-7A8.9,8.9,0,0,0,68.8,11.39Z" transform="translate(0)"/><path class="cls-2" d="M61.27,21.71a7.43,7.43,0,0,0-4.32.47,6.34,6.34,0,0,1-5.19,0,7.27,7.27,0,0,0-6.1.12,3.81,3.81,0,0,1-1.75.44c-2.47,0-4.53-2.49-5-5.78a4.76,4.76,0,0,0,1.24-1.33,7,7,0,0,1,9.32-3.11,7.06,7.06,0,0,1,3.08,3.06,4.73,4.73,0,0,0,4.1,2.26h.07C58.73,17.83,60.44,19.41,61.27,21.71Z" transform="translate(0)"/><path class="cls-1" d="M209.67,4.39l-2,1.26,1.21-2.2A2,2,0,0,0,207.67,3h0a2.73,2.73,0,0,1-.41,0l-.68.43.29-.52a2.34,2.34,0,0,1-1.18-.9l-1.21.78.77-1.39A3.51,3.51,0,0,0,202.52,0a3.69,3.69,0,0,0-3.09,1.91A2.33,2.33,0,0,1,197.37,3h-.07c-1.39,0-2.51,1.58-2.51,3.52S195.91,10,197.3,10a1.8,1.8,0,0,0,.88-.22,3.63,3.63,0,0,1,3-.05,3.24,3.24,0,0,0,2.59,0,3.64,3.64,0,0,1,3,.05,1.9,1.9,0,0,0,.87.22c1.38,0,2.51-1.58,2.51-3.52A4.51,4.51,0,0,0,209.67,4.39Z" transform="translate(0)"/><path class="cls-2" d="M205.91,9.53a3.71,3.71,0,0,0-2.16.23,3,3,0,0,1-1.28.27,3.14,3.14,0,0,1-1.29-.27,3.61,3.61,0,0,0-3.05.06,1.89,1.89,0,0,1-.87.21C196,10,195,8.79,194.79,7.15a2.4,2.4,0,0,0,.61-.66,3.47,3.47,0,0,1,6.19,0,2.36,2.36,0,0,0,2.06,1.12h0A2.6,2.6,0,0,1,205.91,9.53Z" transform="translate(0)"/><path class="cls-1" d="M159.63,27.55,157.28,29l1.42-2.57a2.29,2.29,0,0,0-1.42-.52h0a3.87,3.87,0,0,1-.48,0l-.8.51.34-.62a2.85,2.85,0,0,1-1.39-1.05l-1.42.9.9-1.64a4.13,4.13,0,0,0-3.18-1.61,4.38,4.38,0,0,0-3.65,2.25,2.73,2.73,0,0,1-2.41,1.29h-.08c-1.64,0-3,1.85-3,4.12s1.32,4.14,3,4.14a2.31,2.31,0,0,0,1-.26,4.21,4.21,0,0,1,3.57-.07,3.77,3.77,0,0,0,3.05,0,4.25,4.25,0,0,1,3.54.07,2.45,2.45,0,0,0,1,.26c1.64,0,3-1.85,3-4.14A5.33,5.33,0,0,0,159.63,27.55Z" transform="translate(0)"/><path class="cls-2" d="M155.21,33.6a4.3,4.3,0,0,0-2.53.27,3.77,3.77,0,0,1-3.05,0,4.28,4.28,0,0,0-3.57.07,2.19,2.19,0,0,1-1,.26c-1.45,0-2.66-1.46-2.91-3.39a2.78,2.78,0,0,0,.72-.77,4.09,4.09,0,0,1,7.28,0,2.78,2.78,0,0,0,2.41,1.33h0A3,3,0,0,1,155.21,33.6Z" transform="translate(0)"/><path class="cls-3" d="M244,146.59c0,.44,0,.89,0,1.32a31.91,31.91,0,0,1-.61,5.07c-1.7,8.27-6.58,14.7-12.72,16.6a12.68,12.68,0,0,1-3.77.58c-9.46,0-17.12-10.56-17.12-23.57S217.36,123,226.82,123c8.88,0,16.17,9.29,17,21.18C243.92,145,244,145.79,244,146.59Z" transform="translate(0)"/><path class="cls-4" d="M243.92,147.92a30.92,30.92,0,0,1-.61,5.07c-1.69,8.27-6.58,14.7-12.72,16.6-4.75-2.19-8.27-10.39-8.27-20.16,0-11.45,4.84-20.73,10.81-20.73,5,0,9.24,6.54,10.46,15.43A37.64,37.64,0,0,1,243.92,147.92Z" transform="translate(0)"/><path class="cls-5" d="M157.93,94.43s46.36-9.52,70.83-.77c0,0,3.6,1.8,0,4.89,0,0,3.41,3.61-2.55,4.9l-23.65,1.45-44.63-4.54Z" transform="translate(0)"/><path class="cls-4" d="M166.05,95.64s39.69-8.16,60.63-.67c0,0,3.09,1.55,0,4.19,0,0,2.92,3.09-2.18,4.19l-20.25,1.25-38.2-3.89Z" transform="translate(0)"/><path class="cls-6" d="M211.24,109.89l-3.09-6.18s1.36-6.25-9.66-8.09c-.61-2.73-3.37-4.79-6.7-4.79a6.68,6.68,0,0,0-6.64,4.59c-1.59.13-3.27.32-5.07.56l-2.52,13.51-.32-.63s1.6-7.38-12.81-8.46A5.39,5.39,0,0,0,165.66,97c0-3.27-3.06-5.92-6.83-5.92S152,93.74,152,97a5.42,5.42,0,0,0,1.43,3.63c-1.35.13-2.77.29-4.27.49l-2.83,15.2,13.14,1.8L180.34,115l-1.85-3.7L190.38,113Z" transform="translate(0)"/><path class="cls-7" d="M211.24,109.89l-3.09-6.18s1.36-6.25-9.66-8.09c-.61-2.73-3.37-4.79-6.7-4.79a6.68,6.68,0,0,0-6.64,4.59c-1.59.13-3.27.32-5.07.56l-2.52,13.51-.32-.63s1.6-7.38-12.81-8.46A5.39,5.39,0,0,0,165.66,97c0-3.27-3.06-5.92-6.83-5.92S152,93.74,152,97a5.42,5.42,0,0,0,1.43,3.63c-1.35.13-2.77.29-4.27.49l-2.83,15.2,13.14,1.8L180.34,115l-1.85-3.7L190.38,113Z" transform="translate(0)"/><path class="cls-6" d="M166.94,96.21s-2.06-11.56,7.47-11.82,6.44,16.74,6.44,16.74,7.21,1.55,7.73,4.38-25,3.61-25,3.61Z" transform="translate(0)"/><path class="cls-3" d="M150.21,157.28c0,13.64-10.15,24.72-22.67,24.72s-22.66-11.07-22.66-24.72,10.27-26.92,22.79-26.92S150.21,143.62,150.21,157.28Z" transform="translate(0)"/><ellipse class="cls-4" cx="127.54" cy="158.31" rx="18.03" ry="20.86"/><ellipse class="cls-3" cx="27.88" cy="154.96" rx="22.66" ry="24.72"/><path class="cls-3" d="M66.51,96S56,96.5,56.46,102.16s9,1.55,9,1.55Z" transform="translate(0)"/><path class="cls-5" d="M154.36,105.42l4.35-29s1-3.6-12.88-3.6c0,0-44.56-2.84-55.89,1.8,0,0-13.13,4.89-31.42,30.13C58.52,104.74,152.56,107,154.36,105.42Z" transform="translate(0)"/><path class="cls-3" d="M152.78,75.12l-8,31.68-5-.12-23.69-.58-52.84-1.29c-.15-2.5,24.87-28.4,24.87-28.4Z" transform="translate(0)"/><path class="cls-8" d="M116.11,106.1l2.16-8.34s-2.06-11.56,7.47-11.82,6.43,16.74,6.43,16.74,6.57,1.41,7.62,4Z" transform="translate(0)"/><path class="cls-5" d="M244.08,144.79c-1.55-14.94-11.2-18.16-11.2-18.16-9.27-.52-15.45,34.77-15.45,34.77l-71.34,6.43s2.45-30-14.81-34.9-21.76,30.27-22.53,35.16-104-.51-106.88-2.57-1.8-21.89-1-23.44,2.83-8.5,2.83-8.5a14.38,14.38,0,0,1,1.45-5.21c.47-1,.87-1.74.87-1.74,2.24-12.69,13.86-15.77,14.64-16h0c3.09-3.09,31.67-5.15,31.67-5.15l10.82-2.06,87.94,1.73,3.74.07,44.71-2.15,30.24-1.45c7,0,10.55,17.51,10.55,17.51C246.78,134.61,244.08,144.79,244.08,144.79Z" transform="translate(0)"/><ellipse class="cls-4" cx="96" cy="121.92" rx="13.26" ry="8.3" transform="translate(-38.57 44.65) rotate(-21.92)"/><ellipse class="cls-1" cx="95.49" cy="120.89" rx="13.26" ry="8.3" transform="translate(-38.23 44.39) rotate(-21.92)"/><path class="cls-4" d="M21.14,111.19A20.53,20.53,0,0,1,17.46,121c-3.68,5.54-8.72,8.8-11.82,7.85.46-1,.86-1.74.86-1.74C8.74,114.45,20.36,111.38,21.14,111.19Z" transform="translate(0)"/><path class="cls-1" d="M20.37,110.67a20.64,20.64,0,0,1-3.69,9.85C13,126.07,8,129.33,4.87,128.37c.46-1,.86-1.74.86-1.74C8,113.94,19.59,110.87,20.37,110.67Z" transform="translate(0)"/><path class="cls-3" d="M56.46,118.39H36.12l-1-2.84H59.81Z" transform="translate(0)"/><rect class="cls-3" x="18.35" y="139.25" width="33.48" height="9.79"/><circle class="cls-4" cx="87.88" cy="153.93" r="4.64"/><circle class="cls-1" cx="87.37" cy="153.15" r="4.64"/><ellipse class="cls-4" cx="3.67" cy="150.32" rx="2.32" ry="4.89"/><ellipse class="cls-1" cx="2.9" cy="150.06" rx="2.32" ry="4.89"/><path class="cls-3" d="M207.12,129.46c-2.83,8.76-3.09,22.41-3.09,22.41l-1,3.6-50.22,5.67s.26-25.24,1-37.09a48.09,48.09,0,0,0-2.71-18.87l3.74.08,44.71-2.15C207,108.34,209.67,121.6,207.12,129.46Z" transform="translate(0)"/><path class="cls-1" d="M195.67,113.68a1.28,1.28,0,0,0-1.18,1.35h0a.5.5,0,0,0,0,.12.92.92,0,0,0,.51.67c.83.41,6.37-.52,8.47-.89a1.41,1.41,0,0,0,1.19-1.27c0-.36-.11-.67-.64-.67Z" transform="translate(0)"/><path class="cls-3" d="M151,104.22s1.29,5.67,7.47,3.87l2.06-8-4.12-2.31Z" transform="translate(0)"/><path class="cls-3" d="M158.55,92.72c2.83-1.68,7.33-3.15,11.77.38a5.25,5.25,0,0,1,1.52,6.32c-1.46,3.15-4.91,6.57-13,2.48a5.25,5.25,0,0,1-2-1.74l0-.06a5.24,5.24,0,0,1,1.48-7.25Z" transform="translate(0)"/><circle class="cls-1" cx="127.67" cy="157.15" r="5.15"/><ellipse class="cls-1" cx="234.03" cy="147.87" rx="2.83" ry="5.15"/><path class="cls-3" d="M127.54,141.31h0a3.35,3.35,0,0,1,3.35,3.35V147a3.35,3.35,0,0,1-3.35,3.35h0A3.34,3.34,0,0,1,124.2,147v-2.31A3.34,3.34,0,0,1,127.54,141.31Z" transform="translate(0)"/><path class="cls-3" d="M234,131.39h0a1.81,1.81,0,0,1,1.8,1.8v4.12a3.1,3.1,0,0,1-3.1,3.09h0a1.79,1.79,0,0,1-1.79-1.8v-4.12A3.09,3.09,0,0,1,234,131.39Z" transform="translate(0)"/><path class="cls-3" d="M234,164.36h0a3.09,3.09,0,0,1-3.09-3.09v-2.84a3.1,3.1,0,0,1,3.09-3.09h0c1.7,0,1.54,1.4,1.54,3.09v2.84C235.58,163,235.74,164.36,234,164.36Z" transform="translate(0)"/><path class="cls-3" d="M226.31,143.24h0a3.09,3.09,0,0,1,3.09,3.09v3.86a2.06,2.06,0,0,1-2.06,2.06h0a3.09,3.09,0,0,1-3.09-3.09V145.3A2.06,2.06,0,0,1,226.31,143.24Z" transform="translate(0)"/><path class="cls-3" d="M244,146.59c0,.44,0,.89,0,1.32a30.79,30.79,0,0,1-.61,5.07,3,3,0,0,1-.52.05,3.1,3.1,0,0,1-3.09-3.09V147.1a3.1,3.1,0,0,1,3.09-3.09,3,3,0,0,1,.8.11,2.29,2.29,0,0,1,.28.09C243.92,145,244,145.79,244,146.59Z" transform="translate(0)"/><path class="cls-3" d="M140.55,152.25h0a3.35,3.35,0,0,1,3.35,3.35v2.32a3.35,3.35,0,0,1-3.35,3.35h0a3.35,3.35,0,0,1-3.35-3.35V155.6A3.35,3.35,0,0,1,140.55,152.25Z" transform="translate(0)"/><path class="cls-3" d="M115.31,152.25h0a3.35,3.35,0,0,1,3.35,3.35v2.32a3.35,3.35,0,0,1-3.35,3.35h0a3.35,3.35,0,0,1-3.35-3.35V155.6A3.35,3.35,0,0,1,115.31,152.25Z" transform="translate(0)"/><path class="cls-3" d="M127.67,165.64h0A3.35,3.35,0,0,1,131,169v2.32a3.35,3.35,0,0,1-3.35,3.35h0a3.35,3.35,0,0,1-3.35-3.35V169A3.35,3.35,0,0,1,127.67,165.64Z" transform="translate(0)"/><path class="cls-9" d="M217.62,53.06a4.21,4.21,0,0,1-.26,1.44,4.27,4.27,0,0,1-8,.11,4.11,4.11,0,0,1-.3-1.55,4.28,4.28,0,0,1,8.55,0h0Z" transform="translate(0)"/><path class="cls-9" d="M209.93,54.12a4.27,4.27,0,0,1,1.66-5.81h0a4.31,4.31,0,0,1,1.55-.52,4.28,4.28,0,0,0-.3,8.55,3.65,3.65,0,0,0,.66,0A4.29,4.29,0,0,1,209.93,54.12Z" transform="translate(0)"/><rect class="cls-10" x="208" y="59.01" width="11.45" height="17.86"/><rect class="cls-4" x="208.26" y="58.49" width="11.45" height="17.86"/><path class="cls-11" d="M189.89,123.83s-1.22,3.34-4.12,3.81a20.71,20.71,0,0,0-4.57,1.22l6.87,4.43,3.67-.46s.45-4.74,2-5.8S189.89,123.83,189.89,123.83Z" transform="translate(0)"/><path class="cls-11" d="M239.53,123.83s1.22,3.34,4.12,3.81a20.13,20.13,0,0,1,4.58,1.23l-6.87,4.42-3.66-.46s-.46-4.73-2-5.8S239.53,123.83,239.53,123.83Z" transform="translate(0)"/><path class="cls-12" d="M206.09,94.2A5.37,5.37,0,0,0,203.65,97a10.66,10.66,0,0,0-5.19,4s-2.29,2.44-2.6,3.67-3.82,8.56-3.82,8.56-3.51,11.45-5.34,12.67c0,0,5.79-1.22,6.87,4.58,0,0,1.37,0,2.9-5.34a68.06,68.06,0,0,1,5.19-11.91s1.22-4.58,2.29-5.35,2.75-4.27,4.27-3.36,11.6-.15,11.6-.15,6,2.75,6.11,4.58,1.22,2,1.37,3.51S233.1,126,233.1,126s1.07,3.35,1.38,4.12c0,0,3.36-8.09,7.78-3.51a10.46,10.46,0,0,0-1.51-4.89c-1.37-1.84-7.33-16.19-7.33-16.19a9.67,9.67,0,0,0-1.22-2.75c-.61-.61-5.34-5.5-7-5.5,0,0-.92-2.29-2-2.6Z" transform="translate(0)"/><path class="cls-12" d="M192.35,131.77a7.45,7.45,0,0,1-7.27-1,14,14,0,0,0-3.24-1.88c-1.62-.65-3.56-1.14-4.15,0-1.07,2,13,6.87,13,6.87A4.21,4.21,0,0,0,192.35,131.77Z" transform="translate(0)"/><path class="cls-12" d="M237.09,131.77a7.46,7.46,0,0,0,7.27-1,14,14,0,0,1,3.24-1.88c1.62-.65,3.56-1.14,4.14,0,1.07,2-13,6.87-13,6.87A4.21,4.21,0,0,1,237.09,131.77Z" transform="translate(0)"/><path class="cls-11" d="M211.08,69.09a1.84,1.84,0,0,1-.68,1.39,3.68,3.68,0,0,1-1.27.29,2.94,2.94,0,0,0-2,1.75,4.49,4.49,0,0,0-.2,2.71,9.86,9.86,0,0,0,.39,1.31,12.5,12.5,0,0,0,1.83,3.58,15.5,15.5,0,0,0,2.4,2.25,4.12,4.12,0,0,0,3.17,1.29,3.09,3.09,0,0,0,1.7-.24c.77-.45,1-1.43,1.42-2.22s.89-1.24,1.22-1.93a7.52,7.52,0,0,0,.52-1.67l.71-3.17a4.47,4.47,0,0,0-.16-3.44.52.52,0,0,0-.19-.2.74.74,0,0,0-.39,0,4.11,4.11,0,0,1-2.35-.54.76.76,0,0,1-.3-.23,1.05,1.05,0,0,1-.18-.54,6.57,6.57,0,0,0-.33-1.15.79.79,0,0,0-.23-.34.77.77,0,0,0-.36-.12,28.47,28.47,0,0,0-3.33-.35c-.37,0-.92-.16-1.17.16S211.13,68.7,211.08,69.09Z" transform="translate(0)"/><path class="cls-4" d="M211.08,69.09a1.84,1.84,0,0,1-.68,1.39,3.68,3.68,0,0,1-1.27.29,2.94,2.94,0,0,0-2,1.75,4.49,4.49,0,0,0-.2,2.71,9.86,9.86,0,0,0,.39,1.31,12.5,12.5,0,0,0,1.83,3.58,15.5,15.5,0,0,0,2.4,2.25,4.12,4.12,0,0,0,3.17,1.29,3.09,3.09,0,0,0,1.7-.24c.77-.45,1-1.43,1.42-2.22s.89-1.24,1.22-1.93a7.52,7.52,0,0,0,.52-1.67l.71-3.17a4.47,4.47,0,0,0-.16-3.44.52.52,0,0,0-.19-.2.74.74,0,0,0-.39,0,4.11,4.11,0,0,1-2.35-.54.76.76,0,0,1-.3-.23,1.05,1.05,0,0,1-.18-.54,6.57,6.57,0,0,0-.33-1.15.79.79,0,0,0-.23-.34.77.77,0,0,0-.36-.12,28.47,28.47,0,0,0-3.33-.35c-.37,0-.92-.16-1.17.16S211.13,68.7,211.08,69.09Z" transform="translate(0)"/><path class="cls-1" d="M209,70.91a6.79,6.79,0,0,0-1.84-.29,4.58,4.58,0,0,0-3.9,1.68,3.91,3.91,0,0,0-.59,2.94A6,6,0,0,0,204,78a9.63,9.63,0,0,1,1,1.35,7.1,7.1,0,0,1,.51,2.58c.26,2.09,1.15,4,1.5,6.13s.05,4.48-1.59,5.81c-.28.22-.61.45-.63.8,0,.57.7.81,1.25.86a14.58,14.58,0,0,0,5.06-.11c.68-.18,1.33-.46,2-.59,1.76-.33,3.52.34,5.27.66a23.5,23.5,0,0,0,3.84.32,2.19,2.19,0,0,0,.88-.12.71.71,0,0,0,.45-.71,1.15,1.15,0,0,0-.3-.51,8.47,8.47,0,0,1-1.4-3.94l-.8-4.67c-.43-2.5-.84-5.2.34-7.44.85-1.61,2.41-2.75,3.31-4.33a2.1,2.1,0,0,0-.38-3,2.19,2.19,0,0,0-.8-.38,6,6,0,0,0-4.48-.16,18,18,0,0,1-.44,3.35l-.32,1.8a22.59,22.59,0,0,1-.7,3.14,3.28,3.28,0,0,1-.56,1.14,2.9,2.9,0,0,1-1,.72,5.78,5.78,0,0,1-2.62.59,3.45,3.45,0,0,1-1.15-.17A5.09,5.09,0,0,1,210.75,80a2.55,2.55,0,0,1-.42-.45,2.94,2.94,0,0,1-.28-.69,13,13,0,0,1-.49-1.93c-.08-.5-.1-1-.14-1.51A38.63,38.63,0,0,0,209,70.91Z" transform="translate(0)"/><path class="cls-11" d="M207.47,100.46s-.61,8.1,3.2,9.47.46-6.72.46-6.72l-1.22-2.44Z" transform="translate(0)"/><path class="cls-11" d="M220.45,100.46s.6,8.1-3.21,9.47-.46-6.72-.46-6.72l1.22-2.44Z" transform="translate(0)"/><path class="cls-4" d="M204.11,73.44l-1.22,2s1.06,6.87,1.22,8.09a15.24,15.24,0,0,0,.61,2.59s.15,3.67.15,5a15.88,15.88,0,0,0,.77,3.67,17,17,0,0,0,.77,3.81c.61,1.69,1.23,3.67,1.23,3.67s.77-2.14,3.82,1.07a1.85,1.85,0,0,0,0-2.6,40,40,0,0,1-.92-6.26c0-2.14-1.68-12.36-1.68-12.36S207.77,70.54,204.11,73.44Z" transform="translate(0)"/><path class="cls-1" d="M203.81,73.29l-1.22,2s1.06,6.87,1.22,8.09a15.58,15.58,0,0,0,.61,2.6s.16,3.66.16,5a15.69,15.69,0,0,0,.77,3.66,16.62,16.62,0,0,0,.78,3.82c.6,1.68,1.22,3.67,1.22,3.67s.77-2.14,3.81,1.07a1.83,1.83,0,0,0,0-2.6,40.15,40.15,0,0,1-.91-6.27c0-2.14-1.68-12.36-1.68-12.36S207.47,70.4,203.81,73.29Z" transform="translate(0)"/><path class="cls-4" d="M224,72.21l.77.91a28.07,28.07,0,0,1-1.08,11.77l-.61,6s-1.07,5-1.23,6.26-.15,1.37-.45,1.83a.57.57,0,0,0,0,.77l-.92,3.36s-1.38-1.68-4.12.46a2.42,2.42,0,0,1-.15-2.29c.62-1.07.61-1.53.45-1.83s.61-1.84.61-2.14,1.07-7.33,1.07-7.33.46-6.87.92-9.16a43.66,43.66,0,0,0,.23-6.76,2.59,2.59,0,0,1,4.38-1.93Z" transform="translate(0)"/><path class="cls-1" d="M224.41,71.91l.77.91a28,28,0,0,1-1.08,11.76l-.61,6s-1.07,5-1.22,6.26-.16,1.37-.46,1.83a.59.59,0,0,0,0,.77l-.92,3.35s-1.37-1.68-4.12.46a2.42,2.42,0,0,1-.15-2.29c.62-1.07.61-1.53.46-1.83s.61-1.83.61-2.14,1.07-7.33,1.07-7.33.46-6.87.91-9.16.16-9.16.16-9.16A3.54,3.54,0,0,1,224.41,71.91Z" transform="translate(0)"/><circle class="cls-11" cx="214.18" cy="63.67" r="6.11"/><path class="cls-4" d="M217.37,54.49a4.28,4.28,0,0,1-8,.12,7.51,7.51,0,0,1,4.82-.1A4.34,4.34,0,0,1,217.37,54.49Z" transform="translate(0)"/><path class="cls-9" d="M214.18,54.81s-11.75-4.12-8.85,15.88c0,0,2.6,1.68,4.58.61,0,0-1.38-13.91,4-13.28s4.43,13,4.43,13,3.05.92,4-.77S222,52.06,214.18,54.81Z" transform="translate(0)"/><path class="cls-4" d="M213.88,57.1c-3.67-.42-4.17,6-4.12,10.06,0-4,.72-9.53,4.12-9.14,3.82.43,4.44,6.86,4.48,10.5C218.41,65.18,218,57.58,213.88,57.1Z" transform="translate(0)"/><path class="cls-4" d="M205.33,69.77a40.75,40.75,0,0,1-.46-5.3,39.07,39.07,0,0,0,.46,6.21s2.6,1.68,4.58.61c0,0,0-.33-.07-.88C207.86,71.42,205.33,69.77,205.33,69.77Z" transform="translate(0)"/><path class="cls-4" d="M222.28,69.32c-.86,1.56-3.56.87-3.93.77,0,.57,0,.9,0,.9s3.05.92,4-.77a7.11,7.11,0,0,0,.26-2.63A4.88,4.88,0,0,1,222.28,69.32Z" transform="translate(0)"/><path class="cls-13" d="M253.59,168.14c.7-1.3-.1-2.91-1-4.07s-2-2.38-2-3.86c0-2.14,2.3-3.4,4.12-4.52a20.28,20.28,0,0,0,3.69-3,5.24,5.24,0,0,0,1.13-1.52,6.19,6.19,0,0,0,.35-2.7q-.12-4.56-.46-9.12" transform="translate(0)"/><path class="cls-6" d="M262.8,139.21a3.29,3.29,0,0,0-1.66-2.72L260.4,138l0-1.79a3.69,3.69,0,0,0-1.1-.13,3.33,3.33,0,1,0,3.48,3.17Z" transform="translate(0)"/><path class="cls-6" d="M256.88,161.73a3.33,3.33,0,0,1-6.29-1.36,3.28,3.28,0,0,1,.22-1.35,3.33,3.33,0,0,1,6.23,0l-2.08,1.7,2.28-.54A3.21,3.21,0,0,1,256.88,161.73Z" transform="translate(0)"/><path class="cls-6" d="M255.23,155.27a3.33,3.33,0,0,1-3.48-3.17h0a3.42,3.42,0,0,1,.29-1.51,3.36,3.36,0,0,1,2.14-1.84l0,1.37.75-1.49h0a3.32,3.32,0,0,1,3.48,3.17h0a3.31,3.31,0,0,1-3.16,3.47Z" transform="translate(0)"/><path class="cls-6" d="M263.31,149.9a3.34,3.34,0,0,1-3.48-3.17h0a3.23,3.23,0,0,1,.32-1.58,3.31,3.31,0,0,1,4.42-1.58l.21.1-.58,1.61,1.2-1.16a3.33,3.33,0,0,1,1.08,2.3,3.16,3.16,0,0,1-.08.92A3.33,3.33,0,0,1,263.31,149.9Z" transform="translate(0)"/><path class="cls-4" d="M262.36,140.1c-.77.08-1.51.32-2.28.37a2.46,2.46,0,0,1-2.1-.74,11.59,11.59,0,0,1-.62-1.08,2.41,2.41,0,0,0-.83-.79,3.2,3.2,0,0,0-.36,1.66,3.32,3.32,0,0,0,6.57.55Z" transform="translate(0)"/><path class="cls-4" d="M263.31,149.9a3.34,3.34,0,0,1-3.48-3.17h0a3.23,3.23,0,0,1,.32-1.58,2.67,2.67,0,0,1,.67.67,8.21,8.21,0,0,0,.66,1.1,2.73,2.73,0,0,0,2.2.78c.8,0,1.58-.26,2.38-.34l.33,0A3.32,3.32,0,0,1,263.31,149.9Z" transform="translate(0)"/><path class="cls-4" d="M255.23,155.27a3.33,3.33,0,0,1-3.48-3.16h0a3.46,3.46,0,0,1,.29-1.52,2.66,2.66,0,0,1,.7.68,13.3,13.3,0,0,0,.72,1.12,3.08,3.08,0,0,0,2.36.83c.85,0,1.62-.22,2.44-.29A3.33,3.33,0,0,1,255.23,155.27Z" transform="translate(0)"/><path class="cls-4" d="M256.88,161.74a3.33,3.33,0,0,1-6.29-1.37,3.28,3.28,0,0,1,.22-1.35,3.47,3.47,0,0,1,.73.65,11.39,11.39,0,0,0,.89,1.18,4.14,4.14,0,0,0,2.76,1A13.66,13.66,0,0,0,256.88,161.74Z" transform="translate(0)"/><path class="cls-14" d="M248.57,166.64s2.62-.08,3.41-.65,4-1.23,4.24-.33,3.95,4.5,1,4.52-6.89-.46-7.68-.94S248.57,166.64,248.57,166.64Z" transform="translate(0)"/><path class="cls-7" d="M257.26,169.87c-3,0-6.89-.47-7.68-1-.6-.36-.85-1.68-.92-2.28h-.09s.16,2.12,1,2.59,4.72,1,7.68,1c.86,0,1.15-.31,1.14-.78C258.22,169.7,257.89,169.86,257.26,169.87Z" transform="translate(0)"/></svg>