<svg xmlns="http://www.w3.org/2000/svg" width="50" height="44.484" viewBox="0 0 50 44.484"><path d="M25,44.484a2.932,2.932,0,0,1-1.933-.726c-2.02-1.766-3.967-3.426-5.685-4.89l-.009-.008c-5.037-4.293-9.387-8-12.414-11.652C1.576,23.126,0,19.255,0,15.027A15.628,15.628,0,0,1,3.967,4.353,13.445,13.445,0,0,1,13.968,0a12.577,12.577,0,0,1,7.856,2.712A16.073,16.073,0,0,1,25,6.028a16.075,16.075,0,0,1,3.176-3.316A12.577,12.577,0,0,1,36.033,0a13.446,13.446,0,0,1,10,4.353A15.627,15.627,0,0,1,50,15.027c0,4.229-1.575,8.1-4.959,12.181-3.027,3.652-7.376,7.359-12.413,11.651-1.721,1.466-3.672,3.129-5.7,4.9A2.934,2.934,0,0,1,25,44.484ZM13.968,2.929A10.548,10.548,0,0,0,6.12,6.339a12.712,12.712,0,0,0-3.191,8.688c0,3.556,1.322,6.737,4.285,10.313,2.864,3.456,7.125,7.087,12.058,11.292l.009.008c1.725,1.47,3.68,3.136,5.714,4.915C27.043,39.771,29,38.1,30.729,36.63c4.933-4.2,9.193-7.834,12.058-11.291,2.963-3.576,4.285-6.757,4.285-10.313a12.712,12.712,0,0,0-3.191-8.688,10.548,10.548,0,0,0-7.848-3.41,9.714,9.714,0,0,0-6.065,2.1,14.212,14.212,0,0,0-3.38,3.911,1.849,1.849,0,0,1-3.176,0,14.2,14.2,0,0,0-3.38-3.911,9.714,9.714,0,0,0-6.064-2.1Zm0,0" transform="translate(0)" fill="#ec5e04"/></svg>